KumbhSans-Display.ufo
<glyph name="exclam" format="2">
  <advance width="462"/>
  <unicode hex="0021"/>
  <outline>
    <contour>
      <point x="267" y="401" type="line"/>
      <point x="300" y="1500" type="line"/>
      <point x="162" y="1500" type="line"/>
      <point x="195" y="401" type="line"/>
    </contour>
    <contour>
      <point x="231" y="-20" type="curve" smooth="yes"/>
      <point x="287.805" y="-20"/>
      <point x="332.775" y="24.97"/>
      <point x="332.775" y="80.592" type="curve" smooth="yes"/>
      <point x="332.775" y="136.213"/>
      <point x="287.805" y="180"/>
      <point x="231" y="180" type="curve" smooth="yes"/>
      <point x="174.195" y="180"/>
      <point x="129.225" y="136.213"/>
      <point x="129.225" y="80.592" type="curve" smooth="yes"/>
      <point x="129.225" y="24.97"/>
      <point x="174.195" y="-20"/>
    </contour>
  </outline>
</glyph>
<glyph name="quotedbl" format="1">
  <advance width="785"/>
  <unicode hex="0022"/>
  <outline>
    <contour>
      <point x="280" y="1085" type="line"/>
      <point x="297" y="1520" type="line"/>
      <point x="165" y="1520" type="line"/>
      <point x="183" y="1085" type="line"/>
    </contour>
    <contour>
      <point x="603" y="1085" type="line"/>
      <point x="620" y="1520" type="line"/>
      <point x="489" y="1520" type="line"/>
      <point x="506" y="1085" type="line"/>
    </contour>
  </outline>
</glyph>
<glyph name="numbersign" format="2">
  <advance width="1332"/>
  <unicode hex="0023"/>
  <outline>
    <contour>
      <point x="1250" y="958" type="line"/>
      <point x="1257" y="1000" type="line"/>
      <point x="1022" y="1000" type="line"/>
      <point x="1110" y="1500" type="line"/>
      <point x="973" y="1500" type="line"/>
      <point x="885" y="1000" type="line"/>
      <point x="543" y="1000" type="line"/>
      <point x="631" y="1500" type="line"/>
      <point x="495" y="1500" type="line"/>
      <point x="407" y="1000" type="line"/>
      <point x="164" y="1000" type="line"/>
      <point x="156" y="958" type="line"/>
      <point x="400" y="958" type="line"/>
      <point x="320" y="510" type="line"/>
      <point x="82" y="510" type="line"/>
      <point x="75" y="468" type="line"/>
      <point x="313" y="468" type="line"/>
      <point x="230" y="0" type="line"/>
      <point x="366" y="0" type="line"/>
      <point x="449" y="468" type="line"/>
      <point x="791" y="468" type="line"/>
      <point x="708" y="0" type="line"/>
      <point x="845" y="0" type="line"/>
      <point x="928" y="468" type="line"/>
      <point x="1169" y="468" type="line"/>
      <point x="1176" y="510" type="line"/>
      <point x="935" y="510" type="line"/>
      <point x="1014" y="958" type="line"/>
    </contour>
    <contour>
      <point x="457" y="510" type="line"/>
      <point x="536" y="958" type="line"/>
      <point x="878" y="958" type="line"/>
      <point x="798" y="510" type="line"/>
    </contour>
  </outline>
</glyph>
<glyph name="dollar" format="1">
  <advance width="1069"/>
  <unicode hex="0024"/>
  <outline>
    <contour>
      <point x="85" y="216" type="line"/>
      <point x="210" y="115"/>
      <point x="362" y="60"/>
      <point x="519" y="60" type="curve"/>
      <point x="519" y="-120" type="line"/>
      <point x="561" y="-120" type="line"/>
      <point x="561" y="61" type="line"/>
      <point x="808" y="75"/>
      <point x="974" y="225"/>
      <point x="974" y="440" type="curve" smooth="yes"/>
      <point x="974" y="665"/>
      <point x="791" y="746"/>
      <point x="615" y="824" type="curve" smooth="yes"/>
      <point x="454" y="895"/>
      <point x="298" y="963"/>
      <point x="298" y="1138" type="curve" smooth="yes"/>
      <point x="298" y="1293"/>
      <point x="419" y="1398"/>
      <point x="596" y="1398" type="curve" smooth="yes"/>
      <point x="688" y="1398"/>
      <point x="791" y="1369"/>
      <point x="888" y="1316" type="curve"/>
      <point x="907" y="1354" type="line"/>
      <point x="801" y="1410"/>
      <point x="689" y="1440"/>
      <point x="581" y="1440" type="curve"/>
      <point x="581" y="1620" type="line"/>
      <point x="539" y="1620" type="line"/>
      <point x="539" y="1439" type="line"/>
      <point x="315" y="1424"/>
      <point x="159" y="1284"/>
      <point x="159" y="1085" type="curve" smooth="yes"/>
      <point x="159" y="872"/>
      <point x="337" y="798"/>
      <point x="510" y="724" type="curve" smooth="yes"/>
      <point x="676" y="654"/>
      <point x="837" y="585"/>
      <point x="837" y="399" type="curve" smooth="yes"/>
      <point x="837" y="226"/>
      <point x="697" y="106"/>
      <point x="495" y="106" type="curve" smooth="yes"/>
      <point x="360" y="106"/>
      <point x="215" y="160"/>
      <point x="106" y="251" type="curve"/>
    </contour>
  </outline>
</glyph>
<glyph name="percent" format="2">
  <advance width="1678"/>
  <unicode hex="0025"/>
  <outline>
    <contour>
      <point x="417" y="873" type="curve" smooth="yes"/>
      <point x="616" y="873"/>
      <point x="748" y="1002"/>
      <point x="748" y="1196" type="curve" smooth="yes"/>
      <point x="748" y="1391"/>
      <point x="617" y="1520"/>
      <point x="417" y="1520" type="curve" smooth="yes"/>
      <point x="218" y="1520"/>
      <point x="85" y="1391"/>
      <point x="85" y="1196" type="curve" smooth="yes"/>
      <point x="85" y="1002"/>
      <point x="218" y="873"/>
    </contour>
    <contour>
      <point x="381" y="0" type="line"/>
      <point x="1348" y="1500" type="line"/>
      <point x="1296" y="1500" type="line"/>
      <point x="329" y="0" type="line"/>
    </contour>
    <contour>
      <point x="417" y="914" type="curve" smooth="yes"/>
      <point x="291" y="914"/>
      <point x="207" y="1026"/>
      <point x="207" y="1196" type="curve" smooth="yes"/>
      <point x="207" y="1367"/>
      <point x="291" y="1480"/>
      <point x="417" y="1480" type="curve" smooth="yes"/>
      <point x="543" y="1480"/>
      <point x="626" y="1366"/>
      <point x="626" y="1196" type="curve" smooth="yes"/>
      <point x="626" y="1027"/>
      <point x="542" y="914"/>
    </contour>
    <contour>
      <point x="1261" y="-20" type="curve" smooth="yes"/>
      <point x="1460" y="-20"/>
      <point x="1593" y="109"/>
      <point x="1593" y="303" type="curve" smooth="yes"/>
      <point x="1593" y="498"/>
      <point x="1461" y="627"/>
      <point x="1261" y="627" type="curve" smooth="yes"/>
      <point x="1062" y="627"/>
      <point x="929" y="498"/>
      <point x="929" y="303" type="curve" smooth="yes"/>
      <point x="929" y="109"/>
      <point x="1062" y="-20"/>
    </contour>
    <contour>
      <point x="1261" y="21" type="curve" smooth="yes"/>
      <point x="1135" y="21"/>
      <point x="1051" y="133"/>
      <point x="1051" y="303" type="curve" smooth="yes"/>
      <point x="1051" y="474"/>
      <point x="1135" y="587"/>
      <point x="1261" y="587" type="curve" smooth="yes"/>
      <point x="1387" y="587"/>
      <point x="1470" y="473"/>
      <point x="1470" y="303" type="curve" smooth="yes"/>
      <point x="1470" y="134"/>
      <point x="1386" y="21"/>
    </contour>
  </outline>
</glyph>
<glyph name="ampersand" format="2">
  <advance width="1509"/>
  <unicode hex="0026"/>
  <outline>
    <contour>
      <point x="1434" y="77" type="line"/>
      <point x="1342" y="139"/>
      <point x="1256" y="201"/>
      <point x="1176" y="263" type="curve"/>
      <point x="1271" y="381"/>
      <point x="1350" y="534"/>
      <point x="1410" y="716" type="curve"/>
      <point x="1368" y="728" type="line"/>
      <point x="1311" y="551"/>
      <point x="1234" y="403"/>
      <point x="1141" y="291" type="curve"/>
      <point x="914" y="470"/>
      <point x="739" y="645"/>
      <point x="624" y="808" type="curve"/>
      <point x="805" y="899"/>
      <point x="990" y="995"/>
      <point x="990" y="1215" type="curve" smooth="yes"/>
      <point x="990" y="1402"/>
      <point x="857" y="1530"/>
      <point x="664" y="1530" type="curve" smooth="yes"/>
      <point x="464" y="1530"/>
      <point x="317" y="1392"/>
      <point x="317" y="1207" type="curve" smooth="yes"/>
      <point x="317" y="1092"/>
      <point x="373" y="954"/>
      <point x="475" y="803" type="curve"/>
      <point x="297" y="717"/>
      <point x="125" y="623"/>
      <point x="125" y="393" type="curve" smooth="yes"/>
      <point x="125" y="144"/>
      <point x="325" y="-30"/>
      <point x="610" y="-30" type="curve" smooth="yes"/>
      <point x="791" y="-30"/>
      <point x="954" y="40"/>
      <point x="1092" y="172" type="curve"/>
      <point x="1177" y="105"/>
      <point x="1268" y="39"/>
      <point x="1364" y="-25" type="curve"/>
    </contour>
    <contour>
      <point x="590" y="859" type="curve"/>
      <point x="506" y="991"/>
      <point x="462" y="1114"/>
      <point x="462" y="1224" type="curve" smooth="yes"/>
      <point x="462" y="1378"/>
      <point x="548" y="1488"/>
      <point x="667" y="1488" type="curve" smooth="yes"/>
      <point x="786" y="1488"/>
      <point x="870" y="1378"/>
      <point x="870" y="1223" type="curve" smooth="yes"/>
      <point x="870" y="1030"/>
      <point x="741" y="937"/>
    </contour>
    <contour>
      <point x="514" y="746" type="curve"/>
      <point x="643" y="571"/>
      <point x="829" y="383"/>
      <point x="1056" y="201" type="curve"/>
      <point x="942" y="98"/>
      <point x="812" y="42"/>
      <point x="673" y="42" type="curve" smooth="yes"/>
      <point x="445" y="42"/>
      <point x="286" y="192"/>
      <point x="286" y="404" type="curve" smooth="yes"/>
      <point x="286" y="573"/>
      <point x="388" y="669"/>
    </contour>
  </outline>
</glyph>
<glyph name="parenleft" format="2">
  <advance width="607"/>
  <unicode hex="0028"/>
  <outline>
    <contour>
      <point x="532" y="-289" type="line" name="av02"/>
      <point x="330" y="-25"/>
      <point x="221" y="297"/>
      <point x="221" y="626" type="curve" smooth="yes" name="dh02"/>
      <point x="221" y="956"/>
      <point x="330" y="1277"/>
      <point x="532" y="1540" type="curve" name="av01"/>
      <point x="367" y="1540" type="line"/>
      <point x="178" y="1284"/>
      <point x="75" y="962"/>
      <point x="75" y="625" type="curve" smooth="yes" name="dh01"/>
      <point x="75" y="288"/>
      <point x="178" y="-34"/>
      <point x="367" y="-289" type="curve"/>
    </contour>
  </outline>
</glyph>
<glyph name="plus" format="1">
  <advance width="1144"/>
  <unicode hex="002B"/>
  <outline>
    <contour>
      <point x="989" y="477" type="line"/>
      <point x="989" y="515" type="line"/>
      <point x="645" y="515" type="line"/>
      <point x="645" y="909" type="line"/>
      <point x="499" y="909" type="line"/>
      <point x="499" y="515" type="line"/>
      <point x="155" y="515" type="line"/>
      <point x="155" y="477" type="line"/>
      <point x="499" y="477" type="line"/>
      <point x="499" y="83" type="line"/>
      <point x="645" y="83" type="line"/>
      <point x="645" y="477" type="line"/>
    </contour>
  </outline>
</glyph>
<glyph name="period" format="2">
  <advance width="447"/>
  <unicode hex="002E"/>
  <outline>
    <contour>
      <point x="222.867" y="-13" type="curve" smooth="yes"/>
      <point x="281.095" y="-13"/>
      <point x="322.867" y="28.772"/>
      <point x="322.867" y="87" type="curve" smooth="yes"/>
      <point x="322.867" y="145.228"/>
      <point x="281.095" y="187"/>
      <point x="222.867" y="187" type="curve" smooth="yes"/>
      <point x="164.639" y="187"/>
      <point x="124.133" y="145.228"/>
      <point x="124.133" y="87" type="curve" smooth="yes"/>
      <point x="124.133" y="28.772"/>
      <point x="164.639" y="-13"/>
    </contour>
  </outline>
</glyph>
<glyph name="zero" format="2">
  <advance width="1167"/>
  <unicode hex="0030"/>
  <outline>
    <contour>
      <point x="584" y="-30" type="curve" smooth="yes"/>
      <point x="908" y="-30"/>
      <point x="1092" y="253"/>
      <point x="1092" y="751" type="curve" smooth="yes"/>
      <point x="1092" y="1247"/>
      <point x="908" y="1530"/>
      <point x="584" y="1530" type="curve" smooth="yes"/>
      <point x="260" y="1530"/>
      <point x="75" y="1247"/>
      <point x="75" y="751" type="curve" smooth="yes"/>
      <point x="75" y="253"/>
      <point x="260" y="-30"/>
    </contour>
    <contour>
      <point x="584" y="12" type="curve" smooth="yes"/>
      <point x="379" y="12"/>
      <point x="255" y="289"/>
      <point x="255" y="751" type="curve" smooth="yes"/>
      <point x="255" y="1212"/>
      <point x="379" y="1488"/>
      <point x="584" y="1488" type="curve" smooth="yes"/>
      <point x="789" y="1488"/>
      <point x="912" y="1212"/>
      <point x="912" y="751" type="curve" smooth="yes"/>
      <point x="912" y="289"/>
      <point x="789" y="12"/>
    </contour>
  </outline>
</glyph>
<glyph name="one" format="2">
  <advance width="685"/>
  <unicode hex="0031"/>
  <outline>
    <contour>
      <point x="510" y="0" type="line"/>
      <point x="510" y="1500" type="line"/>
      <point x="466" y="1500" type="line"/>
      <point x="25" y="1378" type="line"/>
      <point x="38" y="1338" type="line"/>
      <point x="334" y="1427" type="line"/>
      <point x="334" y="0" type="line"/>
    </contour>
  </outline>
</glyph>
<glyph name="two" format="2">
  <advance width="1222"/>
  <unicode hex="0032"/>
  <outline>
    <contour>
      <point x="1077" y="0" type="line"/>
      <point x="1077" y="155" type="line"/>
      <point x="350" y="155" type="line"/>
      <point x="841" y="538"/>
      <point x="1052" y="825"/>
      <point x="1052" y="1103" type="curve" smooth="yes"/>
      <point x="1052" y="1356"/>
      <point x="878" y="1530"/>
      <point x="624" y="1530" type="curve" smooth="yes"/>
      <point x="445" y="1530"/>
      <point x="276" y="1443"/>
      <point x="155" y="1289" type="curve"/>
      <point x="188" y="1263" type="line"/>
      <point x="279" y="1387"/>
      <point x="409" y="1458"/>
      <point x="543" y="1458" type="curve" smooth="yes"/>
      <point x="741" y="1458"/>
      <point x="873" y="1303"/>
      <point x="873" y="1074" type="curve" smooth="yes"/>
      <point x="873" y="777"/>
      <point x="653" y="462"/>
      <point x="175" y="74" type="curve"/>
      <point x="175" y="0" type="line"/>
    </contour>
  </outline>
</glyph>
<glyph name="three" format="2">
  <advance width="1231"/>
  <unicode hex="0033"/>
  <outline>
    <contour>
      <point x="145" y="140" type="line"/>
      <point x="269" y="28"/>
      <point x="420" y="-30"/>
      <point x="585" y="-30" type="curve" smooth="yes"/>
      <point x="875" y="-30"/>
      <point x="1086" y="150"/>
      <point x="1086" y="396" type="curve" smooth="yes"/>
      <point x="1086" y="602"/>
      <point x="939" y="746"/>
      <point x="703" y="784" type="curve"/>
      <point x="891" y="834"/>
      <point x="1022" y="982"/>
      <point x="1022" y="1163" type="curve" smooth="yes"/>
      <point x="1022" y="1377"/>
      <point x="840" y="1530"/>
      <point x="584" y="1530" type="curve" smooth="yes"/>
      <point x="431" y="1530"/>
      <point x="293" y="1476"/>
      <point x="180" y="1371" type="curve"/>
      <point x="210" y="1339" type="line"/>
      <point x="295" y="1421"/>
      <point x="401" y="1465"/>
      <point x="513" y="1465" type="curve" smooth="yes"/>
      <point x="706" y="1465"/>
      <point x="846" y="1332"/>
      <point x="846" y="1148" type="curve" smooth="yes"/>
      <point x="846" y="949"/>
      <point x="681" y="801"/>
      <point x="458" y="801" type="curve" smooth="yes"/>
      <point x="408" y="801" type="line"/>
      <point x="408" y="758" type="line"/>
      <point x="458" y="758" type="line" smooth="yes"/>
      <point x="733" y="758"/>
      <point x="899" y="626"/>
      <point x="899" y="407" type="curve" smooth="yes"/>
      <point x="899" y="191"/>
      <point x="736" y="35"/>
      <point x="511" y="35" type="curve" smooth="yes"/>
      <point x="386" y="35"/>
      <point x="268" y="82"/>
      <point x="172" y="173" type="curve"/>
    </contour>
  </outline>
</glyph>
<glyph name="four" format="2">
  <advance width="1256"/>
  <unicode hex="0034"/>
  <outline>
    <contour>
      <point x="998" y="0" type="line"/>
      <point x="998" y="389" type="line"/>
      <point x="1181" y="389" type="line"/>
      <point x="1181" y="431" type="line"/>
      <point x="998" y="431" type="line"/>
      <point x="998" y="1500" type="line"/>
      <point x="920" y="1500" type="line"/>
      <point x="75" y="430" type="line"/>
      <point x="75" y="389" type="line"/>
      <point x="822" y="389" type="line"/>
      <point x="822" y="0" type="line"/>
    </contour>
    <contour>
      <point x="130" y="431" type="line"/>
      <point x="822" y="1308" type="line"/>
      <point x="822" y="431" type="line"/>
    </contour>
  </outline>
</glyph>
<glyph name="five" format="2">
  <advance width="1104"/>
  <unicode hex="0035"/>
  <outline>
    <contour>
      <point x="75" y="162" type="line"/>
      <point x="177" y="39"/>
      <point x="335" y="-30"/>
      <point x="513" y="-30" type="curve" smooth="yes"/>
      <point x="817" y="-30"/>
      <point x="1029" y="172"/>
      <point x="1029" y="460" type="curve" smooth="yes"/>
      <point x="1029" y="739"/>
      <point x="831" y="926"/>
      <point x="534" y="926" type="curve" smooth="yes"/>
      <point x="466" y="926"/>
      <point x="401" y="916"/>
      <point x="340" y="897" type="curve"/>
      <point x="403" y="1458" type="line"/>
      <point x="977" y="1458" type="line"/>
      <point x="977" y="1500" type="line"/>
      <point x="253" y="1500" type="line"/>
      <point x="176" y="810" type="line"/>
      <point x="208" y="783" type="line"/>
      <point x="288" y="837"/>
      <point x="371" y="863"/>
      <point x="461.717" y="863" type="curve" smooth="yes"/>
      <point x="693" y="863"/>
      <point x="850" y="694"/>
      <point x="850" y="448" type="curve" smooth="yes"/>
      <point x="850" y="199"/>
      <point x="690" y="29"/>
      <point x="454" y="29" type="curve" smooth="yes"/>
      <point x="317" y="29"/>
      <point x="198" y="86"/>
      <point x="105" y="194" type="curve"/>
    </contour>
  </outline>
</glyph>
<glyph name="six" format="2">
  <advance width="1125"/>
  <unicode hex="0036"/>
  <outline>
    <contour>
      <point x="564" y="-30" type="curve" smooth="yes"/>
      <point x="851" y="-30"/>
      <point x="1050" y="164"/>
      <point x="1050" y="443" type="curve" smooth="yes"/>
      <point x="1050" y="707"/>
      <point x="871" y="895"/>
      <point x="621" y="895" type="curve" smooth="yes"/>
      <point x="446" y="895"/>
      <point x="318" y="805"/>
      <point x="255" y="645" type="curve"/>
      <point x="303" y="1010"/>
      <point x="492" y="1303"/>
      <point x="789" y="1464" type="curve"/>
      <point x="769" y="1500" type="line"/>
      <point x="359" y="1323"/>
      <point x="75" y="922"/>
      <point x="75" y="514" type="curve" smooth="yes"/>
      <point x="75" y="181"/>
      <point x="264" y="-30"/>
    </contour>
    <contour>
      <point x="565" y="12" type="curve" smooth="yes"/>
      <point x="387" y="12"/>
      <point x="259" y="184"/>
      <point x="259" y="421" type="curve" smooth="yes"/>
      <point x="259" y="660"/>
      <point x="389" y="831"/>
      <point x="570" y="831" type="curve" smooth="yes"/>
      <point x="747" y="831"/>
      <point x="870" y="667"/>
      <point x="870" y="428" type="curve" smooth="yes"/>
      <point x="870" y="186"/>
      <point x="743" y="12"/>
    </contour>
  </outline>
</glyph>
<glyph name="seven" format="2">
  <advance width="1100"/>
  <unicode hex="0037"/>
  <outline>
    <contour>
      <point x="439" y="0" type="line"/>
      <point x="1025" y="1458" type="line"/>
      <point x="1025" y="1500" type="line"/>
      <point x="75" y="1500" type="line"/>
      <point x="75" y="1458" type="line"/>
      <point x="834" y="1458" type="line"/>
      <point x="248" y="0" type="line"/>
    </contour>
  </outline>
</glyph>
<glyph name="eight" format="1">
  <advance width="1183"/>
  <unicode hex="0038"/>
  <outline>
    <contour>
      <point x="591" y="-30" type="curve" smooth="yes"/>
      <point x="883" y="-30"/>
      <point x="1078" y="138"/>
      <point x="1078" y="389" type="curve" smooth="yes"/>
      <point x="1078" y="597"/>
      <point x="945" y="747"/>
      <point x="735" y="793" type="curve"/>
      <point x="914" y="838"/>
      <point x="1024" y="970"/>
      <point x="1024" y="1154" type="curve" smooth="yes"/>
      <point x="1024" y="1381"/>
      <point x="852" y="1530"/>
      <point x="591" y="1530" type="curve" smooth="yes"/>
      <point x="329" y="1530"/>
      <point x="158" y="1381"/>
      <point x="158" y="1153" type="curve" smooth="yes"/>
      <point x="158" y="970"/>
      <point x="268" y="838"/>
      <point x="447" y="793" type="curve"/>
      <point x="237" y="747"/>
      <point x="105" y="595"/>
      <point x="105" y="388" type="curve" smooth="yes"/>
      <point x="105" y="136"/>
      <point x="299" y="-30"/>
    </contour>
    <contour>
      <point x="590" y="818" type="curve" smooth="yes"/>
      <point x="438" y="818"/>
      <point x="334" y="953"/>
      <point x="334" y="1152" type="curve" smooth="yes"/>
      <point x="334" y="1352"/>
      <point x="438" y="1488"/>
      <point x="591" y="1488" type="curve" smooth="yes"/>
      <point x="744" y="1488"/>
      <point x="848" y="1352"/>
      <point x="848" y="1152" type="curve" smooth="yes"/>
      <point x="848" y="953"/>
      <point x="744" y="818"/>
    </contour>
    <contour>
      <point x="591" y="12" type="curve" smooth="yes"/>
      <point x="409" y="12"/>
      <point x="285" y="164"/>
      <point x="285" y="388" type="curve" smooth="yes"/>
      <point x="285" y="613"/>
      <point x="409" y="766"/>
      <point x="591" y="766" type="curve" smooth="yes"/>
      <point x="774" y="766"/>
      <point x="898" y="613"/>
      <point x="898" y="388" type="curve" smooth="yes"/>
      <point x="898" y="164"/>
      <point x="774" y="12"/>
    </contour>
  </outline>
</glyph>
<glyph name="nine" format="2">
  <advance width="1125"/>
  <unicode hex="0039"/>
  <outline>
    <contour>
      <point x="356" y="0" type="line"/>
      <point x="767" y="177"/>
      <point x="1050" y="578"/>
      <point x="1050" y="986" type="curve" smooth="yes"/>
      <point x="1050" y="1320"/>
      <point x="861" y="1530"/>
      <point x="561" y="1530" type="curve" smooth="yes"/>
      <point x="275" y="1530"/>
      <point x="75" y="1337"/>
      <point x="75" y="1059" type="curve" smooth="yes"/>
      <point x="75" y="794"/>
      <point x="254" y="605"/>
      <point x="505" y="605" type="curve" smooth="yes"/>
      <point x="679" y="605"/>
      <point x="808" y="695"/>
      <point x="871" y="855" type="curve"/>
      <point x="823" y="490"/>
      <point x="634" y="197"/>
      <point x="337" y="36" type="curve"/>
    </contour>
    <contour>
      <point x="556" y="669" type="curve" smooth="yes"/>
      <point x="378" y="669"/>
      <point x="255" y="835"/>
      <point x="255" y="1073" type="curve" smooth="yes"/>
      <point x="255" y="1315"/>
      <point x="382" y="1488"/>
      <point x="560" y="1488" type="curve" smooth="yes"/>
      <point x="738" y="1488"/>
      <point x="866" y="1316"/>
      <point x="866" y="1079" type="curve" smooth="yes"/>
      <point x="866" y="840"/>
      <point x="736" y="669"/>
    </contour>
  </outline>
</glyph>
<glyph name="colon" format="2">
  <advance width="463"/>
  <unicode hex="003A"/>
  <outline>
    <contour>
      <point x="230.925" y="780" type="curve" smooth="yes"/>
      <point x="287.247" y="780"/>
      <point x="330.925" y="823.678"/>
      <point x="330.925" y="880" type="curve" smooth="yes"/>
      <point x="330.925" y="935.172"/>
      <point x="287.247" y="980"/>
      <point x="230.925" y="980" type="curve" smooth="yes"/>
      <point x="174.603" y="980"/>
      <point x="132.075" y="935.172"/>
      <point x="132.075" y="880" type="curve" smooth="yes"/>
      <point x="132.075" y="823.678"/>
      <point x="174.603" y="780"/>
    </contour>
    <contour>
      <point x="230.922" y="-20" type="curve" smooth="yes"/>
      <point x="287.569" y="-20"/>
      <point x="331.5" y="23.931"/>
      <point x="331.5" y="80.578" type="curve" smooth="yes"/>
      <point x="331.5" y="136.069"/>
      <point x="287.569" y="180"/>
      <point x="230.922" y="180" type="curve" smooth="yes"/>
      <point x="174.275" y="180"/>
      <point x="131.5" y="136.069"/>
      <point x="131.5" y="80.578" type="curve" smooth="yes"/>
      <point x="131.5" y="23.931"/>
      <point x="174.275" y="-20"/>
    </contour>
  </outline>
</glyph>
<glyph name="semicolon" format="2">
  <advance width="471"/>
  <unicode hex="003B"/>
  <outline>
    <contour>
      <point x="258.844" y="780" type="curve" smooth="yes"/>
      <point x="315.491" y="780"/>
      <point x="359.422" y="822.775"/>
      <point x="359.422" y="879.422" type="curve" smooth="yes"/>
      <point x="359.422" y="934.913"/>
      <point x="315.491" y="980"/>
      <point x="258.844" y="980" type="curve" smooth="yes"/>
      <point x="202.197" y="980"/>
      <point x="160.578" y="934.913"/>
      <point x="160.578" y="879.422" type="curve" smooth="yes"/>
      <point x="160.578" y="822.775"/>
      <point x="202.197" y="780"/>
    </contour>
    <contour>
      <point x="237" y="-240" type="line"/>
      <point x="346" y="180" type="line"/>
      <point x="195" y="180" type="line" name="av01"/>
      <point x="115" y="-240" type="line"/>
    </contour>
  </outline>
</glyph>
<glyph name="equal" format="2">
  <advance width="1265"/>
  <unicode hex="003D"/>
  <outline>
    <contour>
      <point x="1110" y="664" type="line"/>
      <point x="1110" y="796" type="line"/>
      <point x="155" y="796" type="line"/>
      <point x="155" y="664" type="line"/>
    </contour>
    <contour>
      <point x="1110" y="177" type="line"/>
      <point x="1110" y="309" type="line"/>
      <point x="155" y="309" type="line"/>
      <point x="155" y="177" type="line"/>
    </contour>
  </outline>
</glyph>
<glyph name="at" format="2">
  <advance width="1917"/>
  <unicode hex="0040"/>
  <outline>
    <contour>
      <point x="874" y="78" type="curve" smooth="yes"/>
      <point x="1056" y="78"/>
      <point x="1201" y="172"/>
      <point x="1280" y="338" type="curve"/>
      <point x="1289" y="177"/>
      <point x="1371" y="78"/>
      <point x="1500" y="78" type="curve" smooth="yes"/>
      <point x="1697" y="78"/>
      <point x="1842" y="306"/>
      <point x="1842" y="614" type="curve" smooth="yes"/>
      <point x="1842" y="1086"/>
      <point x="1504" y="1413"/>
      <point x="1014" y="1413" type="curve" smooth="yes"/>
      <point x="478" y="1413"/>
      <point x="75" y="1021"/>
      <point x="75" y="498" type="curve" smooth="yes"/>
      <point x="75" y="35"/>
      <point x="393" y="-285"/>
      <point x="854" y="-285" type="curve" smooth="yes"/>
      <point x="1027" y="-285"/>
      <point x="1196" y="-241"/>
      <point x="1360" y="-153" type="curve"/>
      <point x="1341" y="-115" type="line"/>
      <point x="1189" y="-202"/>
      <point x="1024" y="-247"/>
      <point x="859" y="-247" type="curve" smooth="yes"/>
      <point x="431" y="-247"/>
      <point x="134" y="57"/>
      <point x="134" y="498" type="curve" smooth="yes"/>
      <point x="134" y="997"/>
      <point x="513" y="1376"/>
      <point x="1014" y="1376" type="curve" smooth="yes"/>
      <point x="1469" y="1376"/>
      <point x="1783" y="1064"/>
      <point x="1783" y="614" type="curve" smooth="yes"/>
      <point x="1783" y="340"/>
      <point x="1666" y="116"/>
      <point x="1521" y="116" type="curve" smooth="yes"/>
      <point x="1426" y="116"/>
      <point x="1393" y="213"/>
      <point x="1393" y="375" type="curve" smooth="yes"/>
      <point x="1393" y="602"/>
      <point x="1411" y="730"/>
      <point x="1447" y="957" type="curve"/>
      <point x="1334" y="957" type="line"/>
      <point x="1313" y="739" type="line"/>
      <point x="1259" y="918"/>
      <point x="1124" y="1021"/>
      <point x="934" y="1021" type="curve" smooth="yes"/>
      <point x="660" y="1021"/>
      <point x="452" y="804"/>
      <point x="452" y="517" type="curve" smooth="yes"/>
      <point x="452" y="257"/>
      <point x="624" y="78"/>
    </contour>
    <contour>
      <point x="902" y="122" type="curve" smooth="yes"/>
      <point x="707" y="122"/>
      <point x="580" y="276"/>
      <point x="580" y="512" type="curve" smooth="yes"/>
      <point x="580" y="780"/>
      <point x="744" y="978"/>
      <point x="966" y="978" type="curve" smooth="yes"/>
      <point x="1164" y="978"/>
      <point x="1300" y="822"/>
      <point x="1300" y="590" type="curve"/>
      <point x="1290" y="479" type="line"/>
      <point x="1250" y="270"/>
      <point x="1095" y="122"/>
    </contour>
  </outline>
</glyph>
<glyph name="A" format="2">
  <advance width="1439"/>
  <unicode hex="0041"/>
  <anchor x="720" y="0" name="bottom"/>
  <anchor x="1335" y="0" name="ogonek"/>
  <anchor x="720" y="1500" name="top"/>
  <outline>
    <contour>
      <point x="93" y="0" type="line"/>
      <point x="297" y="481" type="line" name="dv01"/>
      <point x="998" y="481" type="line"/>
      <point x="1203" y="0" type="line"/>
      <point x="1394" y="0" type="line"/>
      <point x="756" y="1500" type="line"/>
      <point x="683" y="1500" type="line"/>
      <point x="45" y="0" type="line"/>
    </contour>
    <contour>
      <point x="315" y="523" type="line" name="dv02"/>
      <point x="648" y="1306" type="line"/>
      <point x="981" y="523" type="line"/>
    </contour>
  </outline>
</glyph>
<glyph name="B" format="2">
  <advance width="1323"/>
  <unicode hex="0042"/>
  <outline>
    <contour>
      <point x="155" y="0" type="line"/>
      <point x="728" y="0" type="line" smooth="yes" name="ab02"/>
      <point x="1022" y="0"/>
      <point x="1218" y="167"/>
      <point x="1218" y="415" type="curve" smooth="yes"/>
      <point x="1218" y="610"/>
      <point x="1100" y="748"/>
      <point x="905" y="790" type="curve"/>
      <point x="1052" y="837"/>
      <point x="1148" y="965"/>
      <point x="1148" y="1132" type="curve" smooth="yes"/>
      <point x="1148" y="1361"/>
      <point x="974" y="1500"/>
      <point x="687" y="1500" type="curve" smooth="yes"/>
      <point x="155" y="1500" type="line" name="at01"/>
    </contour>
    <contour>
      <point x="331" y="804" type="line"/>
      <point x="331" y="1458" type="line"/>
      <point x="661" y="1458" type="line" smooth="yes" name="sv03"/>
      <point x="855" y="1458"/>
      <point x="974" y="1335"/>
      <point x="974" y="1135" type="curve" smooth="yes"/>
      <point x="974" y="934"/>
      <point x="855" y="804"/>
      <point x="671" y="804" type="curve" smooth="yes" name="sv02"/>
    </contour>
    <contour>
      <point x="331" y="42" type="line"/>
      <point x="331" y="762" type="line"/>
      <point x="682" y="762" type="line" smooth="yes" name="dv01"/>
      <point x="901" y="762"/>
      <point x="1038" y="626"/>
      <point x="1038" y="409" type="curve" smooth="yes"/>
      <point x="1038" y="187"/>
      <point x="896" y="42"/>
      <point x="678" y="42" type="curve" smooth="yes" name="sv05"/>
    </contour>
  </outline>
</glyph>
<glyph name="D" format="1">
  <advance width="1548"/>
  <unicode hex="0044"/>
  <outline>
    <contour>
      <point x="155" y="0" type="line"/>
      <point x="585" y="0" type="line" smooth="yes"/>
      <point x="1144" y="0"/>
      <point x="1473" y="277"/>
      <point x="1473" y="750" type="curve" smooth="yes"/>
      <point x="1473" y="1223"/>
      <point x="1144" y="1500"/>
      <point x="585" y="1500" type="curve" smooth="yes"/>
      <point x="155" y="1500" type="line"/>
    </contour>
    <contour>
      <point x="331" y="42" type="line"/>
      <point x="331" y="1458" type="line"/>
      <point x="588" y="1458" type="line" smooth="yes"/>
      <point x="1033" y="1458"/>
      <point x="1293" y="1197"/>
      <point x="1293" y="750" type="curve" smooth="yes"/>
      <point x="1293" y="304"/>
      <point x="1032" y="42"/>
      <point x="588" y="42" type="curve" smooth="yes"/>
    </contour>
  </outline>
</glyph>
<glyph name="E" format="2">
  <advance width="1229"/>
  <unicode hex="0045"/>
  <anchor x="615" y="0" name="bottom"/>
  <anchor x="1056" y="0" name="ogonek"/>
  <anchor x="615" y="1500" name="top"/>
  <anchor x="20" y="1500" name="topleft"/>
  <outline>
    <contour>
      <point x="155" y="0" type="line"/>
      <point x="1084" y="0" type="line"/>
      <point x="1084" y="42" type="line"/>
      <point x="331" y="42" type="line"/>
      <point x="331" y="744" type="line"/>
      <point x="1033" y="744" type="line"/>
      <point x="1033" y="786" type="line"/>
      <point x="331" y="786" type="line"/>
      <point x="331" y="1458" type="line"/>
      <point x="1074" y="1458" type="line"/>
      <point x="1074" y="1500" type="line"/>
      <point x="155" y="1500" type="line"/>
    </contour>
  </outline>
</glyph>
<glyph name="F" format="2">
  <advance width="1204"/>
  <unicode hex="0046"/>
  <outline>
    <contour>
      <point x="155" y="0" type="line"/>
      <point x="331" y="0" type="line"/>
      <point x="331" y="744" type="line"/>
      <point x="1018" y="744" type="line"/>
      <point x="1018" y="786" type="line"/>
      <point x="331" y="786" type="line"/>
      <point x="331" y="1458" type="line"/>
      <point x="1059" y="1458" type="line"/>
      <point x="1059" y="1500" type="line"/>
      <point x="155" y="1500" type="line"/>
    </contour>
  </outline>
</glyph>
<glyph name="G" format="2">
  <advance width="1668"/>
  <unicode hex="0047"/>
  <anchor x="867" y="0" name="bottom"/>
  <anchor x="844" y="1500" name="top"/>
  <outline>
    <contour>
      <point x="1369" y="1291" type="curve"/>
      <point x="1402" y="1323" type="line"/>
      <point x="1261" y="1457"/>
      <point x="1068" y="1530"/>
      <point x="858" y="1530" type="curve" smooth="yes"/>
      <point x="408" y="1530"/>
      <point x="75" y="1196"/>
      <point x="75" y="745" type="curve" smooth="yes"/>
      <point x="75" y="299"/>
      <point x="400" y="-30"/>
      <point x="842" y="-30" type="curve" smooth="yes"/>
      <point x="1281" y="-30"/>
      <point x="1593" y="294"/>
      <point x="1593" y="750" type="curve"/>
      <point x="1592" y="763" type="line"/>
      <point x="868" y="763" type="line"/>
      <point x="868" y="721" type="line"/>
      <point x="1418" y="721" type="line"/>
      <point x="1418" y="299"/>
      <point x="1183" y="12"/>
      <point x="853" y="12" type="curve" smooth="yes"/>
      <point x="508" y="12"/>
      <point x="255" y="322"/>
      <point x="255" y="744" type="curve" smooth="yes"/>
      <point x="255" y="1177"/>
      <point x="522" y="1479"/>
      <point x="904" y="1479" type="curve" smooth="yes"/>
      <point x="1082" y="1479"/>
      <point x="1242" y="1414"/>
    </contour>
  </outline>
</glyph>
<glyph name="J" format="2">
  <advance width="479"/>
  <unicode hex="004A"/>
  <anchor x="240" y="0" name="bottom"/>
  <anchor x="240" y="1500" name="top"/>
  <outline>
    <contour>
      <point x="-194" y="-360" type="line"/>
      <point x="168" y="-360"/>
      <point x="324" y="-222"/>
      <point x="324" y="93" type="curve" smooth="yes"/>
      <point x="324" y="1500" type="line"/>
      <point x="148" y="1500" type="line"/>
      <point x="148" y="85" type="line" smooth="yes"/>
      <point x="148" y="-182"/>
      <point x="32" y="-318"/>
      <point x="-195" y="-318" type="curve"/>
    </contour>
  </outline>
</glyph>
<glyph name="K" format="2">
  <advance width="1375"/>
  <unicode hex="004B"/>
  <anchor x="695" y="0" name="bottom"/>
  <anchor x="688" y="1500" name="top"/>
  <outline>
    <contour>
      <point x="332" y="0" type="line"/>
      <point x="332" y="393" type="line"/>
      <point x="569" y="691" type="line"/>
      <point x="1129" y="0" type="line"/>
      <point x="1360" y="0" type="line"/>
      <point x="683" y="835" type="line"/>
      <point x="1211" y="1500" type="line"/>
      <point x="1155" y="1500" type="line"/>
      <point x="412" y="564.1" type="line" smooth="yes"/>
      <point x="380.131" y="523.957"/>
      <point x="356" y="492.031"/>
      <point x="331" y="460" type="curve"/>
      <point x="331" y="1500" type="line"/>
      <point x="155" y="1500" type="line"/>
      <point x="155" y="0" type="line"/>
    </contour>
  </outline>
</glyph>
<glyph name="L" format="1">
  <advance width="1150"/>
  <unicode hex="004C"/>
  <outline>
    <contour>
      <point x="1075" y="0" type="line"/>
      <point x="1075" y="42" type="line"/>
      <point x="331" y="42" type="line"/>
      <point x="331" y="1500" type="line"/>
      <point x="155" y="1500" type="line"/>
      <point x="155" y="0" type="line"/>
    </contour>
  </outline>
</glyph>
<glyph name="M" format="2">
  <advance width="1768"/>
  <unicode hex="004D"/>
  <outline>
    <contour>
      <point x="1613" y="0" type="line"/>
      <point x="1613" y="1500" type="line"/>
      <point x="1541" y="1500" type="line"/>
      <point x="891" y="405" type="line"/>
      <point x="219" y="1500" type="line"/>
      <point x="155" y="1500" type="line"/>
      <point x="155" y="0" type="line"/>
      <point x="199" y="0" type="line"/>
      <point x="199" y="1224" type="line"/>
      <point x="787" y="252" type="line"/>
      <point x="841" y="252" type="line"/>
      <point x="1437" y="1264" type="line"/>
      <point x="1437" y="0" type="line"/>
    </contour>
  </outline>
</glyph>
<glyph name="N" format="2">
  <advance width="1548"/>
  <unicode hex="004E"/>
  <anchor x="774" y="0" name="bottom"/>
  <anchor x="774" y="1500" name="top"/>
  <outline>
    <contour>
      <point x="1393" y="0" type="line"/>
      <point x="1393" y="1500" type="line"/>
      <point x="1349" y="1500" type="line"/>
      <point x="1349" y="244" type="line"/>
      <point x="216" y="1500" type="line"/>
      <point x="155" y="1500" type="line"/>
      <point x="155" y="0" type="line"/>
      <point x="199" y="0" type="line"/>
      <point x="199" y="1256" type="line"/>
      <point x="1332" y="0" type="line"/>
    </contour>
  </outline>
</glyph>
<glyph name="O" format="2">
  <advance width="1709"/>
  <unicode hex="004F"/>
  <anchor x="855" y="0" name="bottom"/>
  <anchor x="855" y="750" name="center"/>
  <anchor x="1538" y="10" name="ogonek"/>
  <anchor x="855" y="1500" name="top"/>
  <anchor x="20" y="1500" name="topleft"/>
  <anchor x="1689" y="1500" name="topright"/>
  <outline>
    <contour>
      <point x="853" y="-30" type="curve" smooth="yes"/>
      <point x="1301" y="-30"/>
      <point x="1634" y="302"/>
      <point x="1634" y="750" type="curve" smooth="yes"/>
      <point x="1634" y="1198"/>
      <point x="1301" y="1530"/>
      <point x="852" y="1530" type="curve" smooth="yes"/>
      <point x="404" y="1530"/>
      <point x="75" y="1200"/>
      <point x="75" y="750" type="curve" smooth="yes"/>
      <point x="75" y="300"/>
      <point x="405" y="-30"/>
    </contour>
    <contour>
      <point x="852" y="12" type="curve" smooth="yes"/>
      <point x="506" y="12"/>
      <point x="255" y="324"/>
      <point x="255" y="751" type="curve" smooth="yes"/>
      <point x="255" y="1178"/>
      <point x="506" y="1488"/>
      <point x="852" y="1488" type="curve" smooth="yes"/>
      <point x="1199" y="1488"/>
      <point x="1453" y="1176"/>
      <point x="1453" y="751" type="curve" smooth="yes"/>
      <point x="1453" y="325"/>
      <point x="1198" y="12"/>
    </contour>
  </outline>
</glyph>
<glyph name="P" format="1">
  <advance width="1331"/>
  <unicode hex="0050"/>
  <outline>
    <contour>
      <point x="155" y="0" type="line"/>
      <point x="331" y="0" type="line"/>
      <point x="331" y="588" type="line"/>
      <point x="623" y="588" type="line" smooth="yes"/>
      <point x="986" y="588"/>
      <point x="1196" y="759"/>
      <point x="1196" y="1045" type="curve" smooth="yes"/>
      <point x="1196" y="1331"/>
      <point x="987" y="1500"/>
      <point x="623" y="1500" type="curve" smooth="yes"/>
      <point x="155" y="1500" type="line"/>
    </contour>
    <contour>
      <point x="331" y="630" type="line"/>
      <point x="331" y="1458" type="line"/>
      <point x="577" y="1458" type="line" smooth="yes"/>
      <point x="854" y="1458"/>
      <point x="1016" y="1301"/>
      <point x="1016" y="1045" type="curve" smooth="yes"/>
      <point x="1016" y="789"/>
      <point x="853" y="630"/>
      <point x="577" y="630" type="curve" smooth="yes"/>
    </contour>
  </outline>
</glyph>
<glyph name="Q" format="2">
  <advance width="1709"/>
  <unicode hex="0051"/>
  <outline>
    <contour>
      <point x="1579" y="-226" type="curve"/>
      <point x="1605" y="-88" type="line"/>
      <point x="1407" y="-88"/>
      <point x="1268" y="-63"/>
      <point x="1057" y="-6" type="curve"/>
      <point x="1400" y="77"/>
      <point x="1634" y="371"/>
      <point x="1634" y="750" type="curve" smooth="yes"/>
      <point x="1634" y="1200"/>
      <point x="1305" y="1530"/>
      <point x="855" y="1530" type="curve" smooth="yes"/>
      <point x="404" y="1530"/>
      <point x="75" y="1200"/>
      <point x="75" y="750" type="curve" smooth="yes"/>
      <point x="75" y="301"/>
      <point x="404" y="-29"/>
      <point x="855" y="-29" type="curve" smooth="yes"/>
      <point x="901" y="-29" type="line"/>
      <point x="1123" y="-129"/>
      <point x="1286" y="-177"/>
    </contour>
    <contour>
      <point x="855" y="12" type="curve" smooth="yes"/>
      <point x="510" y="12"/>
      <point x="255" y="328"/>
      <point x="255" y="750" type="curve" smooth="yes"/>
      <point x="255" y="1173"/>
      <point x="510" y="1488"/>
      <point x="855" y="1488" type="curve" smooth="yes"/>
      <point x="1200" y="1488"/>
      <point x="1454" y="1172"/>
      <point x="1454" y="750" type="curve" smooth="yes"/>
      <point x="1454" y="329"/>
      <point x="1200" y="12"/>
    </contour>
  </outline>
</glyph>
<glyph name="R" format="2">
  <advance width="1297"/>
  <unicode hex="0052"/>
  <anchor x="659" y="0" name="bottom"/>
  <anchor x="609" y="1500" name="top"/>
  <outline>
    <contour>
      <point x="1222" y="0" type="line"/>
      <point x="823" y="670" type="line"/>
      <point x="1045" y="716"/>
      <point x="1178" y="862"/>
      <point x="1178" y="1077" type="curve" smooth="yes"/>
      <point x="1178" y="1338"/>
      <point x="983" y="1500"/>
      <point x="673" y="1500" type="curve" smooth="yes"/>
      <point x="155" y="1500" type="line"/>
      <point x="155" y="0" type="line"/>
      <point x="331" y="0" type="line"/>
      <point x="331" y="655" type="line"/>
      <point x="641" y="655" type="line"/>
      <point x="1027" y="0" type="line"/>
    </contour>
    <contour>
      <point x="331" y="697" type="line"/>
      <point x="331" y="1458" type="line"/>
      <point x="612" y="1458" type="line" smooth="yes"/>
      <point x="846" y="1458"/>
      <point x="998" y="1316"/>
      <point x="998" y="1077" type="curve" smooth="yes"/>
      <point x="998" y="838"/>
      <point x="846" y="697"/>
      <point x="613" y="697" type="curve" smooth="yes"/>
    </contour>
  </outline>
</glyph>
<glyph name="S" format="1">
  <advance width="1196"/>
  <unicode hex="0053"/>
  <outline>
    <contour>
      <point x="85" y="146" type="line"/>
      <point x="227" y="32"/>
      <point x="400" y="-30"/>
      <point x="578" y="-30" type="curve" smooth="yes"/>
      <point x="880" y="-30"/>
      <point x="1091" y="147"/>
      <point x="1091" y="401" type="curve" smooth="yes"/>
      <point x="1091" y="654"/>
      <point x="883" y="746"/>
      <point x="684" y="834" type="curve" smooth="yes"/>
      <point x="500" y="915"/>
      <point x="323" y="993"/>
      <point x="323" y="1192" type="curve" smooth="yes"/>
      <point x="323" y="1367"/>
      <point x="459" y="1485"/>
      <point x="660" y="1485" type="curve" smooth="yes"/>
      <point x="765" y="1485"/>
      <point x="883" y="1453"/>
      <point x="993" y="1394" type="curve"/>
      <point x="1014" y="1433" type="line"/>
      <point x="893" y="1497"/>
      <point x="764" y="1530"/>
      <point x="636" y="1530" type="curve" smooth="yes"/>
      <point x="357" y="1530"/>
      <point x="169" y="1373"/>
      <point x="169" y="1139" type="curve" smooth="yes"/>
      <point x="169" y="897"/>
      <point x="370" y="810"/>
      <point x="566" y="726" type="curve" smooth="yes"/>
      <point x="754" y="645"/>
      <point x="939" y="566"/>
      <point x="939" y="354" type="curve" smooth="yes"/>
      <point x="939" y="156"/>
      <point x="777" y="19"/>
      <point x="545" y="19" type="curve" smooth="yes"/>
      <point x="391" y="19"/>
      <point x="226" y="80"/>
      <point x="108" y="181" type="curve"/>
    </contour>
  </outline>
</glyph>
<glyph name="T" format="2">
  <advance width="1233"/>
  <unicode hex="0054"/>
  <anchor x="617" y="0" name="bottom"/>
  <anchor x="617" y="750" name="center"/>
  <anchor x="617" y="1500" name="top"/>
  <outline>
    <contour>
      <point x="704" y="0" type="line"/>
      <point x="704" y="1458" type="line"/>
      <point x="1198" y="1458" type="line"/>
      <point x="1198" y="1500" type="line"/>
      <point x="35" y="1500" type="line"/>
      <point x="35" y="1458" type="line"/>
      <point x="528" y="1458" type="line"/>
      <point x="528" y="0" type="line"/>
    </contour>
  </outline>
</glyph>
<glyph name="U" format="2">
  <advance width="1569"/>
  <unicode hex="0055"/>
  <anchor x="785" y="0" name="bottom"/>
  <anchor x="1013" y="0" name="ogonek"/>
  <anchor x="785" y="1500" name="top"/>
  <anchor x="1549" y="1500" name="topright"/>
  <outline>
    <contour>
      <point x="1414" y="1500" type="line"/>
      <point x="1238" y="1500" type="line"/>
      <point x="1238" y="620" type="line" smooth="yes"/>
      <point x="1238" y="236"/>
      <point x="1068" y="12"/>
      <point x="784" y="12" type="curve" smooth="yes"/>
      <point x="501" y="12"/>
      <point x="331" y="236"/>
      <point x="331" y="620" type="curve" smooth="yes"/>
      <point x="331" y="1500" type="line"/>
      <point x="155" y="1500" type="line"/>
      <point x="155" y="663" type="line" smooth="yes"/>
      <point x="155" y="228"/>
      <point x="389" y="-30"/>
      <point x="784" y="-30" type="curve" smooth="yes"/>
      <point x="1179" y="-30"/>
      <point x="1414" y="228"/>
      <point x="1414" y="663" type="curve" smooth="yes"/>
    </contour>
  </outline>
</glyph>
<glyph name="V" format="2">
  <advance width="1479"/>
  <unicode hex="0056"/>
  <outline>
    <contour>
      <point x="777" y="0" type="line"/>
      <point x="1414" y="1500" type="line"/>
      <point x="1366" y="1500" type="line"/>
      <point x="812" y="195" type="line"/>
      <point x="257" y="1500" type="line"/>
      <point x="65" y="1500" type="line"/>
      <point x="703" y="0" type="line"/>
    </contour>
  </outline>
</glyph>
<glyph name="W" format="2">
  <advance width="2112"/>
  <unicode hex="0057"/>
  <anchor x="1056" y="0" name="bottom"/>
  <anchor x="1112" y="1500" name="top"/>
  <outline>
    <contour>
      <point x="1534" y="0" type="line"/>
      <point x="2057" y="1500" type="line"/>
      <point x="2011" y="1500" type="line"/>
      <point x="1580" y="257" type="line"/>
      <point x="1152" y="1500" type="line"/>
      <point x="1104" y="1500" type="line"/>
      <point x="672" y="258" type="line"/>
      <point x="244" y="1500" type="line"/>
      <point x="55" y="1500" type="line"/>
      <point x="579" y="0" type="line"/>
      <point x="626" y="0" type="line"/>
      <point x="1057" y="1249" type="line"/>
      <point x="1487" y="0" type="line"/>
    </contour>
  </outline>
</glyph>
<glyph name="X" format="2">
  <advance width="1462"/>
  <unicode hex="0058"/>
  <outline>
    <contour>
      <point x="1407" y="0" type="line"/>
      <point x="801" y="818" type="line"/>
      <point x="1328" y="1500" type="line"/>
      <point x="1272" y="1500" type="line"/>
      <point x="770" y="850" type="line"/>
      <point x="292" y="1500" type="line"/>
      <point x="70" y="1500" type="line"/>
      <point x="629" y="743" type="line"/>
      <point x="55" y="0" type="line"/>
      <point x="111" y="0" type="line"/>
      <point x="660" y="711" type="line"/>
      <point x="1185" y="0" type="line"/>
    </contour>
  </outline>
</glyph>
<glyph name="Y" format="1">
  <advance width="1363"/>
  <unicode hex="0059"/>
  <outline>
    <contour>
      <point x="783" y="0" type="line"/>
      <point x="783" y="684" type="line"/>
      <point x="1338" y="1500" type="line"/>
      <point x="1285" y="1500" type="line"/>
      <point x="760" y="727" type="line"/>
      <point x="235" y="1500" type="line"/>
      <point x="25" y="1500" type="line"/>
      <point x="607" y="641" type="line"/>
      <point x="607" y="0" type="line"/>
    </contour>
  </outline>
</glyph>
<glyph name="Z" format="2">
  <advance width="1321"/>
  <unicode hex="005A"/>
  <anchor x="661" y="0" name="bottom"/>
  <anchor x="661" y="750" name="center"/>
  <anchor x="661" y="1500" name="top"/>
  <outline>
    <contour>
      <point x="1246" y="0" type="line"/>
      <point x="1246" y="42" type="line"/>
      <point x="294" y="42" type="line"/>
      <point x="1219" y="1448" type="line"/>
      <point x="1219" y="1500" type="line"/>
      <point x="123" y="1500" type="line"/>
      <point x="123" y="1458" type="line"/>
      <point x="1011" y="1458" type="line"/>
      <point x="75" y="42" type="line"/>
      <point x="75" y="0" type="line"/>
    </contour>
  </outline>
</glyph>
<glyph name="bracketleft" format="1">
  <advance width="631"/>
  <unicode hex="005B"/>
  <outline>
    <contour>
      <point x="556" y="-290" type="line" name="sh01"/>
      <point x="556" y="-250" type="line"/>
      <point x="300" y="-250" type="line" name="dv02"/>
      <point x="300" y="1500" type="line" name="dv03"/>
      <point x="556" y="1500" type="line" name="sh02"/>
      <point x="556" y="1540" type="line"/>
      <point x="155" y="1540" type="line" name="dv04"/>
      <point x="155" y="-290" type="line" name="dv01"/>
    </contour>
  </outline>
</glyph>
<glyph name="backslash" format="1">
  <advance width="825"/>
  <unicode hex="005C"/>
  <outline>
    <contour>
      <point x="810" y="-20" type="line"/>
      <point x="173" y="1520" type="line"/>
      <point x="15" y="1520" type="line" name="at01"/>
      <point x="653" y="-20" type="line" name="av01"/>
    </contour>
  </outline>
</glyph>
<glyph name="bracketright" format="1">
  <advance width="632"/>
  <unicode hex="005D"/>
  <outline>
    <contour>
      <point x="477" y="-289" type="line" name="dv01"/>
      <point x="477" y="1540" type="line" name="dv04"/>
      <point x="75" y="1540" type="line"/>
      <point x="75" y="1501" type="line" name="sh02"/>
      <point x="331" y="1501" type="line" name="dv03"/>
      <point x="331" y="-250" type="line" name="dv02"/>
      <point x="75" y="-250" type="line"/>
      <point x="75" y="-289" type="line" name="sh01"/>
    </contour>
  </outline>
</glyph>
<glyph name="b" format="2">
  <advance width="1294"/>
  <unicode hex="0062"/>
  <outline>
    <contour>
      <point x="301" y="0" type="line"/>
      <point x="315" y="255" type="line"/>
      <point x="392" y="89"/>
      <point x="548" y="-20"/>
      <point x="737" y="-20" type="curve" smooth="yes"/>
      <point x="1007" y="-20"/>
      <point x="1209" y="203"/>
      <point x="1209" y="500" type="curve" smooth="yes"/>
      <point x="1209" y="797"/>
      <point x="1007" y="1020"/>
      <point x="736" y="1020" type="curve" smooth="yes"/>
      <point x="551" y="1020"/>
      <point x="397" y="915"/>
      <point x="319" y="753" type="curve"/>
      <point x="319" y="1500" type="line"/>
      <point x="155" y="1500" type="line"/>
      <point x="155" y="0" type="line"/>
    </contour>
    <contour>
      <point x="679" y="48" type="curve" smooth="yes"/>
      <point x="482" y="48"/>
      <point x="332" y="226"/>
      <point x="319" y="466" type="curve"/>
      <point x="319" y="533" type="line"/>
      <point x="332" y="774"/>
      <point x="482" y="952"/>
      <point x="680" y="952" type="curve" smooth="yes"/>
      <point x="886" y="952"/>
      <point x="1042" y="757"/>
      <point x="1042" y="500" type="curve" smooth="yes"/>
      <point x="1042" y="242"/>
      <point x="886" y="48"/>
    </contour>
  </outline>
</glyph>
<glyph name="d" format="1">
  <advance width="1295"/>
  <unicode hex="0064"/>
  <outline>
    <contour>
      <point x="1140" y="0" type="line"/>
      <point x="1140" y="1500" type="line"/>
      <point x="976" y="1500" type="line"/>
      <point x="976" y="753" type="line"/>
      <point x="898" y="915"/>
      <point x="744" y="1020"/>
      <point x="558" y="1020" type="curve" smooth="yes"/>
      <point x="288" y="1020"/>
      <point x="85" y="797"/>
      <point x="85" y="500" type="curve" smooth="yes"/>
      <point x="85" y="203"/>
      <point x="287" y="-20"/>
      <point x="557" y="-20" type="curve" smooth="yes"/>
      <point x="746" y="-20"/>
      <point x="902" y="89"/>
      <point x="979" y="255" type="curve"/>
      <point x="994" y="0" type="line"/>
    </contour>
    <contour>
      <point x="614" y="48" type="curve" smooth="yes"/>
      <point x="408" y="48"/>
      <point x="253" y="243"/>
      <point x="253" y="501" type="curve" smooth="yes"/>
      <point x="253" y="758"/>
      <point x="409" y="952"/>
      <point x="615" y="952" type="curve" smooth="yes"/>
      <point x="812" y="952"/>
      <point x="976" y="775"/>
      <point x="976" y="534" type="curve" smooth="yes"/>
      <point x="976" y="467" type="line" smooth="yes"/>
      <point x="976" y="225"/>
      <point x="812" y="48"/>
    </contour>
  </outline>
</glyph>
<glyph name="e" format="1">
  <advance width="1184"/>
  <unicode hex="0065"/>
  <outline>
    <contour>
      <point x="1041" y="122" type="curve"/>
      <point x="1019" y="154" type="line"/>
      <point x="905" y="65"/>
      <point x="781" y="18"/>
      <point x="663" y="18" type="curve" smooth="yes"/>
      <point x="425" y="18"/>
      <point x="258" y="209"/>
      <point x="249" y="488" type="curve"/>
      <point x="1099" y="488" type="line"/>
      <point x="1099" y="516" type="line" smooth="yes"/>
      <point x="1099" y="811"/>
      <point x="891" y="1020"/>
      <point x="598" y="1020" type="curve" smooth="yes"/>
      <point x="300" y="1020"/>
      <point x="85" y="806"/>
      <point x="85" y="515" type="curve" smooth="yes"/>
      <point x="85" y="209"/>
      <point x="323" y="-20"/>
      <point x="635" y="-20" type="curve" smooth="yes"/>
      <point x="780" y="-20"/>
      <point x="921" y="30"/>
    </contour>
    <contour>
      <point x="249" y="526" type="line"/>
      <point x="249" y="791"/>
      <point x="402" y="982"/>
      <point x="603" y="982" type="curve" smooth="yes"/>
      <point x="802" y="982"/>
      <point x="950" y="795"/>
      <point x="950" y="526" type="curve"/>
    </contour>
  </outline>
</glyph>
<glyph name="f" format="1">
  <advance width="813"/>
  <unicode hex="0066"/>
  <outline>
    <contour>
      <point x="394" y="0" type="line"/>
      <point x="394" y="962" type="line"/>
      <point x="724" y="962" type="line"/>
      <point x="724" y="1000" type="line"/>
      <point x="394" y="1000" type="line"/>
      <point x="394" y="1242" type="line" smooth="yes"/>
      <point x="394" y="1383"/>
      <point x="470" y="1474"/>
      <point x="586" y="1474" type="curve" smooth="yes"/>
      <point x="633" y="1474"/>
      <point x="685" y="1459"/>
      <point x="740" y="1428" type="curve"/>
      <point x="758" y="1462" type="line"/>
      <point x="683" y="1507"/>
      <point x="605" y="1530"/>
      <point x="529" y="1530" type="curve" smooth="yes"/>
      <point x="351" y="1530"/>
      <point x="230" y="1403"/>
      <point x="230" y="1215" type="curve" smooth="yes"/>
      <point x="230" y="1000" type="line"/>
      <point x="55" y="1000" type="line"/>
      <point x="55" y="962" type="line"/>
      <point x="230" y="962" type="line"/>
      <point x="230" y="0" type="line"/>
    </contour>
  </outline>
</glyph>
<glyph name="i" format="1">
  <advance width="483"/>
  <unicode hex="0069"/>
  <outline>
    <contour>
      <point x="240.954" y="1315" type="curve" smooth="yes"/>
      <point x="297.784" y="1315"/>
      <point x="341.5" y="1358.72"/>
      <point x="341.5" y="1414.45" type="curve" smooth="yes"/>
      <point x="341.5" y="1470.19"/>
      <point x="297.784" y="1515"/>
      <point x="240.954" y="1515" type="curve" smooth="yes"/>
      <point x="185.216" y="1515"/>
      <point x="141.5" y="1470.19"/>
      <point x="141.5" y="1414.45" type="curve" smooth="yes"/>
      <point x="141.5" y="1358.72"/>
      <point x="185.216" y="1315"/>
    </contour>
    <contour>
      <point x="323" y="0" type="line"/>
      <point x="323" y="1000" type="line"/>
      <point x="159" y="1000" type="line"/>
      <point x="159" y="0" type="line"/>
    </contour>
  </outline>
</glyph>
<glyph name="j" format="2">
  <advance width="500"/>
  <unicode hex="006A"/>
  <outline>
    <contour>
      <point x="262.907" y="1316" type="curve" smooth="yes"/>
      <point x="318.645" y="1316"/>
      <point x="363.454" y="1359.72"/>
      <point x="363.454" y="1415.45" type="curve" smooth="yes"/>
      <point x="363.454" y="1471.19"/>
      <point x="318.645" y="1516"/>
      <point x="262.907" y="1516" type="curve" smooth="yes"/>
      <point x="207.169" y="1516"/>
      <point x="164.546" y="1471.19"/>
      <point x="164.546" y="1415.45" type="curve" smooth="yes"/>
      <point x="164.546" y="1358.62"/>
      <point x="207.169" y="1316"/>
    </contour>
    <contour>
      <point x="-115" y="-506" type="line"/>
      <point x="-73" y="-515"/>
      <point x="-34" y="-520"/>
      <point x="3" y="-520" type="curve" smooth="yes"/>
      <point x="217" y="-520"/>
      <point x="347" y="-379"/>
      <point x="347" y="-140" type="curve" smooth="yes"/>
      <point x="347" y="1000" type="line"/>
      <point x="182" y="1000" type="line"/>
      <point x="182" y="-188" type="line" smooth="yes"/>
      <point x="182" y="-364"/>
      <point x="88" y="-475"/>
      <point x="-55" y="-475" type="curve" smooth="yes"/>
      <point x="-72" y="-475"/>
      <point x="-91" y="-473"/>
      <point x="-110" y="-470" type="curve"/>
    </contour>
  </outline>
</glyph>
<glyph name="m" format="2">
  <advance width="1873"/>
  <unicode hex="006D"/>
  <outline>
    <contour>
      <point x="1738" y="0" type="line"/>
      <point x="1738" y="591" type="line" smooth="yes"/>
      <point x="1738" y="862"/>
      <point x="1601" y="1020"/>
      <point x="1364" y="1020" type="curve" smooth="yes"/>
      <point x="1181" y="1020"/>
      <point x="1060" y="926"/>
      <point x="1006" y="745" type="curve"/>
      <point x="959" y="921"/>
      <point x="834" y="1020"/>
      <point x="652" y="1020" type="curve" smooth="yes"/>
      <point x="478" y="1020"/>
      <point x="356" y="929"/>
      <point x="298" y="760" type="curve"/>
      <point x="289" y="1000" type="line"/>
      <point x="155" y="1000" type="line"/>
      <point x="155" y="0" type="line"/>
      <point x="319" y="0" type="line"/>
      <point x="319" y="613" type="line" smooth="yes"/>
      <point x="319" y="824"/>
      <point x="424" y="953"/>
      <point x="595" y="953" type="curve" smooth="yes"/>
      <point x="765" y="953"/>
      <point x="865" y="827"/>
      <point x="865" y="613" type="curve" smooth="yes"/>
      <point x="865" y="0" type="line"/>
      <point x="1029" y="0" type="line"/>
      <point x="1029" y="613" type="line" smooth="yes"/>
      <point x="1029" y="824"/>
      <point x="1134" y="953"/>
      <point x="1305" y="953" type="curve" smooth="yes"/>
      <point x="1475" y="953"/>
      <point x="1574" y="827"/>
      <point x="1574" y="613" type="curve" smooth="yes"/>
      <point x="1574" y="0" type="line"/>
    </contour>
  </outline>
</glyph>
<glyph name="n" format="2">
  <advance width="1226"/>
  <unicode hex="006E"/>
  <anchor x="645" y="0" name="bottom"/>
  <anchor x="633" y="1000" name="top"/>
  <outline>
    <contour>
      <point x="1091" y="0" type="line"/>
      <point x="1091" y="571" type="line" smooth="yes"/>
      <point x="1091" y="854"/>
      <point x="939" y="1020"/>
      <point x="684" y="1020" type="curve" smooth="yes"/>
      <point x="501" y="1020"/>
      <point x="371" y="934"/>
      <point x="307" y="774" type="curve"/>
      <point x="298" y="1000" type="line"/>
      <point x="155" y="1000" type="line"/>
      <point x="155" y="0" type="line"/>
      <point x="319" y="0" type="line"/>
      <point x="319" y="611" type="line" smooth="yes"/>
      <point x="319" y="822"/>
      <point x="435" y="951"/>
      <point x="626" y="951" type="curve" smooth="yes"/>
      <point x="815" y="951"/>
      <point x="927" y="825"/>
      <point x="927" y="611" type="curve" smooth="yes"/>
      <point x="927" y="0" type="line"/>
    </contour>
  </outline>
</glyph>
<glyph name="o" format="2">
  <advance width="1215"/>
  <unicode hex="006F"/>
  <anchor x="608" y="0" name="bottom"/>
  <anchor x="608" y="500" name="center"/>
  <anchor x="1094" y="10" name="ogonek"/>
  <anchor x="608" y="1000" name="top"/>
  <anchor x="1195" y="1000" name="topright"/>
  <outline>
    <contour>
      <point x="608" y="-20" type="curve" smooth="yes"/>
      <point x="908" y="-20"/>
      <point x="1130" y="201"/>
      <point x="1130" y="500" type="curve" smooth="yes"/>
      <point x="1130" y="797"/>
      <point x="906" y="1020"/>
      <point x="608" y="1020" type="curve" smooth="yes"/>
      <point x="309" y="1020"/>
      <point x="85" y="798"/>
      <point x="85" y="500" type="curve" smooth="yes"/>
      <point x="85" y="203"/>
      <point x="309" y="-20"/>
    </contour>
    <contour>
      <point x="608" y="18" type="curve" smooth="yes"/>
      <point x="401" y="18"/>
      <point x="253" y="213"/>
      <point x="253" y="500" type="curve" smooth="yes"/>
      <point x="253" y="788"/>
      <point x="401" y="982"/>
      <point x="608" y="982" type="curve" smooth="yes"/>
      <point x="814" y="982"/>
      <point x="963" y="788"/>
      <point x="963" y="500" type="curve" smooth="yes"/>
      <point x="963" y="213"/>
      <point x="814" y="18"/>
    </contour>
  </outline>
</glyph>
<glyph name="q" format="1">
  <advance width="1295"/>
  <unicode hex="0071"/>
  <outline>
    <contour>
      <point x="1140" y="-500" type="line"/>
      <point x="1140" y="1000" type="line"/>
      <point x="994" y="1000" type="line"/>
      <point x="980" y="748" type="line"/>
      <point x="903" y="914"/>
      <point x="747" y="1020"/>
      <point x="554" y="1020" type="curve" smooth="yes"/>
      <point x="279" y="1020"/>
      <point x="85" y="804"/>
      <point x="85" y="500" type="curve" smooth="yes"/>
      <point x="85" y="196"/>
      <point x="278" y="-20"/>
      <point x="550" y="-20" type="curve" smooth="yes"/>
      <point x="740" y="-20"/>
      <point x="897" y="86"/>
      <point x="976" y="249" type="curve"/>
      <point x="976" y="-500" type="line"/>
    </contour>
    <contour>
      <point x="610" y="48" type="curve" smooth="yes"/>
      <point x="402" y="48"/>
      <point x="253" y="237"/>
      <point x="253" y="500" type="curve" smooth="yes"/>
      <point x="253" y="764"/>
      <point x="404" y="952"/>
      <point x="611" y="952" type="curve" smooth="yes"/>
      <point x="812" y="952"/>
      <point x="976" y="774"/>
      <point x="976" y="532" type="curve" smooth="yes"/>
      <point x="976" y="466" type="line" smooth="yes"/>
      <point x="976" y="225"/>
      <point x="810" y="48"/>
    </contour>
  </outline>
</glyph>
<glyph name="s" format="1">
  <advance width="870"/>
  <unicode hex="0073"/>
  <outline>
    <contour>
      <point x="85" y="87" type="line"/>
      <point x="186" y="18"/>
      <point x="304" y="-20"/>
      <point x="423" y="-20" type="curve" smooth="yes"/>
      <point x="639" y="-20"/>
      <point x="785" y="99"/>
      <point x="785" y="275" type="curve" smooth="yes"/>
      <point x="785" y="446"/>
      <point x="645" y="513"/>
      <point x="513" y="576" type="curve" smooth="yes"/>
      <point x="396" y="632"/>
      <point x="286" y="684"/>
      <point x="286" y="804" type="curve" smooth="yes"/>
      <point x="286" y="908"/>
      <point x="368" y="977"/>
      <point x="492" y="977" type="curve" smooth="yes"/>
      <point x="563" y="977"/>
      <point x="650" y="955"/>
      <point x="712" y="920" type="curve"/>
      <point x="729" y="956" type="line"/>
      <point x="642" y="998"/>
      <point x="548" y="1020"/>
      <point x="458" y="1020" type="curve" smooth="yes"/>
      <point x="256" y="1020"/>
      <point x="121" y="914"/>
      <point x="121" y="757" type="curve" smooth="yes"/>
      <point x="121" y="602"/>
      <point x="251" y="541"/>
      <point x="378" y="482" type="curve" smooth="yes"/>
      <point x="500" y="425"/>
      <point x="620" y="369"/>
      <point x="620" y="231" type="curve" smooth="yes"/>
      <point x="620" y="107"/>
      <point x="524" y="22"/>
      <point x="382" y="22" type="curve" smooth="yes"/>
      <point x="293" y="22"/>
      <point x="200" y="55"/>
      <point x="106" y="120" type="curve"/>
    </contour>
  </outline>
</glyph>
<glyph name="t" format="1">
  <advance width="776"/>
  <unicode hex="0074"/>
  <outline>
    <contour>
      <point x="721" y="24" type="curve"/>
      <point x="708" y="59" type="line"/>
      <point x="665" y="40"/>
      <point x="624" y="30"/>
      <point x="586" y="30" type="curve" smooth="yes"/>
      <point x="474" y="30"/>
      <point x="404" y="111"/>
      <point x="404" y="243" type="curve" smooth="yes"/>
      <point x="404" y="962" type="line"/>
      <point x="703" y="962" type="line"/>
      <point x="703" y="1000" type="line"/>
      <point x="404" y="1000" type="line"/>
      <point x="404" y="1250" type="line"/>
      <point x="240" y="1250" type="line"/>
      <point x="240" y="1000" type="line"/>
      <point x="65" y="1000" type="line"/>
      <point x="65" y="962" type="line"/>
      <point x="240" y="962" type="line"/>
      <point x="240" y="297" type="line" smooth="yes"/>
      <point x="240" y="100"/>
      <point x="346" y="-19"/>
      <point x="523" y="-19" type="curve" smooth="yes"/>
      <point x="585" y="-19"/>
      <point x="652" y="-4"/>
    </contour>
  </outline>
</glyph>
<glyph name="u" format="1">
  <advance width="1206"/>
  <unicode hex="0075"/>
  <outline>
    <contour>
      <point x="1051" y="0" type="line"/>
      <point x="1051" y="1000" type="line"/>
      <point x="887" y="1000" type="line"/>
      <point x="887" y="389" type="line" smooth="yes"/>
      <point x="887" y="178"/>
      <point x="774" y="49"/>
      <point x="589" y="49" type="curve" smooth="yes"/>
      <point x="406" y="49"/>
      <point x="299" y="175"/>
      <point x="299" y="389" type="curve" smooth="yes"/>
      <point x="299" y="1000" type="line"/>
      <point x="135" y="1000" type="line"/>
      <point x="135" y="430" type="line" smooth="yes"/>
      <point x="135" y="147"/>
      <point x="283" y="-20"/>
      <point x="532" y="-20" type="curve" smooth="yes"/>
      <point x="710" y="-20"/>
      <point x="836" y="65"/>
      <point x="899" y="224" type="curve"/>
      <point x="907" y="0" type="line"/>
    </contour>
  </outline>
</glyph>
<glyph name="v" format="1">
  <advance width="1083"/>
  <unicode hex="0076"/>
  <outline>
    <contour>
      <point x="1008" y="1000" type="line"/>
      <point x="963" y="1000" type="line"/>
      <point x="619" y="200" type="line"/>
      <point x="251" y="1000" type="line"/>
      <point x="75" y="1000" type="line"/>
      <point x="535" y="0" type="line"/>
      <point x="577" y="0" type="line"/>
    </contour>
  </outline>
</glyph>
<glyph name="w" format="2">
  <advance width="1567"/>
  <unicode hex="0077"/>
  <anchor x="784" y="0" name="bottom"/>
  <anchor x="784" y="1000" name="top"/>
  <outline>
    <contour>
      <point x="1148" y="0" type="line"/>
      <point x="1512" y="1000" type="line"/>
      <point x="1470" y="1000" type="line"/>
      <point x="1181" y="190" type="line"/>
      <point x="877" y="1000" type="line"/>
      <point x="814" y="1000" type="line"/>
      <point x="524" y="192" type="line"/>
      <point x="241" y="1000" type="line"/>
      <point x="55" y="1000" type="line"/>
      <point x="429" y="0" type="line"/>
      <point x="492" y="0" type="line"/>
      <point x="780" y="806" type="line"/>
      <point x="1084" y="0" type="line"/>
    </contour>
  </outline>
</glyph>
<glyph name="x" format="2">
  <advance width="1051"/>
  <unicode hex="0078"/>
  <outline>
    <contour>
      <point x="67" y="0" type="line"/>
      <point x="462" y="454" type="line"/>
      <point x="813" y="0" type="line"/>
      <point x="1036" y="0" type="line"/>
      <point x="596" y="572" type="line"/>
      <point x="959" y="1000" type="line"/>
      <point x="907" y="1000" type="line"/>
      <point x="571" y="604" type="line"/>
      <point x="264" y="1000" type="line"/>
      <point x="41" y="1000" type="line"/>
      <point x="436" y="487" type="line"/>
      <point x="15" y="0" type="line"/>
    </contour>
  </outline>
</glyph>
<glyph name="y" format="2">
  <advance width="1083"/>
  <unicode hex="0079"/>
  <anchor x="884" y="0" name="bottom"/>
  <anchor x="590" y="1000" name="top"/>
  <outline>
    <contour>
      <point x="407" y="-500" type="line"/>
      <point x="1028" y="1000" type="line"/>
      <point x="984" y="1000" type="line"/>
      <point x="653" y="202" type="line"/>
      <point x="246" y="1000" type="line"/>
      <point x="55" y="1000" type="line"/>
      <point x="575" y="13" type="line"/>
      <point x="363" y="-500" type="line"/>
    </contour>
  </outline>
</glyph>
<glyph name="z" format="1">
  <advance width="1059"/>
  <unicode hex="007A"/>
  <outline>
    <contour>
      <point x="984" y="0" type="line"/>
      <point x="984" y="38" type="line"/>
      <point x="277" y="38" type="line"/>
      <point x="969" y="964" type="line"/>
      <point x="969" y="1000" type="line"/>
      <point x="113" y="1000" type="line"/>
      <point x="113" y="962" type="line"/>
      <point x="765" y="962" type="line"/>
      <point x="75" y="38" type="line"/>
      <point x="75" y="0" type="line"/>
    </contour>
  </outline>
</glyph>
<glyph name="braceleft" format="1">
  <advance width="620"/>
  <unicode hex="007B"/>
  <outline>
    <contour>
      <point x="545" y="-289" type="curve"/>
      <point x="545" y="-251" type="line"/>
      <point x="435" y="-251"/>
      <point x="385" y="-200"/>
      <point x="385" y="-87" type="curve" smooth="yes"/>
      <point x="385" y="391" type="line" smooth="yes"/>
      <point x="385" y="496"/>
      <point x="329" y="586"/>
      <point x="243" y="625" type="curve"/>
      <point x="329" y="664"/>
      <point x="385" y="754"/>
      <point x="385" y="859" type="curve" smooth="yes"/>
      <point x="385" y="1338" type="line" smooth="yes"/>
      <point x="385" y="1451"/>
      <point x="435" y="1502"/>
      <point x="545" y="1502" type="curve"/>
      <point x="545" y="1540" type="line"/>
      <point x="340" y="1540"/>
      <point x="239" y="1458"/>
      <point x="239" y="1290" type="curve" smooth="yes"/>
      <point x="239" y="859" type="line" smooth="yes"/>
      <point x="239" y="744"/>
      <point x="167" y="650"/>
      <point x="75" y="643" type="curve"/>
      <point x="75" y="608" type="line"/>
      <point x="167" y="601"/>
      <point x="239" y="506"/>
      <point x="239" y="391" type="curve" smooth="yes"/>
      <point x="239" y="-39" type="line" smooth="yes"/>
      <point x="239" y="-207"/>
      <point x="340" y="-289"/>
    </contour>
  </outline>
</glyph>
<glyph name="braceright" format="2">
  <advance width="620"/>
  <unicode hex="007D"/>
  <outline>
    <contour>
      <point x="75" y="-289" type="line"/>
      <point x="280" y="-289"/>
      <point x="381" y="-207"/>
      <point x="381" y="-39" type="curve" smooth="yes"/>
      <point x="381" y="391" type="line" smooth="yes"/>
      <point x="381" y="506"/>
      <point x="453" y="601"/>
      <point x="545" y="608" type="curve"/>
      <point x="545" y="643" type="line"/>
      <point x="453" y="650"/>
      <point x="381" y="744"/>
      <point x="381" y="859" type="curve" smooth="yes"/>
      <point x="381" y="1290" type="line" smooth="yes"/>
      <point x="381" y="1458"/>
      <point x="280" y="1540"/>
      <point x="75" y="1540" type="curve"/>
      <point x="75" y="1502" type="line"/>
      <point x="185" y="1502"/>
      <point x="235" y="1451"/>
      <point x="235" y="1338" type="curve" smooth="yes"/>
      <point x="235" y="859" type="line" smooth="yes"/>
      <point x="235" y="754"/>
      <point x="291" y="664"/>
      <point x="377" y="625" type="curve"/>
      <point x="291" y="586"/>
      <point x="235" y="496"/>
      <point x="235" y="391" type="curve" smooth="yes"/>
      <point x="235" y="-87" type="line" smooth="yes"/>
      <point x="235" y="-200"/>
      <point x="185" y="-251"/>
      <point x="75" y="-251" type="curve"/>
    </contour>
  </outline>
</glyph>
<glyph name="asciitilde" format="2">
  <advance width="1352"/>
  <unicode hex="007E"/>
  <outline>
    <contour>
      <point x="1197" y="613" type="curve" name="iv01"/>
      <point x="1197" y="738" type="line" name="iv01"/>
      <point x="1105" y="638"/>
      <point x="1017" y="589"/>
      <point x="922" y="589" type="curve" smooth="yes"/>
      <point x="862" y="589"/>
      <point x="801" y="608"/>
      <point x="684" y="667" type="curve" smooth="yes"/>
      <point x="605" y="707"/>
      <point x="526" y="747"/>
      <point x="439" y="747" type="curve" smooth="yes"/>
      <point x="346" y="747"/>
      <point x="254" y="700"/>
      <point x="155" y="603" type="curve"/>
      <point x="155" y="479" type="line"/>
      <point x="252" y="576"/>
      <point x="343" y="623"/>
      <point x="437" y="623" type="curve" smooth="yes"/>
      <point x="524" y="623"/>
      <point x="603" y="583"/>
      <point x="682" y="543" type="curve" smooth="yes"/>
      <point x="799" y="484"/>
      <point x="860" y="465"/>
      <point x="920" y="465" type="curve" smooth="yes"/>
      <point x="1015" y="465"/>
      <point x="1102" y="513"/>
    </contour>
  </outline>
</glyph>
<glyph name="cent" format="1">
  <advance width="1032"/>
  <unicode hex="00A2"/>
  <outline>
    <contour>
      <point x="967" y="269" type="curve"/>
      <point x="940" y="299" type="line"/>
      <point x="862" y="219"/>
      <point x="755" y="171"/>
      <point x="640" y="171" type="curve" smooth="yes"/>
      <point x="408" y="171"/>
      <point x="242" y="365"/>
      <point x="242" y="644" type="curve" smooth="yes"/>
      <point x="242" y="924"/>
      <point x="408" y="1118"/>
      <point x="640" y="1118" type="curve" smooth="yes"/>
      <point x="754" y="1118"/>
      <point x="861" y="1071"/>
      <point x="940" y="990" type="curve"/>
      <point x="967" y="1019" type="line"/>
      <point x="885" y="1099"/>
      <point x="777" y="1150"/>
      <point x="656" y="1162" type="curve"/>
      <point x="656" y="1340" type="line" name="av02.1"/>
      <point x="545" y="1340" type="line" name="sh02.1"/>
      <point x="545" y="1162" type="line"/>
      <point x="274" y="1138"/>
      <point x="75" y="924"/>
      <point x="75" y="644" type="curve" smooth="yes"/>
      <point x="75" y="364"/>
      <point x="274" y="151"/>
      <point x="545" y="127" type="curve"/>
      <point x="545" y="-60" type="line" name="av01.1"/>
      <point x="657" y="-60" type="line"/>
      <point x="657" y="127" type="line" name="sh01.1"/>
      <point x="778" y="139"/>
      <point x="885" y="189"/>
    </contour>
  </outline>
</glyph>
<glyph name="sterling" format="2">
  <advance width="1197"/>
  <unicode hex="00A3"/>
  <outline>
    <contour>
      <point x="893" y="735" type="line"/>
      <point x="893" y="773" type="line"/>
      <point x="503" y="773" type="line"/>
      <point x="444" y="904"/>
      <point x="414" y="1019"/>
      <point x="414" y="1116" type="curve" smooth="yes"/>
      <point x="414" y="1316"/>
      <point x="542" y="1462"/>
      <point x="722" y="1462" type="curve" smooth="yes"/>
      <point x="839" y="1462"/>
      <point x="954" y="1400"/>
      <point x="1042" y="1290" type="curve"/>
      <point x="1072" y="1316" type="line"/>
      <point x="973" y="1446"/>
      <point x="827" y="1520"/>
      <point x="671" y="1520" type="curve" smooth="yes"/>
      <point x="428" y="1520"/>
      <point x="248" y="1340"/>
      <point x="248" y="1105" type="curve" smooth="yes"/>
      <point x="248" y="1002"/>
      <point x="283" y="875"/>
      <point x="337" y="773" type="curve"/>
      <point x="125" y="773" type="line"/>
      <point x="125" y="735" type="line"/>
      <point x="351" y="735" type="line"/>
      <point x="377" y="669"/>
      <point x="397" y="602"/>
      <point x="397" y="530" type="curve" smooth="yes"/>
      <point x="397" y="374"/>
      <point x="304" y="220"/>
      <point x="138" y="99" type="curve"/>
      <point x="138" y="0" type="line"/>
      <point x="1064" y="0" type="line"/>
      <point x="1064" y="147" type="line"/>
      <point x="333" y="147" type="line"/>
      <point x="475" y="269"/>
      <point x="545" y="406"/>
      <point x="545" y="562" type="curve" smooth="yes"/>
      <point x="545" y="626"/>
      <point x="533" y="682"/>
      <point x="517" y="735" type="curve"/>
    </contour>
  </outline>
</glyph>
<glyph name="yen" format="1">
  <advance width="1213"/>
  <unicode hex="00A5"/>
  <outline>
    <contour>
      <point x="708" y="0" type="line"/>
      <point x="708" y="397" type="line"/>
      <point x="1061" y="397" type="line"/>
      <point x="1061" y="435" type="line"/>
      <point x="708" y="435" type="line"/>
      <point x="708" y="650" type="line"/>
      <point x="1061" y="650" type="line"/>
      <point x="1061" y="687" type="line"/>
      <point x="708" y="687" type="line"/>
      <point x="1178" y="1500" type="line"/>
      <point x="1127" y="1500" type="line"/>
      <point x="692" y="748" type="line"/>
      <point x="257" y="1500" type="line"/>
      <point x="52" y="1500" type="line"/>
      <point x="532" y="688" type="line"/>
      <point x="179" y="688" type="line"/>
      <point x="179" y="650" type="line"/>
      <point x="532" y="650" type="line"/>
      <point x="532" y="435" type="line"/>
      <point x="179" y="435" type="line"/>
      <point x="179" y="397" type="line"/>
      <point x="532" y="397" type="line"/>
      <point x="532" y="0" type="line"/>
    </contour>
  </outline>
</glyph>
<glyph name="section" format="1">
  <advance width="1034"/>
  <unicode hex="00A7"/>
  <outline>
    <contour>
      <point x="189" y="-19" type="line"/>
      <point x="283" y="-66"/>
      <point x="387" y="-90"/>
      <point x="486" y="-90" type="curve" smooth="yes"/>
      <point x="700" y="-90"/>
      <point x="845" y="26"/>
      <point x="845" y="197" type="curve" smooth="yes"/>
      <point x="845" y="315"/>
      <point x="775" y="384"/>
      <point x="683" y="436" type="curve"/>
      <point x="806" y="486"/>
      <point x="879" y="588"/>
      <point x="879" y="717" type="curve" smooth="yes"/>
      <point x="879" y="901"/>
      <point x="732" y="968"/>
      <point x="593" y="1031" type="curve" smooth="yes"/>
      <point x="467" y="1088"/>
      <point x="347" y="1142"/>
      <point x="347" y="1279" type="curve" smooth="yes"/>
      <point x="347" y="1402"/>
      <point x="445" y="1486"/>
      <point x="590" y="1486" type="curve" smooth="yes"/>
      <point x="668" y="1486"/>
      <point x="756" y="1462"/>
      <point x="827" y="1423" type="curve"/>
      <point x="845" y="1459" type="line"/>
      <point x="751" y="1506"/>
      <point x="648" y="1530"/>
      <point x="549" y="1530" type="curve" smooth="yes"/>
      <point x="335" y="1530"/>
      <point x="189" y="1414"/>
      <point x="189" y="1243" type="curve" smooth="yes"/>
      <point x="189" y="1125"/>
      <point x="259" y="1056"/>
      <point x="351" y="1004" type="curve"/>
      <point x="228" y="954"/>
      <point x="155" y="851"/>
      <point x="155" y="721" type="curve" smooth="yes"/>
      <point x="155" y="538"/>
      <point x="301" y="473"/>
      <point x="440" y="410" type="curve" smooth="yes"/>
      <point x="566" y="353"/>
      <point x="687" y="299"/>
      <point x="687" y="162" type="curve" smooth="yes"/>
      <point x="687" y="38"/>
      <point x="589" y="-46"/>
      <point x="444" y="-46" type="curve" smooth="yes"/>
      <point x="366" y="-46"/>
      <point x="278" y="-22"/>
      <point x="207" y="17" type="curve"/>
    </contour>
    <contour>
      <point x="635" y="461" type="curve"/>
      <point x="359" y="544"/>
      <point x="242" y="634"/>
      <point x="242" y="766" type="curve" smooth="yes"/>
      <point x="242" y="860"/>
      <point x="303" y="939"/>
      <point x="399" y="979" type="curve"/>
      <point x="684" y="889"/>
      <point x="792" y="805"/>
      <point x="792" y="676" type="curve" smooth="yes"/>
      <point x="792" y="579"/>
      <point x="731" y="501"/>
    </contour>
  </outline>
</glyph>
<glyph name="dieresis" format="1">
  <advance width="897"/>
  <unicode hex="00A8"/>
  <outline>
    <contour>
      <point x="669.036" y="1248" type="curve" smooth="yes"/>
      <point x="722.607" y="1248"/>
      <point x="757.964" y="1284.43"/>
      <point x="757.964" y="1338" type="curve" smooth="yes"/>
      <point x="757.964" y="1391.57"/>
      <point x="722.607" y="1428"/>
      <point x="669.036" y="1428" type="curve" smooth="yes"/>
      <point x="615.464" y="1428"/>
      <point x="579.036" y="1391.57"/>
      <point x="579.036" y="1338" type="curve" smooth="yes"/>
      <point x="579.036" y="1284.43"/>
      <point x="615.464" y="1248"/>
    </contour>
    <contour>
      <point x="229" y="1248" type="curve" smooth="yes"/>
      <point x="282.571" y="1248"/>
      <point x="319" y="1284.43"/>
      <point x="319" y="1338" type="curve" smooth="yes"/>
      <point x="319" y="1391.57"/>
      <point x="282.571" y="1428"/>
      <point x="229" y="1428" type="curve" smooth="yes"/>
      <point x="175.429" y="1428"/>
      <point x="139" y="1391.57"/>
      <point x="139" y="1338" type="curve" smooth="yes"/>
      <point x="139" y="1284.43"/>
      <point x="175.429" y="1248"/>
    </contour>
  </outline>
</glyph>
<glyph name="copyright" format="2">
  <advance width="1356"/>
  <unicode hex="00A9"/>
  <outline>
    <contour>
      <point x="678" y="-104" type="curve" smooth="yes"/>
      <point x="1026" y="-104"/>
      <point x="1281" y="149"/>
      <point x="1281" y="495" type="curve" smooth="yes"/>
      <point x="1281" y="840"/>
      <point x="1026" y="1093"/>
      <point x="678" y="1093" type="curve" smooth="yes"/>
      <point x="329" y="1093"/>
      <point x="75" y="840"/>
      <point x="75" y="495" type="curve" smooth="yes"/>
      <point x="75" y="149"/>
      <point x="329" y="-104"/>
    </contour>
    <contour>
      <point x="678" y="-65" type="curve" smooth="yes"/>
      <point x="353" y="-65"/>
      <point x="117" y="171"/>
      <point x="117" y="493" type="curve" smooth="yes"/>
      <point x="117" y="817"/>
      <point x="356" y="1055"/>
      <point x="678" y="1055" type="curve" smooth="yes"/>
      <point x="999" y="1055"/>
      <point x="1239" y="816"/>
      <point x="1239" y="493" type="curve" smooth="yes"/>
      <point x="1239" y="172"/>
      <point x="1002" y="-65"/>
    </contour>
    <contour>
      <point x="940" y="265" type="curve"/>
      <point x="912" y="293" type="line"/>
      <point x="858" y="243"/>
      <point x="785" y="216"/>
      <point x="714" y="216" type="curve" smooth="yes"/>
      <point x="570" y="216"/>
      <point x="472" y="329"/>
      <point x="472" y="495" type="curve" smooth="yes"/>
      <point x="472" y="660"/>
      <point x="571" y="773"/>
      <point x="715" y="773" type="curve" smooth="yes"/>
      <point x="789" y="773"/>
      <point x="867" y="743"/>
      <point x="912" y="696" type="curve"/>
      <point x="940" y="724" type="line"/>
      <point x="870" y="783"/>
      <point x="784" y="815"/>
      <point x="694" y="815" type="curve" smooth="yes"/>
      <point x="507" y="815"/>
      <point x="371" y="680"/>
      <point x="371" y="495" type="curve" smooth="yes"/>
      <point x="371" y="310"/>
      <point x="507" y="174"/>
      <point x="694" y="174" type="curve" smooth="yes"/>
      <point x="784" y="174"/>
      <point x="871" y="206"/>
    </contour>
  </outline>
</glyph>
<glyph name="uni00AD" format="2">
  <advance width="1143"/>
  <unicode hex="00AD"/>
  <outline>
    <contour>
      <point x="988" y="430" type="line"/>
      <point x="988" y="562" type="line"/>
      <point x="155" y="562" type="line"/>
      <point x="155" y="430" type="line"/>
    </contour>
  </outline>
</glyph>
<glyph name="registered" format="1">
  <advance width="1349"/>
  <unicode hex="00AE"/>
  <outline>
    <contour>
      <point x="675" y="424" type="curve" smooth="yes"/>
      <point x="1021" y="424"/>
      <point x="1274" y="677"/>
      <point x="1274" y="1023" type="curve" smooth="yes"/>
      <point x="1274" y="1368"/>
      <point x="1021" y="1621"/>
      <point x="675" y="1621" type="curve" smooth="yes"/>
      <point x="328" y="1621"/>
      <point x="75" y="1368"/>
      <point x="75" y="1023" type="curve" smooth="yes"/>
      <point x="75" y="677"/>
      <point x="328" y="424"/>
    </contour>
    <contour>
      <point x="675" y="463" type="curve" smooth="yes"/>
      <point x="352" y="463"/>
      <point x="117" y="699"/>
      <point x="117" y="1021" type="curve" smooth="yes"/>
      <point x="117" y="1345"/>
      <point x="355" y="1583"/>
      <point x="675" y="1583" type="curve" smooth="yes"/>
      <point x="994" y="1583"/>
      <point x="1232" y="1344"/>
      <point x="1232" y="1021" type="curve" smooth="yes"/>
      <point x="1232" y="700"/>
      <point x="996" y="463"/>
    </contour>
    <contour>
      <point x="943" y="700" type="line"/>
      <point x="788" y="985" type="line"/>
      <point x="872" y="1010"/>
      <point x="921" y="1071"/>
      <point x="921" y="1159" type="curve" smooth="yes"/>
      <point x="921" y="1274"/>
      <point x="836" y="1345"/>
      <point x="697" y="1345" type="curve" smooth="yes"/>
      <point x="488" y="1345" type="line"/>
      <point x="488" y="703" type="line"/>
      <point x="574" y="703" type="line"/>
      <point x="574" y="973" type="line"/>
      <point x="703" y="973" type="line"/>
      <point x="848" y="700" type="line"/>
    </contour>
    <contour>
      <point x="574" y="1011" type="line"/>
      <point x="574" y="1307" type="line"/>
      <point x="664" y="1307" type="line" smooth="yes"/>
      <point x="769" y="1307"/>
      <point x="834" y="1250"/>
      <point x="834" y="1160" type="curve" smooth="yes"/>
      <point x="834" y="1069"/>
      <point x="768" y="1011"/>
      <point x="664" y="1011" type="curve" smooth="yes"/>
    </contour>
  </outline>
</glyph>
<glyph name="degree" format="1">
  <advance width="695"/>
  <unicode hex="00B0"/>
  <outline>
    <contour>
      <point x="347" y="975" type="curve" smooth="yes" name="at02"/>
      <point x="504" y="975"/>
      <point x="620" y="1091"/>
      <point x="620" y="1248" type="curve" smooth="yes" name="sh03"/>
      <point x="620" y="1405"/>
      <point x="504" y="1520"/>
      <point x="347" y="1520" type="curve" smooth="yes" name="at01"/>
      <point x="189" y="1520"/>
      <point x="75" y="1406"/>
      <point x="75" y="1248" type="curve" smooth="yes" name="sh01"/>
      <point x="75" y="1090"/>
      <point x="189" y="975"/>
    </contour>
    <contour>
      <point x="347" y="1013" type="curve" smooth="yes"/>
      <point x="247" y="1013"/>
      <point x="176" y="1111"/>
      <point x="176" y="1248" type="curve" smooth="yes" name="sh02"/>
      <point x="176" y="1385"/>
      <point x="247" y="1482"/>
      <point x="347" y="1482" type="curve" smooth="yes"/>
      <point x="446" y="1482"/>
      <point x="518" y="1384"/>
      <point x="518" y="1248" type="curve" smooth="yes" name="ah01"/>
      <point x="518" y="1112"/>
      <point x="446" y="1013"/>
    </contour>
  </outline>
</glyph>
<glyph name="plusminus" format="2">
  <advance width="1144"/>
  <unicode hex="00B1"/>
  <outline>
    <contour>
      <point x="645" y="194" type="line"/>
      <point x="645" y="593" type="line"/>
      <point x="989" y="593" type="line"/>
      <point x="989" y="631" type="line"/>
      <point x="645" y="631" type="line"/>
      <point x="645" y="1020" type="line"/>
      <point x="499" y="1020" type="line"/>
      <point x="499" y="631" type="line"/>
      <point x="155" y="631" type="line"/>
      <point x="155" y="593" type="line"/>
      <point x="499" y="593" type="line"/>
      <point x="499" y="194" type="line"/>
    </contour>
    <contour>
      <point x="989" y="0" type="line"/>
      <point x="989" y="38" type="line"/>
      <point x="156" y="38" type="line" name="dv02"/>
      <point x="156" y="0" type="line" name="dv01"/>
    </contour>
  </outline>
</glyph>
<glyph name="twosuperior" format="2">
  <advance width="747"/>
  <unicode hex="00B2"/>
  <outline>
    <contour>
      <point x="602" y="790" type="line"/>
      <point x="602" y="875" type="line"/>
      <point x="271" y="875" type="line"/>
      <point x="503" y="1063"/>
      <point x="592" y="1190"/>
      <point x="592" y="1315" type="curve" smooth="yes"/>
      <point x="592" y="1437"/>
      <point x="508" y="1520"/>
      <point x="388" y="1520" type="curve" smooth="yes"/>
      <point x="299" y="1520"/>
      <point x="214" y="1475"/>
      <point x="155" y="1399" type="curve"/>
      <point x="182" y="1381" type="line"/>
      <point x="226" y="1441"/>
      <point x="287" y="1475"/>
      <point x="348" y="1475" type="curve" smooth="yes"/>
      <point x="436" y="1475"/>
      <point x="494" y="1406"/>
      <point x="494" y="1304" type="curve" smooth="yes"/>
      <point x="494" y="1167"/>
      <point x="387" y="1013"/>
      <point x="167" y="834" type="curve"/>
      <point x="167" y="790" type="line"/>
    </contour>
  </outline>
</glyph>
<glyph name="threesuperior" format="1">
  <advance width="741"/>
  <unicode hex="00B3"/>
  <outline>
    <contour>
      <point x="145" y="874" type="line"/>
      <point x="205" y="820"/>
      <point x="281" y="790"/>
      <point x="361" y="790" type="curve" smooth="yes"/>
      <point x="496" y="790"/>
      <point x="596" y="875"/>
      <point x="596" y="992" type="curve" smooth="yes"/>
      <point x="596" y="1085"/>
      <point x="532" y="1153"/>
      <point x="430" y="1172" type="curve"/>
      <point x="511" y="1198"/>
      <point x="566" y="1265"/>
      <point x="566" y="1345" type="curve" smooth="yes"/>
      <point x="566" y="1447"/>
      <point x="479" y="1520"/>
      <point x="357" y="1520" type="curve" smooth="yes"/>
      <point x="282" y="1520"/>
      <point x="213" y="1491"/>
      <point x="161" y="1440" type="curve"/>
      <point x="185" y="1417" type="line"/>
      <point x="221" y="1456"/>
      <point x="269" y="1478"/>
      <point x="322" y="1478" type="curve" smooth="yes"/>
      <point x="409" y="1478"/>
      <point x="471" y="1420"/>
      <point x="471" y="1338" type="curve" smooth="yes"/>
      <point x="471" y="1250"/>
      <point x="397" y="1184"/>
      <point x="299" y="1184" type="curve" smooth="yes"/>
      <point x="269" y="1184" type="line"/>
      <point x="269" y="1152" type="line"/>
      <point x="299" y="1152" type="line" smooth="yes"/>
      <point x="423" y="1152"/>
      <point x="495" y="1095"/>
      <point x="495" y="998" type="curve" smooth="yes"/>
      <point x="495" y="903"/>
      <point x="423" y="832"/>
      <point x="324" y="832" type="curve" smooth="yes"/>
      <point x="267" y="832"/>
      <point x="212" y="855"/>
      <point x="166" y="899" type="curve"/>
    </contour>
  </outline>
</glyph>
<glyph name="mu" format="2">
  <advance width="1307"/>
  <unicode hex="00B5"/>
  <outline>
    <contour>
      <point x="1272" y="-20" type="curve"/>
      <point x="1272" y="32" type="line"/>
      <point x="1138" y="32"/>
      <point x="1070" y="109"/>
      <point x="1070" y="261" type="curve" smooth="yes"/>
      <point x="1070" y="1000" type="line"/>
      <point x="906" y="1000" type="line"/>
      <point x="906" y="400" type="line" smooth="yes"/>
      <point x="906" y="188"/>
      <point x="797" y="61"/>
      <point x="613" y="61" type="curve" smooth="yes"/>
      <point x="430" y="61"/>
      <point x="318" y="187"/>
      <point x="318" y="392" type="curve" smooth="yes"/>
      <point x="318" y="1000" type="line"/>
      <point x="155" y="1000" type="line"/>
      <point x="155" y="-500" type="line"/>
      <point x="268" y="-500" type="line"/>
      <point x="268" y="119" type="line"/>
      <point x="336" y="28"/>
      <point x="437" y="-20"/>
      <point x="570" y="-20" type="curve" smooth="yes"/>
      <point x="749" y="-20"/>
      <point x="871" y="67"/>
      <point x="924" y="229" type="curve"/>
      <point x="958" y="56"/>
      <point x="1068" y="-20"/>
    </contour>
  </outline>
</glyph>
<glyph name="paragraph" format="1">
  <advance width="1284"/>
  <unicode hex="00B6"/>
  <outline>
    <contour>
      <point x="1129" y="-150" type="line"/>
      <point x="1129" y="1500" type="line"/>
      <point x="654" y="1500" type="line" smooth="yes"/>
      <point x="329" y="1500"/>
      <point x="135" y="1343"/>
      <point x="135" y="1081" type="curve" smooth="yes"/>
      <point x="135" y="813"/>
      <point x="338" y="649"/>
      <point x="668" y="649" type="curve"/>
      <point x="668" y="-150" type="line"/>
      <point x="789" y="-150" type="line"/>
      <point x="789" y="1458" type="line"/>
      <point x="1007" y="1458" type="line"/>
      <point x="1007" y="-150" type="line"/>
    </contour>
  </outline>
</glyph>
<glyph name="onesuperior" format="2">
  <advance width="482"/>
  <unicode hex="00B9"/>
  <outline>
    <contour>
      <point x="327" y="780" type="line"/>
      <point x="327" y="1500" type="line"/>
      <point x="293" y="1500" type="line"/>
      <point x="75" y="1440" type="line"/>
      <point x="85" y="1409" type="line"/>
      <point x="226" y="1451" type="line"/>
      <point x="226" y="780" type="line"/>
    </contour>
  </outline>
</glyph>
<glyph name="ordmasculine" format="1">
  <advance width="867"/>
  <unicode hex="00BA"/>
  <outline>
    <contour>
      <point x="434" y="800" type="curve" smooth="yes" name="av01"/>
      <point x="641" y="800"/>
      <point x="792" y="952"/>
      <point x="792" y="1161" type="curve" smooth="yes" name="sh03"/>
      <point x="792" y="1369"/>
      <point x="642" y="1520"/>
      <point x="435" y="1520" type="curve" smooth="yes" name="at01"/>
      <point x="227" y="1520"/>
      <point x="75" y="1368"/>
      <point x="75" y="1161" type="curve" smooth="yes" name="sh01"/>
      <point x="75" y="953"/>
      <point x="227" y="800"/>
    </contour>
    <contour>
      <point x="435" y="838" type="curve" smooth="yes"/>
      <point x="287" y="838"/>
      <point x="177" y="975"/>
      <point x="177" y="1162" type="curve" smooth="yes" name="sh02"/>
      <point x="177" y="1348"/>
      <point x="284" y="1482"/>
      <point x="434" y="1482" type="curve" smooth="yes"/>
      <point x="583" y="1482"/>
      <point x="690" y="1349"/>
      <point x="690" y="1162" type="curve" smooth="yes" name="ah01"/>
      <point x="690" y="974"/>
      <point x="583" y="838"/>
    </contour>
  </outline>
</glyph>
<glyph name="guillemotright" format="1">
  <advance width="1142"/>
  <unicode hex="00BB"/>
  <outline>
    <contour>
      <point x="316" y="111" type="line"/>
      <point x="639" y="497" type="line"/>
      <point x="316" y="882" type="line"/>
      <point x="155" y="882" type="line"/>
      <point x="485" y="496" type="line"/>
      <point x="155" y="111" type="line"/>
    </contour>
    <contour>
      <point x="744" y="111" type="line"/>
      <point x="1067" y="497" type="line"/>
      <point x="744" y="882" type="line"/>
      <point x="583" y="882" type="line"/>
      <point x="913" y="496" type="line"/>
      <point x="583" y="111" type="line"/>
    </contour>
  </outline>
</glyph>
<glyph name="onequarter" format="2">
  <advance width="1611"/>
  <unicode hex="00BC"/>
  <outline>
    <contour>
      <point x="327" y="0" type="line" name="av01.1"/>
      <point x="1338" y="1540" type="line" name="at01.1"/>
      <point x="1296" y="1540" type="line"/>
      <point x="278" y="0" type="line"/>
    </contour>
    <contour>
      <point x="377" y="780" type="line"/>
      <point x="377" y="1500" type="line"/>
      <point x="343" y="1500" type="line"/>
      <point x="125" y="1440" type="line"/>
      <point x="135" y="1403" type="line"/>
      <point x="276" y="1442" type="line"/>
      <point x="276" y="780" type="line"/>
    </contour>
    <contour>
      <point x="1402" y="0" type="line"/>
      <point x="1402" y="177" type="line"/>
      <point x="1486" y="177" type="line"/>
      <point x="1486" y="215" type="line"/>
      <point x="1402" y="215" type="line"/>
      <point x="1402" y="720" type="line"/>
      <point x="1358" y="720" type="line"/>
      <point x="956" y="212" type="line"/>
      <point x="956" y="177" type="line"/>
      <point x="1305" y="177" type="line"/>
      <point x="1305" y="0" type="line"/>
    </contour>
    <contour>
      <point x="1007" y="215" type="line"/>
      <point x="1305" y="591" type="line"/>
      <point x="1305" y="215" type="line"/>
    </contour>
  </outline>
</glyph>
<glyph name="onehalf" format="1">
  <advance width="1656"/>
  <unicode hex="00BD"/>
  <outline>
    <contour>
      <point x="327" y="0" type="line" name="av01"/>
      <point x="1338" y="1540" type="line" name="at01"/>
      <point x="1296" y="1540" type="line"/>
      <point x="278" y="0" type="line"/>
    </contour>
    <contour>
      <point x="377" y="780" type="line"/>
      <point x="377" y="1500" type="line"/>
      <point x="343" y="1500" type="line"/>
      <point x="125" y="1440" type="line"/>
      <point x="135" y="1409" type="line"/>
      <point x="276" y="1451" type="line"/>
      <point x="276" y="780" type="line"/>
    </contour>
    <contour>
      <point x="1531" y="0" type="line"/>
      <point x="1531" y="86" type="line"/>
      <point x="1207" y="86" type="line"/>
      <point x="1429" y="260"/>
      <point x="1526" y="396"/>
      <point x="1526" y="527" type="curve" smooth="yes"/>
      <point x="1526" y="653"/>
      <point x="1440" y="740"/>
      <point x="1314" y="740" type="curve" smooth="yes"/>
      <point x="1227" y="740"/>
      <point x="1145" y="699"/>
      <point x="1086" y="625" type="curve"/>
      <point x="1111" y="606" type="line"/>
      <point x="1157" y="664"/>
      <point x="1213" y="694"/>
      <point x="1272" y="694" type="curve" smooth="yes"/>
      <point x="1364" y="694"/>
      <point x="1427" y="620"/>
      <point x="1427" y="510" type="curve" smooth="yes"/>
      <point x="1427" y="368"/>
      <point x="1322" y="219"/>
      <point x="1095" y="35" type="curve"/>
      <point x="1095" y="0" type="line"/>
    </contour>
  </outline>
</glyph>
<glyph name="threequarters" format="2">
  <advance width="1622"/>
  <unicode hex="00BE"/>
  <outline>
    <contour>
      <point x="338" y="0" type="line" name="av01.1"/>
      <point x="1349" y="1540" type="line" name="at01.1"/>
      <point x="1307" y="1540" type="line"/>
      <point x="289" y="0" type="line"/>
    </contour>
    <contour>
      <point x="125" y="872" type="line"/>
      <point x="183" y="820"/>
      <point x="254" y="793"/>
      <point x="331" y="793" type="curve" smooth="yes"/>
      <point x="466" y="793"/>
      <point x="568" y="878"/>
      <point x="568" y="992" type="curve" smooth="yes"/>
      <point x="568" y="1085"/>
      <point x="499" y="1153"/>
      <point x="392" y="1173" type="curve"/>
      <point x="479" y="1197"/>
      <point x="539" y="1266"/>
      <point x="539" y="1350" type="curve" smooth="yes"/>
      <point x="539" y="1450"/>
      <point x="453" y="1520"/>
      <point x="332" y="1520" type="curve" smooth="yes"/>
      <point x="260" y="1520"/>
      <point x="195" y="1495"/>
      <point x="142" y="1446" type="curve"/>
      <point x="162" y="1425" type="line"/>
      <point x="201" y="1460"/>
      <point x="246" y="1478"/>
      <point x="296" y="1478" type="curve" smooth="yes"/>
      <point x="383" y="1478"/>
      <point x="442" y="1423"/>
      <point x="442" y="1343" type="curve" smooth="yes"/>
      <point x="442" y="1254"/>
      <point x="370" y="1187"/>
      <point x="272" y="1187" type="curve" smooth="yes"/>
      <point x="248" y="1187" type="line"/>
      <point x="248" y="1155" type="line"/>
      <point x="271" y="1155" type="line" smooth="yes"/>
      <point x="388" y="1155"/>
      <point x="468" y="1091"/>
      <point x="468" y="996" type="curve" smooth="yes"/>
      <point x="468" y="904"/>
      <point x="393" y="834"/>
      <point x="295" y="834" type="curve" smooth="yes"/>
      <point x="240" y="834"/>
      <point x="189" y="857"/>
      <point x="144" y="899" type="curve"/>
    </contour>
    <contour>
      <point x="1413" y="0" type="line"/>
      <point x="1413" y="177" type="line"/>
      <point x="1497" y="177" type="line"/>
      <point x="1497" y="215" type="line"/>
      <point x="1413" y="215" type="line"/>
      <point x="1413" y="720" type="line"/>
      <point x="1369" y="720" type="line"/>
      <point x="967" y="212" type="line"/>
      <point x="967" y="177" type="line"/>
      <point x="1316" y="177" type="line"/>
      <point x="1316" y="0" type="line"/>
    </contour>
    <contour>
      <point x="1018" y="215" type="line"/>
      <point x="1316" y="591" type="line"/>
      <point x="1316" y="215" type="line"/>
    </contour>
  </outline>
</glyph>
<glyph name="questiondown" format="1">
  <advance width="928"/>
  <unicode hex="00BF"/>
  <outline>
    <contour>
      <point x="545.078" y="1030" type="curve" smooth="yes"/>
      <point x="486.119" y="1030"/>
      <point x="444.5" y="989.538"/>
      <point x="444.5" y="930.578" type="curve" smooth="yes"/>
      <point x="444.5" y="871.618"/>
      <point x="486.119" y="830"/>
      <point x="545.078" y="830" type="curve" smooth="yes"/>
      <point x="604.038" y="830"/>
      <point x="644.5" y="871.618"/>
      <point x="644.5" y="930.578" type="curve" smooth="yes"/>
      <point x="644.5" y="989.538"/>
      <point x="604.038" y="1030"/>
    </contour>
    <contour>
      <point x="827" y="-348" type="line"/>
      <point x="736" y="-422"/>
      <point x="628" y="-464"/>
      <point x="529" y="-464" type="curve" smooth="yes"/>
      <point x="369" y="-464"/>
      <point x="263" y="-354"/>
      <point x="263" y="-190" type="curve" smooth="yes"/>
      <point x="263" y="-73"/>
      <point x="317" y="-6"/>
      <point x="379" y="72" type="curve" smooth="yes"/>
      <point x="465" y="179"/>
      <point x="567" y="307"/>
      <point x="567" y="609" type="curve"/>
      <point x="523" y="609" type="line"/>
      <point x="523" y="336"/>
      <point x="397" y="225"/>
      <point x="283" y="126" type="curve" smooth="yes"/>
      <point x="190" y="45"/>
      <point x="105" y="-30"/>
      <point x="105" y="-180" type="curve" smooth="yes"/>
      <point x="105" y="-381"/>
      <point x="258" y="-520"/>
      <point x="477" y="-520" type="curve" smooth="yes"/>
      <point x="605" y="-520"/>
      <point x="737" y="-473"/>
      <point x="853" y="-385" type="curve"/>
    </contour>
  </outline>
</glyph>
<glyph name="AE" format="1">
  <advance width="2053"/>
  <unicode hex="00C6"/>
  <outline>
    <contour>
      <point x="1948" y="0" type="line"/>
      <point x="1942" y="42" type="line"/>
      <point x="1245" y="42" type="line"/>
      <point x="1148" y="747" type="line"/>
      <point x="1795" y="747" type="line"/>
      <point x="1790" y="790" type="line"/>
      <point x="1143" y="790" type="line"/>
      <point x="1051" y="1458" type="line"/>
      <point x="1749" y="1458" type="line"/>
      <point x="1743" y="1500" type="line"/>
      <point x="837" y="1500" type="line"/>
      <point x="35" y="0" type="line"/>
      <point x="86" y="0" type="line"/>
      <point x="325" y="448" type="line"/>
      <point x="1012" y="448" type="line"/>
      <point x="1073" y="0" type="line"/>
    </contour>
    <contour>
      <point x="347" y="490" type="line"/>
      <point x="865" y="1458" type="line"/>
      <point x="874" y="1458" type="line"/>
      <point x="1006" y="490" type="line"/>
    </contour>
  </outline>
</glyph>
<glyph name="Ecircumflex" format="1">
  <advance width="1229"/>
  <unicode hex="00CA"/>
  <outline>
    <contour>
      <point x="905" y="1666" type="line"/>
      <point x="693" y="2000" type="line" name="at01"/>
      <point x="547" y="2000" type="line" name="at01.1"/>
      <point x="334" y="1666" type="line"/>
      <point x="457" y="1666" type="line" name="av01"/>
      <point x="620" y="1929" type="line"/>
      <point x="782" y="1666" type="line" name="av01.1"/>
    </contour>
    <contour>
      <point x="155" y="0" type="line"/>
      <point x="1084" y="0" type="line"/>
      <point x="1084" y="42" type="line"/>
      <point x="331" y="42" type="line"/>
      <point x="331" y="744" type="line"/>
      <point x="1033" y="744" type="line"/>
      <point x="1033" y="786" type="line"/>
      <point x="331" y="786" type="line"/>
      <point x="331" y="1458" type="line"/>
      <point x="1074" y="1458" type="line"/>
      <point x="1074" y="1500" type="line"/>
      <point x="155" y="1500" type="line"/>
    </contour>
  </outline>
</glyph>
<glyph name="Icircumflex" format="1">
  <advance width="486"/>
  <unicode hex="00CE"/>
  <outline>
    <contour>
      <point x="528" y="1666" type="line"/>
      <point x="405" y="1666" type="line" name="av01.1"/>
      <point x="243" y="1929" type="line"/>
      <point x="81" y="1666" type="line" name="av01"/>
      <point x="-42" y="1666" type="line"/>
      <point x="170" y="2000" type="line" name="at01.1"/>
      <point x="316" y="2000" type="line" name="at01.2"/>
    </contour>
    <contour>
      <point x="331" y="1500" type="line" name="at01"/>
      <point x="331" y="0" type="line" name="ab01"/>
      <point x="155" y="0" type="line" name="dh01"/>
      <point x="155" y="1500" type="line"/>
    </contour>
  </outline>
</glyph>
<glyph name="Eth" format="1">
  <advance width="1578"/>
  <unicode hex="00D0"/>
  <outline>
    <contour>
      <point x="185" y="0" type="line"/>
      <point x="615" y="0" type="line" smooth="yes"/>
      <point x="1174" y="0"/>
      <point x="1503" y="277"/>
      <point x="1503" y="750" type="curve" smooth="yes"/>
      <point x="1503" y="1223"/>
      <point x="1174" y="1500"/>
      <point x="615" y="1500" type="curve" smooth="yes"/>
      <point x="185" y="1500" type="line"/>
      <point x="185" y="769" type="line"/>
      <point x="15" y="769" type="line" name="dv02"/>
      <point x="15" y="731" type="line" name="dv01"/>
      <point x="185" y="731" type="line"/>
    </contour>
    <contour>
      <point x="815" y="731" type="line"/>
      <point x="815" y="769" type="line"/>
      <point x="361" y="769" type="line"/>
      <point x="361" y="1458" type="line"/>
      <point x="618" y="1458" type="line" smooth="yes"/>
      <point x="1063" y="1458"/>
      <point x="1323" y="1197"/>
      <point x="1323" y="750" type="curve" smooth="yes"/>
      <point x="1323" y="304"/>
      <point x="1062" y="42"/>
      <point x="618" y="42" type="curve" smooth="yes"/>
      <point x="361" y="42" type="line"/>
      <point x="361" y="731" type="line"/>
    </contour>
  </outline>
</glyph>
<glyph name="Otilde" format="1">
  <advance width="1709"/>
  <unicode hex="00D5"/>
  <outline>
    <contour>
      <point x="1188" y="1947" type="curve"/>
      <point x="1114" y="1947" type="line"/>
      <point x="1103" y="1873"/>
      <point x="1065" y="1833"/>
      <point x="1004" y="1833" type="curve" smooth="yes"/>
      <point x="954" y="1833"/>
      <point x="918" y="1859"/>
      <point x="880" y="1888" type="curve" smooth="yes"/>
      <point x="836" y="1922"/>
      <point x="787" y="1957"/>
      <point x="708" y="1957" type="curve" smooth="yes"/>
      <point x="597" y="1957"/>
      <point x="532" y="1886"/>
      <point x="520" y="1752" type="curve"/>
      <point x="594" y="1752" type="line"/>
      <point x="605" y="1826"/>
      <point x="647" y="1868"/>
      <point x="710" y="1868" type="curve" smooth="yes"/>
      <point x="761" y="1868"/>
      <point x="797" y="1842"/>
      <point x="830" y="1816" type="curve" smooth="yes"/>
      <point x="888" y="1770"/>
      <point x="931" y="1742"/>
      <point x="998" y="1742" type="curve" smooth="yes"/>
      <point x="1108" y="1742"/>
      <point x="1177" y="1816"/>
    </contour>
    <contour>
      <point x="853" y="-30" type="curve" smooth="yes"/>
      <point x="1301" y="-30"/>
      <point x="1634" y="302"/>
      <point x="1634" y="750" type="curve" smooth="yes"/>
      <point x="1634" y="1198"/>
      <point x="1301" y="1530"/>
      <point x="852" y="1530" type="curve" smooth="yes"/>
      <point x="404" y="1530"/>
      <point x="75" y="1200"/>
      <point x="75" y="750" type="curve" smooth="yes"/>
      <point x="75" y="300"/>
      <point x="405" y="-30"/>
    </contour>
    <contour>
      <point x="852" y="12" type="curve" smooth="yes"/>
      <point x="506" y="12"/>
      <point x="255" y="324"/>
      <point x="255" y="751" type="curve" smooth="yes"/>
      <point x="255" y="1178"/>
      <point x="506" y="1488"/>
      <point x="852" y="1488" type="curve" smooth="yes"/>
      <point x="1199" y="1488"/>
      <point x="1453" y="1176"/>
      <point x="1453" y="751" type="curve" smooth="yes"/>
      <point x="1453" y="325"/>
      <point x="1198" y="12"/>
    </contour>
  </outline>
</glyph>
<glyph name="multiply" format="1">
  <advance width="1006"/>
  <unicode hex="00D7"/>
  <outline>
    <contour>
      <point x="816" y="90" type="line"/>
      <point x="911" y="185" type="line"/>
      <point x="597" y="498" type="line"/>
      <point x="911" y="811" type="line"/>
      <point x="816" y="906" type="line"/>
      <point x="503" y="592" type="line"/>
      <point x="190" y="906" type="line"/>
      <point x="95" y="811" type="line"/>
      <point x="409" y="498" type="line"/>
      <point x="95" y="185" type="line"/>
      <point x="190" y="90" type="line"/>
      <point x="503" y="404" type="line"/>
    </contour>
  </outline>
</glyph>
<glyph name="Uacute" format="1">
  <advance width="1569"/>
  <unicode hex="00DA"/>
  <outline>
    <contour>
      <point x="826" y="1666" type="line"/>
      <point x="1021" y="2000" type="line"/>
      <point x="864" y="2000" type="line"/>
      <point x="707" y="1666" type="line"/>
    </contour>
    <contour>
      <point x="1414" y="1500" type="line"/>
      <point x="1238" y="1500" type="line"/>
      <point x="1238" y="620" type="line" smooth="yes"/>
      <point x="1238" y="236"/>
      <point x="1068" y="12"/>
      <point x="784" y="12" type="curve" smooth="yes"/>
      <point x="501" y="12"/>
      <point x="331" y="236"/>
      <point x="331" y="620" type="curve" smooth="yes"/>
      <point x="331" y="1500" type="line"/>
      <point x="155" y="1500" type="line"/>
      <point x="155" y="663" type="line" smooth="yes"/>
      <point x="155" y="228"/>
      <point x="389" y="-30"/>
      <point x="784" y="-30" type="curve" smooth="yes"/>
      <point x="1179" y="-30"/>
      <point x="1414" y="228"/>
      <point x="1414" y="663" type="curve" smooth="yes"/>
    </contour>
  </outline>
</glyph>
<glyph name="Ucircumflex" format="1">
  <advance width="1569"/>
  <unicode hex="00DB"/>
  <outline>
    <contour>
      <point x="1069" y="1666" type="line"/>
      <point x="857" y="2000" type="line" name="at01"/>
      <point x="711" y="2000" type="line" name="at01.1"/>
      <point x="499" y="1666" type="line"/>
      <point x="622" y="1666" type="line" name="av01"/>
      <point x="784" y="1929" type="line"/>
      <point x="946" y="1666" type="line" name="av01.1"/>
    </contour>
    <contour>
      <point x="1414" y="1500" type="line"/>
      <point x="1238" y="1500" type="line"/>
      <point x="1238" y="620" type="line" smooth="yes"/>
      <point x="1238" y="236"/>
      <point x="1068" y="12"/>
      <point x="784" y="12" type="curve" smooth="yes"/>
      <point x="501" y="12"/>
      <point x="331" y="236"/>
      <point x="331" y="620" type="curve" smooth="yes"/>
      <point x="331" y="1500" type="line"/>
      <point x="155" y="1500" type="line"/>
      <point x="155" y="663" type="line" smooth="yes"/>
      <point x="155" y="228"/>
      <point x="389" y="-30"/>
      <point x="784" y="-30" type="curve" smooth="yes"/>
      <point x="1179" y="-30"/>
      <point x="1414" y="228"/>
      <point x="1414" y="663" type="curve" smooth="yes"/>
    </contour>
  </outline>
</glyph>
<glyph name="germandbls" format="2">
  <advance width="1174"/>
  <unicode hex="00DF"/>
  <outline>
    <contour>
      <point x="331" y="0" type="line"/>
      <point x="331" y="1142" type="line" smooth="yes"/>
      <point x="331" y="1348"/>
      <point x="432" y="1488"/>
      <point x="580" y="1488" type="curve" smooth="yes"/>
      <point x="725" y="1488"/>
      <point x="832" y="1353"/>
      <point x="832" y="1171" type="curve" smooth="yes"/>
      <point x="832" y="1008"/>
      <point x="748" y="944"/>
      <point x="680" y="893" type="curve" smooth="yes"/>
      <point x="616" y="844"/>
      <point x="597" y="819"/>
      <point x="597" y="783" type="curve" smooth="yes"/>
      <point x="597" y="725"/>
      <point x="648" y="691"/>
      <point x="702" y="655" type="curve" smooth="yes"/>
      <point x="791" y="596"/>
      <point x="892" y="529"/>
      <point x="892" y="368" type="curve" smooth="yes"/>
      <point x="892" y="181"/>
      <point x="757" y="33"/>
      <point x="578" y="25" type="curve"/>
      <point x="584" y="-20" type="line"/>
      <point x="869" y="-20"/>
      <point x="1069" y="137"/>
      <point x="1069" y="362" type="curve" smooth="yes"/>
      <point x="1069" y="550"/>
      <point x="930" y="623"/>
      <point x="824" y="678" type="curve" smooth="yes"/>
      <point x="734" y="725"/>
      <point x="708" y="749"/>
      <point x="708" y="781" type="curve" smooth="yes"/>
      <point x="708" y="821"/>
      <point x="750" y="847"/>
      <point x="807" y="882" type="curve" smooth="yes"/>
      <point x="889" y="932"/>
      <point x="1003" y="1001"/>
      <point x="1003" y="1168" type="curve" smooth="yes"/>
      <point x="1003" y="1377"/>
      <point x="826" y="1530"/>
      <point x="585" y="1530" type="curve" smooth="yes"/>
      <point x="330" y="1530"/>
      <point x="155" y="1360"/>
      <point x="155" y="1111" type="curve" smooth="yes"/>
      <point x="155" y="0" type="line"/>
    </contour>
  </outline>
</glyph>
<glyph name="acircumflex" format="1">
  <advance width="1097"/>
  <unicode hex="00E2"/>
  <outline>
    <contour>
      <point x="844" y="1166" type="line"/>
      <point x="632" y="1500" type="line" name="at01"/>
      <point x="486" y="1500" type="line" name="at01.1"/>
      <point x="274" y="1166" type="line"/>
      <point x="397" y="1166" type="line" name="av01"/>
      <point x="559" y="1429" type="line"/>
      <point x="721" y="1166" type="line" name="av01.1"/>
    </contour>
    <contour>
      <point x="962" y="0" type="line" name="n0"/>
      <point x="962" y="590" type="line" smooth="yes" name="n1"/>
      <point x="962" y="853"/>
      <point x="798" y="1020"/>
      <point x="539" y="1020" type="curve" smooth="yes"/>
      <point x="413" y="1020"/>
      <point x="282" y="981"/>
      <point x="166" y="907" type="curve" name="n7"/>
      <point x="187" y="872" type="line"/>
      <point x="302" y="944"/>
      <point x="421" y="982"/>
      <point x="525" y="982" type="curve" smooth="yes"/>
      <point x="705" y="982"/>
      <point x="798" y="866"/>
      <point x="798" y="640" type="curve" smooth="yes" name="n14"/>
      <point x="798" y="544" type="line"/>
      <point x="713" y="595"/>
      <point x="614" y="622" name="n16.1"/>
      <point x="511" y="622" type="curve" smooth="yes" name="n17"/>
      <point x="277" y="622" name="n18"/>
      <point x="105" y="482" name="n19"/>
      <point x="105" y="292" type="curve" smooth="yes" name="n20"/>
      <point x="105" y="111" name="n21"/>
      <point x="261" y="-20" name="n22"/>
      <point x="477" y="-20" type="curve" smooth="yes" name="n23"/>
      <point x="626" y="-20"/>
      <point x="742" y="42"/>
      <point x="809" y="152" type="curve"/>
      <point x="821" y="0" type="line" name="n16"/>
    </contour>
    <contour>
      <point x="508" y="22" type="curve" smooth="yes" name="n4"/>
      <point x="373" y="22" name="n5"/>
      <point x="275" y="144" name="n6"/>
      <point x="275" y="311" type="curve" smooth="yes" name="n7.1"/>
      <point x="275" y="482" name="n8.1"/>
      <point x="376" y="584" name="n9"/>
      <point x="544" y="584" type="curve" smooth="yes" name="n10"/>
      <point x="634" y="584" name="n11"/>
      <point x="726" y="554" name="n12"/>
      <point x="798" y="504" type="curve"/>
      <point x="798" y="420" type="line" smooth="yes" name="n1.1"/>
      <point x="798" y="197" name="n2"/>
      <point x="671" y="22" name="n3"/>
    </contour>
  </outline>
</glyph>
<glyph name="ae" format="2">
  <advance width="1873"/>
  <unicode hex="00E6"/>
  <outline>
    <contour>
      <point x="1740" y="113" type="curve"/>
      <point x="1718" y="145" type="line"/>
      <point x="1609" y="63"/>
      <point x="1489" y="18"/>
      <point x="1373" y="18" type="curve" smooth="yes"/>
      <point x="1137" y="18"/>
      <point x="972" y="198"/>
      <point x="952" y="467" type="curve"/>
      <point x="1798" y="467" type="line"/>
      <point x="1798" y="496" type="line" smooth="yes"/>
      <point x="1798" y="800"/>
      <point x="1595" y="1013"/>
      <point x="1307" y="1013" type="curve" smooth="yes"/>
      <point x="1123" y="1013"/>
      <point x="967" y="926"/>
      <point x="881" y="782" type="curve"/>
      <point x="821" y="926"/>
      <point x="675" y="1020"/>
      <point x="498" y="1020" type="curve" smooth="yes"/>
      <point x="383" y="1020"/>
      <point x="269" y="981"/>
      <point x="173" y="908" type="curve" name="n7"/>
      <point x="195" y="872" type="line" name="n8"/>
      <point x="285" y="936"/>
      <point x="391" y="971"/>
      <point x="493" y="971" type="curve" smooth="yes"/>
      <point x="679" y="971"/>
      <point x="776" y="857"/>
      <point x="807" y="599" type="curve" smooth="yes" name="n14"/>
      <point x="813" y="544" type="line"/>
      <point x="718" y="601"/>
      <point x="611" y="631"/>
      <point x="503" y="631" type="curve" smooth="yes"/>
      <point x="272" y="631"/>
      <point x="105" y="493"/>
      <point x="105" y="303" type="curve" smooth="yes" name="n20"/>
      <point x="105" y="118" name="n21"/>
      <point x="264" y="-20" name="n22"/>
      <point x="475" y="-20" type="curve" smooth="yes" name="n23"/>
      <point x="661" y="-20" name="n24"/>
      <point x="812" y="90"/>
      <point x="867" y="255" type="curve"/>
      <point x="951" y="81"/>
      <point x="1128" y="-27"/>
      <point x="1340" y="-27" type="curve" smooth="yes"/>
      <point x="1483" y="-27"/>
      <point x="1622" y="22"/>
    </contour>
    <contour>
      <point x="950" y="504" type="line"/>
      <point x="950" y="769"/>
      <point x="1092" y="974"/>
      <point x="1298" y="974" type="curve" smooth="yes"/>
      <point x="1497" y="974"/>
      <point x="1649" y="781"/>
      <point x="1649" y="504" type="curve"/>
    </contour>
    <contour>
      <point x="819" y="497" type="curve" name="n13"/>
      <point x="838" y="329" type="line"/>
      <point x="838" y="179"/>
      <point x="693" y="44" name="n3"/>
      <point x="525" y="44" type="curve" smooth="yes" name="n4"/>
      <point x="370" y="44" name="n5"/>
      <point x="253" y="158" name="n6"/>
      <point x="253" y="310" type="curve" smooth="yes" name="n7.1"/>
      <point x="253" y="468"/>
      <point x="381" y="581"/>
      <point x="559" y="581" type="curve" smooth="yes"/>
      <point x="651" y="581"/>
      <point x="742" y="552"/>
    </contour>
  </outline>
</glyph>
<glyph name="ccedilla" format="1">
  <advance width="1033"/>
  <unicode hex="00E7"/>
  <outline>
    <contour>
      <point x="968" y="125" type="curve"/>
      <point x="940" y="154" type="line"/>
      <point x="860" y="72"/>
      <point x="752" y="26"/>
      <point x="640" y="26" type="curve" smooth="yes" name="ih01"/>
      <point x="407" y="26"/>
      <point x="243" y="222"/>
      <point x="243" y="500" type="curve" smooth="yes"/>
      <point x="243" y="778"/>
      <point x="407" y="974"/>
      <point x="640" y="974" type="curve" smooth="yes"/>
      <point x="752" y="974"/>
      <point x="859" y="929"/>
      <point x="940" y="846" type="curve"/>
      <point x="968" y="875" type="line"/>
      <point x="872" y="969"/>
      <point x="741" y="1020"/>
      <point x="598" y="1020" type="curve" smooth="yes"/>
      <point x="299" y="1020"/>
      <point x="75" y="797"/>
      <point x="75" y="500" type="curve" smooth="yes"/>
      <point x="75" y="212"/>
      <point x="286" y="-6"/>
      <point x="572" y="-19" type="curve"/>
      <point x="527" y="-135" type="line"/>
      <point x="537" y="-134"/>
      <point x="547" y="-134"/>
      <point x="556" y="-134" type="curve" smooth="yes"/>
      <point x="643" y="-134"/>
      <point x="699" y="-170"/>
      <point x="699" y="-231" type="curve" smooth="yes"/>
      <point x="699" y="-293"/>
      <point x="641" y="-336"/>
      <point x="559" y="-336" type="curve" smooth="yes"/>
      <point x="527" y="-336"/>
      <point x="494" y="-330"/>
      <point x="463" y="-317" type="curve"/>
      <point x="438" y="-391" type="line"/>
      <point x="486" y="-408"/>
      <point x="532" y="-416"/>
      <point x="576" y="-416" type="curve" smooth="yes"/>
      <point x="698" y="-416"/>
      <point x="787" y="-346"/>
      <point x="787" y="-251" type="curve" smooth="yes"/>
      <point x="787" y="-163"/>
      <point x="714" y="-104"/>
      <point x="609" y="-100" type="curve"/>
      <point x="643" y="-18" type="line"/>
      <point x="768" y="-9"/>
      <point x="882" y="41"/>
    </contour>
  </outline>
</glyph>
<glyph name="icircumflex" format="1">
  <advance width="475"/>
  <unicode hex="00EE"/>
  <outline>
    <contour>
      <point x="523" y="1166" type="line"/>
      <point x="310" y="1500" type="line" name="at01"/>
      <point x="164" y="1500" type="line" name="at01.1"/>
      <point x="-48" y="1166" type="line"/>
      <point x="75" y="1166" type="line" name="av01"/>
      <point x="237" y="1429" type="line"/>
      <point x="400" y="1166" type="line" name="av01.1"/>
    </contour>
    <contour>
      <point x="319" y="0" type="line"/>
      <point x="319" y="1000" type="line"/>
      <point x="155" y="1000" type="line"/>
      <point x="155" y="0" type="line"/>
    </contour>
  </outline>
</glyph>
<glyph name="eth" format="1">
  <advance width="1155"/>
  <unicode hex="00F0"/>
  <outline>
    <contour>
      <point x="952" y="1333" type="line"/>
      <point x="935" y="1368" type="line"/>
      <point x="728" y="1278" type="line"/>
      <point x="629.463" y="1368.91"/>
      <point x="515" y="1445"/>
      <point x="387" y="1500" type="curve"/>
      <point x="368" y="1464" type="line"/>
      <point x="475" y="1406"/>
      <point x="567.456" y="1330.92"/>
      <point x="645" y="1242" type="curve"/>
      <point x="273" y="1080" type="line" name="dv04"/>
      <point x="289" y="1044" type="line" name="dv03"/>
      <point x="671" y="1210" type="line"/>
      <point x="793" y="1056"/>
      <point x="871" y="865"/>
      <point x="900" y="648" type="curve"/>
      <point x="838" y="806"/>
      <point x="712" y="895"/>
      <point x="540" y="895" type="curve" smooth="yes"/>
      <point x="288" y="895"/>
      <point x="105" y="704"/>
      <point x="105" y="440" type="curve" smooth="yes"/>
      <point x="105" y="163"/>
      <point x="306" y="-30"/>
      <point x="592" y="-30" type="curve" smooth="yes"/>
      <point x="893" y="-30"/>
      <point x="1080" y="186"/>
      <point x="1080" y="518" type="curve" smooth="yes"/>
      <point x="1080" y="785"/>
      <point x="958" y="1048"/>
      <point x="759" y="1248" type="curve"/>
    </contour>
    <contour>
      <point x="590" y="12" type="curve" smooth="yes"/>
      <point x="412" y="12"/>
      <point x="285" y="184"/>
      <point x="285" y="427" type="curve" smooth="yes"/>
      <point x="285" y="665"/>
      <point x="409" y="831"/>
      <point x="586" y="831" type="curve" smooth="yes"/>
      <point x="766" y="831"/>
      <point x="896" y="658"/>
      <point x="896" y="420" type="curve" smooth="yes"/>
      <point x="896" y="183"/>
      <point x="768" y="12"/>
    </contour>
  </outline>
</glyph>
<glyph name="ograve" format="1">
  <advance width="1215"/>
  <unicode hex="00F2"/>
  <outline>
    <contour>
      <point x="684" y="1166" type="line"/>
      <point x="527" y="1500" type="line"/>
      <point x="371" y="1500" type="line"/>
      <point x="565" y="1166" type="line"/>
    </contour>
    <contour>
      <point x="608" y="-20" type="curve" smooth="yes"/>
      <point x="908" y="-20"/>
      <point x="1130" y="201"/>
      <point x="1130" y="500" type="curve" smooth="yes"/>
      <point x="1130" y="797"/>
      <point x="906" y="1020"/>
      <point x="608" y="1020" type="curve" smooth="yes"/>
      <point x="309" y="1020"/>
      <point x="85" y="798"/>
      <point x="85" y="500" type="curve" smooth="yes"/>
      <point x="85" y="203"/>
      <point x="309" y="-20"/>
    </contour>
    <contour>
      <point x="608" y="18" type="curve" smooth="yes"/>
      <point x="401" y="18"/>
      <point x="253" y="213"/>
      <point x="253" y="500" type="curve" smooth="yes"/>
      <point x="253" y="788"/>
      <point x="401" y="982"/>
      <point x="608" y="982" type="curve" smooth="yes"/>
      <point x="814" y="982"/>
      <point x="962" y="788"/>
      <point x="962" y="500" type="curve" smooth="yes"/>
      <point x="962" y="213"/>
      <point x="814" y="18"/>
    </contour>
  </outline>
</glyph>
<glyph name="ocircumflex" format="1">
  <advance width="1215"/>
  <unicode hex="00F4"/>
  <outline>
    <contour>
      <point x="893" y="1166" type="line"/>
      <point x="680" y="1500" type="line" name="at01"/>
      <point x="535" y="1500" type="line" name="at01.1"/>
      <point x="322" y="1166" type="line"/>
      <point x="445" y="1166" type="line" name="av01"/>
      <point x="607" y="1429" type="line"/>
      <point x="770" y="1166" type="line" name="av01.1"/>
    </contour>
    <contour>
      <point x="608" y="-20" type="curve" smooth="yes"/>
      <point x="908" y="-20"/>
      <point x="1130" y="201"/>
      <point x="1130" y="500" type="curve" smooth="yes"/>
      <point x="1130" y="797"/>
      <point x="906" y="1020"/>
      <point x="608" y="1020" type="curve" smooth="yes"/>
      <point x="309" y="1020"/>
      <point x="85" y="798"/>
      <point x="85" y="500" type="curve" smooth="yes"/>
      <point x="85" y="203"/>
      <point x="309" y="-20"/>
    </contour>
    <contour>
      <point x="608" y="18" type="curve" smooth="yes"/>
      <point x="401" y="18"/>
      <point x="253" y="213"/>
      <point x="253" y="500" type="curve" smooth="yes"/>
      <point x="253" y="788"/>
      <point x="401" y="982"/>
      <point x="608" y="982" type="curve" smooth="yes"/>
      <point x="814" y="982"/>
      <point x="962" y="788"/>
      <point x="962" y="500" type="curve" smooth="yes"/>
      <point x="962" y="213"/>
      <point x="814" y="18"/>
    </contour>
  </outline>
</glyph>
<glyph name="otilde" format="1">
  <advance width="1215"/>
  <unicode hex="00F5"/>
  <outline>
    <contour>
      <point x="940" y="1447" type="curve"/>
      <point x="867" y="1447" type="line"/>
      <point x="856" y="1373"/>
      <point x="817" y="1333"/>
      <point x="756" y="1333" type="curve" smooth="yes"/>
      <point x="706" y="1333"/>
      <point x="670" y="1359"/>
      <point x="632" y="1388" type="curve" smooth="yes"/>
      <point x="588" y="1421"/>
      <point x="540" y="1457"/>
      <point x="461" y="1457" type="curve" smooth="yes"/>
      <point x="350" y="1457"/>
      <point x="285" y="1386"/>
      <point x="273" y="1252" type="curve"/>
      <point x="347" y="1252" type="line"/>
      <point x="358" y="1326"/>
      <point x="400" y="1368"/>
      <point x="463" y="1368" type="curve" smooth="yes"/>
      <point x="514" y="1368"/>
      <point x="550" y="1341"/>
      <point x="588" y="1311" type="curve" smooth="yes"/>
      <point x="640" y="1270"/>
      <point x="683" y="1242"/>
      <point x="752" y="1242" type="curve" smooth="yes"/>
      <point x="861" y="1242"/>
      <point x="929" y="1316"/>
    </contour>
    <contour>
      <point x="608" y="-20" type="curve" smooth="yes"/>
      <point x="908" y="-20"/>
      <point x="1130" y="201"/>
      <point x="1130" y="500" type="curve" smooth="yes"/>
      <point x="1130" y="797"/>
      <point x="906" y="1020"/>
      <point x="608" y="1020" type="curve" smooth="yes"/>
      <point x="309" y="1020"/>
      <point x="85" y="798"/>
      <point x="85" y="500" type="curve" smooth="yes"/>
      <point x="85" y="203"/>
      <point x="309" y="-20"/>
    </contour>
    <contour>
      <point x="608" y="18" type="curve" smooth="yes"/>
      <point x="401" y="18"/>
      <point x="253" y="213"/>
      <point x="253" y="500" type="curve" smooth="yes"/>
      <point x="253" y="788"/>
      <point x="401" y="982"/>
      <point x="608" y="982" type="curve" smooth="yes"/>
      <point x="814" y="982"/>
      <point x="963" y="788"/>
      <point x="963" y="500" type="curve" smooth="yes"/>
      <point x="963" y="213"/>
      <point x="814" y="18"/>
    </contour>
  </outline>
</glyph>
<glyph name="divide" format="1">
  <advance width="1110"/>
  <unicode hex="00F7"/>
  <outline>
    <contour>
      <point x="553" y="780" type="curve" smooth="yes"/>
      <point x="609.322" y="780"/>
      <point x="651.851" y="823.678"/>
      <point x="651.851" y="880" type="curve" smooth="yes"/>
      <point x="651.851" y="935.172"/>
      <point x="609.322" y="980"/>
      <point x="553" y="980" type="curve" smooth="yes"/>
      <point x="496.678" y="980"/>
      <point x="454.149" y="935.172"/>
      <point x="454.149" y="880" type="curve" smooth="yes"/>
      <point x="454.149" y="823.678"/>
      <point x="496.678" y="780"/>
    </contour>
    <contour>
      <point x="955" y="434" type="line"/>
      <point x="955" y="526" type="line"/>
      <point x="155" y="526" type="line" name="dv02"/>
      <point x="155" y="434" type="line" name="dv01"/>
    </contour>
    <contour>
      <point x="553" y="-20" type="curve" smooth="yes"/>
      <point x="609.647" y="-20"/>
      <point x="652.422" y="23.9306"/>
      <point x="652.422" y="80.578" type="curve" smooth="yes"/>
      <point x="652.422" y="136.069"/>
      <point x="609.647" y="180"/>
      <point x="553" y="180" type="curve" smooth="yes"/>
      <point x="496.353" y="180"/>
      <point x="453.578" y="136.069"/>
      <point x="453.578" y="80.578" type="curve" smooth="yes"/>
      <point x="453.578" y="23.9306"/>
      <point x="496.353" y="-20"/>
    </contour>
  </outline>
</glyph>
<glyph name="oslash" format="2">
  <advance width="1215"/>
  <unicode hex="00F8"/>
  <outline>
    <contour>
      <point x="398" y="-59" type="line" name="av01"/>
      <point x="426" y="10" type="line"/>
      <point x="482" y="-9"/>
      <point x="543" y="-20"/>
      <point x="608" y="-20" type="curve" smooth="yes"/>
      <point x="908" y="-20"/>
      <point x="1130" y="201"/>
      <point x="1130" y="500" type="curve" smooth="yes"/>
      <point x="1130" y="718"/>
      <point x="1009" y="897"/>
      <point x="826" y="976" type="curve"/>
      <point x="855" y="1044" type="line" name="at01"/>
      <point x="817" y="1059" type="line"/>
      <point x="788" y="991" type="line"/>
      <point x="732" y="1010"/>
      <point x="672" y="1020"/>
      <point x="608" y="1020" type="curve" smooth="yes"/>
      <point x="309" y="1020"/>
      <point x="85" y="798"/>
      <point x="85" y="500" type="curve" smooth="yes"/>
      <point x="85" y="281"/>
      <point x="206" y="103"/>
      <point x="389" y="24" type="curve"/>
      <point x="361" y="-45" type="line"/>
    </contour>
    <contour>
      <point x="415" y="87" type="line"/>
      <point x="315" y="168"/>
      <point x="253" y="314"/>
      <point x="253" y="500" type="curve" smooth="yes"/>
      <point x="253" y="788"/>
      <point x="401" y="982"/>
      <point x="608" y="982" type="curve" smooth="yes"/>
      <point x="666" y="982"/>
      <point x="720" y="967"/>
      <point x="767" y="938" type="curve"/>
    </contour>
    <contour>
      <point x="608" y="18" type="curve" smooth="yes"/>
      <point x="549" y="18"/>
      <point x="495" y="34"/>
      <point x="448" y="63" type="curve"/>
      <point x="801" y="914" type="line"/>
      <point x="901" y="833"/>
      <point x="963" y="686"/>
      <point x="963" y="500" type="curve" smooth="yes"/>
      <point x="963" y="213"/>
      <point x="814" y="18"/>
    </contour>
  </outline>
</glyph>
<glyph name="ucircumflex" format="1">
  <advance width="1206"/>
  <unicode hex="00FB"/>
  <outline>
    <contour>
      <point x="888" y="1166" type="line"/>
      <point x="675" y="1500" type="line" name="at01"/>
      <point x="530" y="1500" type="line" name="at01.1"/>
      <point x="317" y="1166" type="line"/>
      <point x="440" y="1166" type="line" name="av01"/>
      <point x="602" y="1429" type="line"/>
      <point x="765" y="1166" type="line" name="av01.1"/>
    </contour>
    <contour>
      <point x="1051" y="0" type="line"/>
      <point x="1051" y="1000" type="line"/>
      <point x="887" y="1000" type="line"/>
      <point x="887" y="389" type="line" smooth="yes"/>
      <point x="887" y="178"/>
      <point x="774" y="49"/>
      <point x="589" y="49" type="curve" smooth="yes"/>
      <point x="406" y="49"/>
      <point x="299" y="175"/>
      <point x="299" y="389" type="curve" smooth="yes"/>
      <point x="299" y="1000" type="line"/>
      <point x="135" y="1000" type="line"/>
      <point x="135" y="430" type="line" smooth="yes"/>
      <point x="135" y="147"/>
      <point x="283" y="-20"/>
      <point x="532" y="-20" type="curve" smooth="yes"/>
      <point x="710" y="-20"/>
      <point x="836" y="65"/>
      <point x="899" y="224" type="curve"/>
      <point x="907" y="0" type="line"/>
    </contour>
  </outline>
</glyph>
<glyph name="yacute" format="1">
  <advance width="1083"/>
  <unicode hex="00FD"/>
  <outline>
    <contour>
      <point x="607" y="1166" type="line"/>
      <point x="802" y="1500" type="line"/>
      <point x="645" y="1500" type="line"/>
      <point x="488" y="1166" type="line"/>
    </contour>
    <contour>
      <point x="408" y="-500" type="line"/>
      <point x="1028" y="1000" type="line"/>
      <point x="984" y="1000" type="line"/>
      <point x="653" y="202" type="line"/>
      <point x="247" y="1000" type="line"/>
      <point x="55" y="1000" type="line"/>
      <point x="575" y="13" type="line"/>
      <point x="364" y="-500" type="line"/>
    </contour>
  </outline>
</glyph>
<glyph name="thorn" format="1">
  <advance width="1293"/>
  <unicode hex="00FE"/>
  <outline>
    <contour>
      <point x="319" y="-500" type="line"/>
      <point x="319" y="219" type="line"/>
      <point x="403" y="73"/>
      <point x="553" y="-20"/>
      <point x="733" y="-20" type="curve" smooth="yes"/>
      <point x="1010" y="-20"/>
      <point x="1218" y="203"/>
      <point x="1218" y="500" type="curve" smooth="yes"/>
      <point x="1218" y="797"/>
      <point x="1009" y="1020"/>
      <point x="732" y="1020" type="curve" smooth="yes"/>
      <point x="553" y="1020"/>
      <point x="403" y="927"/>
      <point x="319" y="781" type="curve"/>
      <point x="319" y="1500" type="line"/>
      <point x="155" y="1500" type="line"/>
      <point x="155" y="-500" type="line"/>
    </contour>
    <contour>
      <point x="667" y="44" type="curve" smooth="yes"/>
      <point x="508" y="44"/>
      <point x="378" y="148"/>
      <point x="319" y="304" type="curve"/>
      <point x="319" y="697" type="line"/>
      <point x="378" y="853"/>
      <point x="507" y="957"/>
      <point x="666" y="957" type="curve" smooth="yes"/>
      <point x="886" y="957"/>
      <point x="1050" y="761"/>
      <point x="1050" y="500" type="curve" smooth="yes"/>
      <point x="1050" y="240"/>
      <point x="885" y="44"/>
    </contour>
  </outline>
</glyph>
<glyph name="Abreve" format="1">
  <advance width="1439"/>
  <unicode hex="0102"/>
  <outline>
    <contour>
      <point x="1028" y="2000" type="curve" name="at01"/>
      <point x="926" y="2000" type="line" name="ah01"/>
      <point x="926" y="1866"/>
      <point x="841" y="1773"/>
      <point x="720" y="1773" type="curve" smooth="yes"/>
      <point x="599" y="1773"/>
      <point x="513" y="1866"/>
      <point x="513" y="2000" type="curve" name="sh01"/>
      <point x="411" y="2000" type="line" name="at02"/>
      <point x="411" y="1818"/>
      <point x="540" y="1685"/>
      <point x="720" y="1685" type="curve" smooth="yes" name="av01"/>
      <point x="900" y="1685"/>
      <point x="1028" y="1818"/>
    </contour>
    <contour>
      <point x="93" y="0" type="line"/>
      <point x="297" y="481" type="line" name="dv01"/>
      <point x="998" y="481" type="line"/>
      <point x="1203" y="0" type="line"/>
      <point x="1394" y="0" type="line"/>
      <point x="756" y="1500" type="line"/>
      <point x="683" y="1500" type="line"/>
      <point x="45" y="0" type="line"/>
    </contour>
    <contour>
      <point x="315" y="523" type="line" name="dv02"/>
      <point x="648" y="1306" type="line"/>
      <point x="981" y="523" type="line"/>
    </contour>
  </outline>
</glyph>
<glyph name="Cacute" format="1">
  <advance width="1516"/>
  <unicode hex="0106"/>
  <outline>
    <contour>
      <point x="875" y="1666" type="line"/>
      <point x="1069" y="2000" type="line"/>
      <point x="912" y="2000" type="line"/>
      <point x="756" y="1666" type="line"/>
    </contour>
    <contour>
      <point x="1411" y="194" type="curve"/>
      <point x="1380" y="224" type="line"/>
      <point x="1256" y="96"/>
      <point x="1080" y="19"/>
      <point x="891" y="19" type="curve" smooth="yes"/>
      <point x="518" y="19"/>
      <point x="255" y="321"/>
      <point x="255" y="751" type="curve" smooth="yes"/>
      <point x="255" y="1180"/>
      <point x="518" y="1481"/>
      <point x="891" y="1481" type="curve" smooth="yes"/>
      <point x="1080" y="1481"/>
      <point x="1256" y="1404"/>
      <point x="1380" y="1276" type="curve"/>
      <point x="1411" y="1307" type="line"/>
      <point x="1271" y="1448"/>
      <point x="1075" y="1530"/>
      <point x="853" y="1530" type="curve" smooth="yes"/>
      <point x="404" y="1530"/>
      <point x="75" y="1200"/>
      <point x="75" y="750" type="curve" smooth="yes"/>
      <point x="75" y="301"/>
      <point x="404" y="-30"/>
      <point x="853" y="-30" type="curve" smooth="yes"/>
      <point x="1075" y="-30"/>
      <point x="1271" y="52"/>
    </contour>
  </outline>
</glyph>
<glyph name="cacute" format="1">
  <advance width="1033"/>
  <unicode hex="0107"/>
  <outline>
    <contour>
      <point x="604" y="1166" type="line"/>
      <point x="798" y="1500" type="line"/>
      <point x="641" y="1500" type="line"/>
      <point x="485" y="1166" type="line"/>
    </contour>
    <contour>
      <point x="968" y="125" type="curve"/>
      <point x="940" y="154" type="line"/>
      <point x="860" y="72"/>
      <point x="752" y="26"/>
      <point x="640" y="26" type="curve" smooth="yes"/>
      <point x="407" y="26"/>
      <point x="243" y="222"/>
      <point x="243" y="500" type="curve" smooth="yes"/>
      <point x="243" y="778"/>
      <point x="407" y="974"/>
      <point x="640" y="974" type="curve" smooth="yes"/>
      <point x="752" y="974"/>
      <point x="859" y="929"/>
      <point x="940" y="846" type="curve"/>
      <point x="968" y="875" type="line"/>
      <point x="872" y="969"/>
      <point x="741" y="1020"/>
      <point x="598" y="1020" type="curve" smooth="yes"/>
      <point x="299" y="1020"/>
      <point x="75" y="797"/>
      <point x="75" y="500" type="curve" smooth="yes"/>
      <point x="75" y="203"/>
      <point x="300" y="-20"/>
      <point x="599" y="-20" type="curve" smooth="yes"/>
      <point x="742" y="-20"/>
      <point x="872" y="31"/>
    </contour>
  </outline>
</glyph>
<glyph name="ccircumflex" format="1">
  <advance width="1033"/>
  <unicode hex="0109"/>
  <outline>
    <contour>
      <point x="847" y="1166" type="line"/>
      <point x="635" y="1500" type="line" name="at01"/>
      <point x="489" y="1500" type="line" name="at01.1"/>
      <point x="276" y="1166" type="line"/>
      <point x="399" y="1166" type="line" name="av01"/>
      <point x="562" y="1429" type="line"/>
      <point x="724" y="1166" type="line" name="av01.1"/>
    </contour>
    <contour>
      <point x="968" y="125" type="curve"/>
      <point x="941" y="154" type="line"/>
      <point x="861" y="72"/>
      <point x="752" y="26"/>
      <point x="640" y="26" type="curve" smooth="yes"/>
      <point x="407" y="26"/>
      <point x="243" y="222"/>
      <point x="243" y="500" type="curve" smooth="yes"/>
      <point x="243" y="778"/>
      <point x="407" y="974"/>
      <point x="640" y="974" type="curve" smooth="yes"/>
      <point x="752" y="974"/>
      <point x="860" y="929"/>
      <point x="941" y="846" type="curve"/>
      <point x="968" y="875" type="line"/>
      <point x="872" y="969"/>
      <point x="742" y="1020"/>
      <point x="599" y="1020" type="curve" smooth="yes"/>
      <point x="300" y="1020"/>
      <point x="75" y="797"/>
      <point x="75" y="500" type="curve" smooth="yes"/>
      <point x="75" y="203"/>
      <point x="300" y="-20"/>
      <point x="599" y="-20" type="curve" smooth="yes"/>
      <point x="742" y="-20"/>
      <point x="872" y="31"/>
    </contour>
  </outline>
</glyph>
<glyph name="dcaron" format="2">
  <advance width="1807"/>
  <unicode hex="010F"/>
  <outline>
    <contour>
      <point x="1527" y="1070" type="line"/>
      <point x="1652" y="1520" type="line"/>
      <point x="1531" y="1520" type="line" name="av01"/>
      <point x="1430" y="1070" type="line"/>
    </contour>
    <component base="d"/>
  </outline>
</glyph>
<glyph name="Dcroat" format="2">
  <advance width="1588"/>
  <unicode hex="0110"/>
  <outline>
    <contour>
      <point x="195" y="0" type="line"/>
      <point x="625" y="0" type="line" smooth="yes"/>
      <point x="1184" y="0"/>
      <point x="1513" y="277"/>
      <point x="1513" y="750" type="curve" smooth="yes"/>
      <point x="1513" y="1223"/>
      <point x="1184" y="1500"/>
      <point x="625" y="1500" type="curve" smooth="yes"/>
      <point x="195" y="1500" type="line"/>
      <point x="195" y="769" type="line"/>
      <point x="25" y="769" type="line" name="dv02"/>
      <point x="25" y="731" type="line" name="dv01"/>
      <point x="195" y="731" type="line"/>
    </contour>
    <contour>
      <point x="825" y="731" type="line"/>
      <point x="825" y="769" type="line"/>
      <point x="371" y="769" type="line"/>
      <point x="371" y="1458" type="line"/>
      <point x="628" y="1458" type="line" smooth="yes"/>
      <point x="1073" y="1458"/>
      <point x="1333" y="1197"/>
      <point x="1333" y="750" type="curve" smooth="yes"/>
      <point x="1333" y="304"/>
      <point x="1072" y="42"/>
      <point x="628" y="42" type="curve" smooth="yes"/>
      <point x="371" y="42" type="line"/>
      <point x="371" y="731" type="line"/>
    </contour>
  </outline>
</glyph>
<glyph name="Emacron" format="1">
  <advance width="1229"/>
  <unicode hex="0112"/>
  <outline>
    <contour>
      <point x="944" y="1792" type="line" name="av02"/>
      <point x="944" y="1893" type="line"/>
      <point x="295" y="1893" type="line" name="av01"/>
      <point x="295" y="1792" type="line"/>
    </contour>
    <contour>
      <point x="155" y="0" type="line"/>
      <point x="1084" y="0" type="line"/>
      <point x="1084" y="42" type="line"/>
      <point x="331" y="42" type="line"/>
      <point x="331" y="744" type="line"/>
      <point x="1033" y="744" type="line"/>
      <point x="1033" y="786" type="line"/>
      <point x="331" y="786" type="line"/>
      <point x="331" y="1458" type="line"/>
      <point x="1074" y="1458" type="line"/>
      <point x="1074" y="1500" type="line"/>
      <point x="155" y="1500" type="line"/>
    </contour>
  </outline>
</glyph>
<glyph name="Eogonek" format="1">
  <advance width="1229"/>
  <unicode hex="0118"/>
  <outline>
    <contour>
      <point x="155" y="0" type="line"/>
      <point x="1004" y="0" type="line" name="ab01"/>
      <point x="878" y="-44"/>
      <point x="797" y="-136"/>
      <point x="797" y="-237" type="curve" smooth="yes"/>
      <point x="797" y="-337"/>
      <point x="880" y="-416"/>
      <point x="1013" y="-416" type="curve" name="av01"/>
      <point x="1023" y="-326" type="line"/>
      <point x="926" y="-320"/>
      <point x="878" y="-269"/>
      <point x="878" y="-204" type="curve" smooth="yes"/>
      <point x="878" y="-125"/>
      <point x="946" y="-38"/>
      <point x="1045" y="0" type="curve"/>
      <point x="1084" y="0" type="line"/>
      <point x="1084" y="42" type="line"/>
      <point x="331" y="42" type="line"/>
      <point x="331" y="744" type="line"/>
      <point x="1033" y="744" type="line"/>
      <point x="1033" y="786" type="line"/>
      <point x="331" y="786" type="line"/>
      <point x="331" y="1458" type="line"/>
      <point x="1074" y="1458" type="line"/>
      <point x="1074" y="1500" type="line"/>
      <point x="155" y="1500" type="line"/>
    </contour>
  </outline>
</glyph>
<glyph name="Gcircumflex" format="1">
  <advance width="1668"/>
  <unicode hex="011C"/>
  <outline>
    <contour>
      <point x="1139" y="1666" type="line"/>
      <point x="926" y="2000" type="line" name="at01"/>
      <point x="781" y="2000" type="line" name="at01.1"/>
      <point x="568" y="1666" type="line"/>
      <point x="691" y="1666" type="line" name="av01"/>
      <point x="853" y="1929" type="line"/>
      <point x="1016" y="1666" type="line" name="av01.1"/>
    </contour>
    <contour>
      <point x="1369" y="1291" type="curve"/>
      <point x="1402" y="1323" type="line"/>
      <point x="1261" y="1457"/>
      <point x="1068" y="1530"/>
      <point x="858" y="1530" type="curve" smooth="yes"/>
      <point x="408" y="1530"/>
      <point x="75" y="1196"/>
      <point x="75" y="745" type="curve" smooth="yes"/>
      <point x="75" y="299"/>
      <point x="400" y="-30"/>
      <point x="842" y="-30" type="curve" smooth="yes"/>
      <point x="1281" y="-30"/>
      <point x="1593" y="294"/>
      <point x="1593" y="750" type="curve"/>
      <point x="1592" y="763" type="line"/>
      <point x="868" y="763" type="line"/>
      <point x="868" y="721" type="line"/>
      <point x="1418" y="721" type="line"/>
      <point x="1418" y="299"/>
      <point x="1183" y="12"/>
      <point x="853" y="12" type="curve" smooth="yes"/>
      <point x="508" y="12"/>
      <point x="255" y="322"/>
      <point x="255" y="744" type="curve" smooth="yes"/>
      <point x="255" y="1177"/>
      <point x="522" y="1479"/>
      <point x="904" y="1479" type="curve" smooth="yes"/>
      <point x="1082" y="1479"/>
      <point x="1242" y="1414"/>
    </contour>
  </outline>
</glyph>
<glyph name="gcircumflex" format="1">
  <advance width="1267"/>
  <unicode hex="011D"/>
  <outline>
    <contour>
      <point x="924" y="1166" type="line"/>
      <point x="711" y="1500" type="line" name="at01"/>
      <point x="566" y="1500" type="line" name="at01.1"/>
      <point x="353" y="1166" type="line"/>
      <point x="476" y="1166" type="line" name="av01"/>
      <point x="638" y="1429" type="line"/>
      <point x="801" y="1166" type="line" name="av01.1"/>
    </contour>
    <contour>
      <point x="549" y="0" type="curve" smooth="yes"/>
      <point x="731" y="0"/>
      <point x="881" y="102"/>
      <point x="958" y="261" type="curve"/>
      <point x="958" y="-48" type="line" smooth="yes"/>
      <point x="958" y="-292"/>
      <point x="777" y="-474"/>
      <point x="536" y="-474" type="curve" smooth="yes"/>
      <point x="409" y="-474"/>
      <point x="287" y="-422"/>
      <point x="189" y="-329" type="curve"/>
      <point x="164" y="-362" type="line"/>
      <point x="284" y="-470"/>
      <point x="415" y="-520"/>
      <point x="578" y="-520" type="curve" smooth="yes"/>
      <point x="914" y="-520"/>
      <point x="1122" y="-310"/>
      <point x="1122" y="26" type="curve" smooth="yes"/>
      <point x="1122" y="1000" type="line"/>
      <point x="977" y="1000" type="line"/>
      <point x="965" y="746" type="line"/>
      <point x="890" y="912"/>
      <point x="737" y="1020"/>
      <point x="550" y="1020" type="curve" smooth="yes"/>
      <point x="284" y="1020"/>
      <point x="85" y="801"/>
      <point x="85" y="510" type="curve" smooth="yes"/>
      <point x="85" y="219"/>
      <point x="284" y="0"/>
    </contour>
    <contour>
      <point x="604" y="67" type="curve" smooth="yes"/>
      <point x="402" y="67"/>
      <point x="250" y="258"/>
      <point x="250" y="511" type="curve" smooth="yes"/>
      <point x="250" y="763"/>
      <point x="403" y="953"/>
      <point x="605" y="953" type="curve" smooth="yes"/>
      <point x="798" y="953"/>
      <point x="958" y="781"/>
      <point x="958" y="547" type="curve" smooth="yes"/>
      <point x="958" y="475" type="line" smooth="yes"/>
      <point x="958" y="239"/>
      <point x="797" y="67"/>
    </contour>
  </outline>
</glyph>
<glyph name="gbreve" format="1">
  <advance width="1267"/>
  <unicode hex="011F"/>
  <outline>
    <contour>
      <point x="947" y="1500" type="curve" name="at01"/>
      <point x="845" y="1500" type="line" name="ah01"/>
      <point x="845" y="1366"/>
      <point x="760" y="1273"/>
      <point x="639" y="1273" type="curve" smooth="yes"/>
      <point x="518" y="1273"/>
      <point x="432" y="1366"/>
      <point x="432" y="1500" type="curve" name="sh01"/>
      <point x="330" y="1500" type="line" name="at02"/>
      <point x="330" y="1318"/>
      <point x="459" y="1185"/>
      <point x="639" y="1185" type="curve" smooth="yes" name="av01"/>
      <point x="819" y="1185"/>
      <point x="947" y="1318"/>
    </contour>
    <contour>
      <point x="549" y="0" type="curve" smooth="yes"/>
      <point x="731" y="0"/>
      <point x="881" y="102"/>
      <point x="958" y="261" type="curve"/>
      <point x="958" y="-48" type="line" smooth="yes"/>
      <point x="958" y="-292"/>
      <point x="777" y="-474"/>
      <point x="536" y="-474" type="curve" smooth="yes"/>
      <point x="409" y="-474"/>
      <point x="287" y="-422"/>
      <point x="189" y="-329" type="curve"/>
      <point x="164" y="-362" type="line"/>
      <point x="284" y="-470"/>
      <point x="415" y="-520"/>
      <point x="578" y="-520" type="curve" smooth="yes"/>
      <point x="914" y="-520"/>
      <point x="1122" y="-310"/>
      <point x="1122" y="26" type="curve" smooth="yes"/>
      <point x="1122" y="1000" type="line"/>
      <point x="977" y="1000" type="line"/>
      <point x="965" y="746" type="line"/>
      <point x="890" y="912"/>
      <point x="737" y="1020"/>
      <point x="550" y="1020" type="curve" smooth="yes"/>
      <point x="284" y="1020"/>
      <point x="85" y="801"/>
      <point x="85" y="510" type="curve" smooth="yes"/>
      <point x="85" y="219"/>
      <point x="284" y="0"/>
    </contour>
    <contour>
      <point x="604" y="67" type="curve" smooth="yes"/>
      <point x="402" y="67"/>
      <point x="250" y="258"/>
      <point x="250" y="511" type="curve" smooth="yes"/>
      <point x="250" y="763"/>
      <point x="403" y="953"/>
      <point x="605" y="953" type="curve" smooth="yes"/>
      <point x="798" y="953"/>
      <point x="958" y="781"/>
      <point x="958" y="547" type="curve" smooth="yes"/>
      <point x="958" y="475" type="line" smooth="yes"/>
      <point x="958" y="239"/>
      <point x="797" y="67"/>
    </contour>
  </outline>
</glyph>
<glyph name="Gcommaaccent" format="1">
  <advance width="1668"/>
  <unicode hex="0122"/>
  <outline>
    <contour>
      <point x="1369" y="1291" type="curve"/>
      <point x="1402" y="1323" type="line"/>
      <point x="1261" y="1457"/>
      <point x="1068" y="1530"/>
      <point x="858" y="1530" type="curve" smooth="yes"/>
      <point x="408" y="1530"/>
      <point x="75" y="1196"/>
      <point x="75" y="745" type="curve" smooth="yes"/>
      <point x="75" y="299"/>
      <point x="400" y="-30"/>
      <point x="842" y="-30" type="curve" smooth="yes"/>
      <point x="1281" y="-30"/>
      <point x="1593" y="294"/>
      <point x="1593" y="750" type="curve"/>
      <point x="1592" y="763" type="line"/>
      <point x="868" y="763" type="line"/>
      <point x="868" y="721" type="line"/>
      <point x="1418" y="721" type="line"/>
      <point x="1418" y="299"/>
      <point x="1183" y="12"/>
      <point x="853" y="12" type="curve" smooth="yes"/>
      <point x="508" y="12"/>
      <point x="255" y="322"/>
      <point x="255" y="744" type="curve" smooth="yes"/>
      <point x="255" y="1177"/>
      <point x="522" y="1479"/>
      <point x="904" y="1479" type="curve" smooth="yes"/>
      <point x="1082" y="1479"/>
      <point x="1242" y="1414"/>
    </contour>
    <contour>
      <point x="776" y="-485" type="line"/>
      <point x="877" y="-432"/>
      <point x="942" y="-317"/>
      <point x="942" y="-191" type="curve" smooth="yes"/>
      <point x="942" y="-148"/>
      <point x="934" y="-106"/>
      <point x="919" y="-65" type="curve"/>
      <point x="810" y="-90" type="line"/>
      <point x="830" y="-126"/>
      <point x="839" y="-167"/>
      <point x="839" y="-208" type="curve" smooth="yes"/>
      <point x="839" y="-295"/>
      <point x="797" y="-383"/>
      <point x="725" y="-433" type="curve"/>
    </contour>
  </outline>
</glyph>
<glyph name="hcircumflex" format="1">
  <advance width="1227"/>
  <unicode hex="0125"/>
  <outline>
    <contour>
      <point x="523" y="1666" type="line"/>
      <point x="311" y="2000" type="line" name="at01"/>
      <point x="165" y="2000" type="line" name="at01.1"/>
      <point x="-48" y="1666" type="line"/>
      <point x="76" y="1666" type="line" name="av01"/>
      <point x="238" y="1929" type="line"/>
      <point x="400" y="1666" type="line" name="av01.1"/>
    </contour>
    <contour>
      <point x="156" y="0" type="line"/>
      <point x="320" y="0" type="line"/>
      <point x="320" y="611" type="line" smooth="yes"/>
      <point x="320" y="822"/>
      <point x="436" y="951"/>
      <point x="627" y="951" type="curve" smooth="yes"/>
      <point x="816" y="951"/>
      <point x="928" y="825"/>
      <point x="928" y="611" type="curve" smooth="yes"/>
      <point x="928" y="0" type="line"/>
      <point x="1092" y="0" type="line"/>
      <point x="1092" y="571" type="line" smooth="yes"/>
      <point x="1092" y="854"/>
      <point x="940" y="1020"/>
      <point x="685" y="1020" type="curve" smooth="yes"/>
      <point x="513" y="1020"/>
      <point x="388" y="944"/>
      <point x="320" y="802" type="curve"/>
      <point x="320" y="1500" type="line"/>
      <point x="156" y="1500" type="line"/>
    </contour>
  </outline>
</glyph>
<glyph name="Hbar" format="2">
  <advance width="1530"/>
  <unicode hex="0126"/>
  <outline>
    <contour>
      <point x="1515" y="1111" type="line" name="av02"/>
      <point x="1515" y="1150" type="line"/>
      <point x="1359" y="1150" type="line"/>
      <point x="1359" y="1500" type="line"/>
      <point x="1183" y="1500" type="line"/>
      <point x="1183" y="1150" type="line"/>
      <point x="346" y="1150" type="line"/>
      <point x="346" y="1500" type="line"/>
      <point x="170" y="1500" type="line"/>
      <point x="170" y="1150" type="line"/>
      <point x="15" y="1150" type="line" name="av01"/>
      <point x="15" y="1111" type="line"/>
      <point x="170" y="1111" type="line"/>
      <point x="170" y="0" type="line"/>
      <point x="346" y="0" type="line"/>
      <point x="346" y="719" type="line"/>
      <point x="1183" y="719" type="line"/>
      <point x="1183" y="0" type="line"/>
      <point x="1359" y="0" type="line"/>
      <point x="1359" y="1111" type="line"/>
    </contour>
    <contour>
      <point x="346" y="761" type="line"/>
      <point x="346" y="1111" type="line"/>
      <point x="1183" y="1111" type="line"/>
      <point x="1183" y="761" type="line"/>
    </contour>
  </outline>
</glyph>
<glyph name="itilde" format="1">
  <advance width="475"/>
  <unicode hex="0129"/>
  <outline>
    <contour>
      <point x="571" y="1447" type="curve"/>
      <point x="498" y="1447" type="line"/>
      <point x="487" y="1373"/>
      <point x="448" y="1333"/>
      <point x="387" y="1333" type="curve" smooth="yes"/>
      <point x="337" y="1333"/>
      <point x="301" y="1359"/>
      <point x="263" y="1388" type="curve" smooth="yes"/>
      <point x="219" y="1421"/>
      <point x="171" y="1457"/>
      <point x="92" y="1457" type="curve" smooth="yes"/>
      <point x="-19" y="1457"/>
      <point x="-84" y="1386"/>
      <point x="-96" y="1252" type="curve"/>
      <point x="-22" y="1252" type="line"/>
      <point x="-11" y="1326"/>
      <point x="31" y="1368"/>
      <point x="94" y="1368" type="curve" smooth="yes"/>
      <point x="145" y="1368"/>
      <point x="181" y="1341"/>
      <point x="219" y="1311" type="curve" smooth="yes"/>
      <point x="271" y="1270"/>
      <point x="314" y="1242"/>
      <point x="383" y="1242" type="curve" smooth="yes"/>
      <point x="492" y="1242"/>
      <point x="560" y="1316"/>
    </contour>
    <contour>
      <point x="320" y="0" type="line"/>
      <point x="320" y="1000" type="line"/>
      <point x="156" y="1000" type="line"/>
      <point x="156" y="0" type="line"/>
    </contour>
  </outline>
</glyph>
<glyph name="imacron" format="1">
  <advance width="476"/>
  <unicode hex="012B"/>
  <outline>
    <contour>
      <point x="563" y="1292" type="line" name="av02"/>
      <point x="563" y="1393" type="line"/>
      <point x="-87" y="1393" type="line" name="av01"/>
      <point x="-87" y="1292" type="line"/>
    </contour>
    <contour>
      <point x="320" y="0" type="line"/>
      <point x="320" y="1000" type="line"/>
      <point x="156" y="1000" type="line"/>
      <point x="156" y="0" type="line"/>
    </contour>
  </outline>
</glyph>
<glyph name="Iogonek" format="1">
  <advance width="488"/>
  <unicode hex="012E"/>
  <outline>
    <contour>
      <point x="333" y="1500" type="line" name="at01"/>
      <point x="333" y="0" type="line" name="ab01"/>
      <point x="313" y="0" type="line"/>
      <point x="214" y="-38"/>
      <point x="146" y="-125"/>
      <point x="146" y="-204" type="curve" smooth="yes"/>
      <point x="146" y="-269"/>
      <point x="194" y="-320"/>
      <point x="291" y="-326" type="curve"/>
      <point x="281" y="-416" type="line" name="av01"/>
      <point x="148" y="-416"/>
      <point x="65" y="-337"/>
      <point x="65" y="-237" type="curve" smooth="yes"/>
      <point x="65" y="-136"/>
      <point x="146" y="-44"/>
      <point x="272" y="0" type="curve" name="ab01.1"/>
      <point x="157" y="0" type="line" name="dh01"/>
      <point x="157" y="1500" type="line"/>
    </contour>
  </outline>
</glyph>
<glyph name="IJ" format="2">
  <advance width="1038"/>
  <unicode hex="0132"/>
  <outline>
    <contour>
      <point x="331" y="1500" type="line" name="at01"/>
      <point x="331" y="0" type="line" name="ab01"/>
      <point x="155" y="0" type="line" name="dh01"/>
      <point x="155" y="1500" type="line"/>
    </contour>
    <contour>
      <point x="365" y="-383" type="curve"/>
      <point x="364" y="-341" type="line"/>
      <point x="591" y="-341"/>
      <point x="707" y="-205"/>
      <point x="707" y="62" type="curve" smooth="yes"/>
      <point x="707" y="1500" type="line"/>
      <point x="883" y="1500" type="line"/>
      <point x="883" y="70" type="line" smooth="yes"/>
      <point x="883" y="-245"/>
      <point x="727" y="-383"/>
    </contour>
  </outline>
</glyph>
<glyph name="uni0137" format="1">
  <advance width="1147"/>
  <unicode hex="0137"/>
  <outline>
    <contour>
      <point x="320" y="0" type="line"/>
      <point x="320" y="233" type="line"/>
      <point x="518" y="444" type="line"/>
      <point x="892" y="0" type="line"/>
      <point x="1102" y="0" type="line"/>
      <point x="633" y="566" type="line"/>
      <point x="1042" y="1000" type="line"/>
      <point x="989" y="1000" type="line"/>
      <point x="361" y="333" type="line"/>
      <point x="320" y="286" type="line"/>
      <point x="320" y="1500" type="line"/>
      <point x="155" y="1500" type="line"/>
      <point x="155" y="0" type="line"/>
    </contour>
    <contour>
      <point x="501" y="-485" type="line"/>
      <point x="602" y="-432"/>
      <point x="667" y="-317"/>
      <point x="667" y="-191" type="curve" smooth="yes"/>
      <point x="667" y="-148"/>
      <point x="659" y="-106"/>
      <point x="644" y="-65" type="curve"/>
      <point x="535" y="-90" type="line"/>
      <point x="555" y="-126"/>
      <point x="564" y="-167"/>
      <point x="564" y="-208" type="curve" smooth="yes"/>
      <point x="564" y="-295"/>
      <point x="522" y="-383"/>
      <point x="450" y="-433" type="curve"/>
    </contour>
  </outline>
</glyph>
<glyph name="kgreenlandic" format="2">
  <advance width="1146"/>
  <unicode hex="0138"/>
  <outline>
    <contour>
      <point x="319" y="0" type="line"/>
      <point x="319" y="233" type="line"/>
      <point x="517" y="444" type="line"/>
      <point x="891" y="0" type="line"/>
      <point x="1101" y="0" type="line"/>
      <point x="632" y="566" type="line"/>
      <point x="1041" y="1000" type="line"/>
      <point x="989" y="1000" type="line"/>
      <point x="361" y="333" type="line"/>
      <point x="319" y="286" type="line"/>
      <point x="319" y="1000" type="line"/>
      <point x="155" y="1000" type="line"/>
      <point x="155" y="0" type="line"/>
    </contour>
  </outline>
</glyph>
<glyph name="uni013B" format="1">
  <advance width="1150"/>
  <unicode hex="013B"/>
  <outline>
    <contour>
      <point x="1075" y="0" type="line"/>
      <point x="1075" y="42" type="line"/>
      <point x="331" y="42" type="line"/>
      <point x="331" y="1500" type="line"/>
      <point x="155" y="1500" type="line"/>
      <point x="155" y="0" type="line"/>
    </contour>
    <contour>
      <point x="537" y="-485" type="line"/>
      <point x="638" y="-432"/>
      <point x="703" y="-317"/>
      <point x="703" y="-191" type="curve" smooth="yes"/>
      <point x="703" y="-148"/>
      <point x="695" y="-106"/>
      <point x="680" y="-65" type="curve"/>
      <point x="571" y="-90" type="line"/>
      <point x="591" y="-126"/>
      <point x="600" y="-167"/>
      <point x="600" y="-208" type="curve" smooth="yes"/>
      <point x="600" y="-295"/>
      <point x="558" y="-383"/>
      <point x="486" y="-433" type="curve"/>
    </contour>
  </outline>
</glyph>
<glyph name="uni013C" format="1">
  <advance width="483"/>
  <unicode hex="013C"/>
  <outline>
    <contour>
      <point x="348" y="0" type="line"/>
      <point x="348" y="1540" type="line" name="av01"/>
      <point x="175" y="1540" type="line" name="dh01"/>
      <point x="175" y="0" type="line" name="ab01"/>
    </contour>
    <contour>
      <point x="186" y="-485" type="line"/>
      <point x="287" y="-432"/>
      <point x="352" y="-317"/>
      <point x="352" y="-191" type="curve" smooth="yes"/>
      <point x="352" y="-148"/>
      <point x="345" y="-106"/>
      <point x="330" y="-65" type="curve"/>
      <point x="220" y="-90" type="line"/>
      <point x="240" y="-126"/>
      <point x="249" y="-167"/>
      <point x="249" y="-208" type="curve" smooth="yes"/>
      <point x="249" y="-295"/>
      <point x="208" y="-383"/>
      <point x="136" y="-433" type="curve"/>
    </contour>
  </outline>
</glyph>
<glyph name="Lcaron" format="2">
  <advance width="1150"/>
  <unicode hex="013D"/>
  <anchor x="626" y="0" name="bottom"/>
  <anchor x="256" y="750" name="center"/>
  <anchor x="256" y="1500" name="top"/>
  <anchor x="1130" y="1500" name="topright"/>
  <outline>
    <contour>
      <point x="798" y="1050" type="line"/>
      <point x="923" y="1500" type="line"/>
      <point x="802" y="1500" type="line" name="av01.1"/>
      <point x="701" y="1050" type="line"/>
    </contour>
    <component base="L"/>
  </outline>
</glyph>
<glyph name="lcaron" format="2">
  <advance width="778"/>
  <unicode hex="013E"/>
  <anchor x="242" y="0" name="bottom"/>
  <anchor x="242" y="500" name="center"/>
  <anchor x="242" y="1500" name="top"/>
  <anchor x="464" y="1500" name="topright"/>
  <outline>
    <contour>
      <point x="638" y="1063" type="line"/>
      <point x="763" y="1513" type="line"/>
      <point x="642" y="1513" type="line" name="av01.1"/>
      <point x="541" y="1063" type="line"/>
    </contour>
    <component base="l"/>
  </outline>
</glyph>
<glyph name="Ldot" format="1">
  <advance width="1150"/>
  <unicode hex="013F"/>
  <outline>
    <contour>
      <point x="1075" y="0" type="line"/>
      <point x="1075" y="42" type="line"/>
      <point x="331" y="42" type="line"/>
      <point x="331" y="1500" type="line"/>
      <point x="155" y="1500" type="line"/>
      <point x="155" y="0" type="line"/>
    </contour>
    <contour>
      <point x="763" y="660" type="curve" smooth="yes"/>
      <point x="816.372" y="660"/>
      <point x="853" y="696.628"/>
      <point x="853" y="750" type="curve" smooth="yes"/>
      <point x="853" y="803.372"/>
      <point x="816.372" y="840"/>
      <point x="763" y="840" type="curve" smooth="yes"/>
      <point x="709.628" y="840"/>
      <point x="673" y="803.372"/>
      <point x="673" y="750" type="curve" smooth="yes"/>
      <point x="673" y="696.628"/>
      <point x="709.628" y="660"/>
    </contour>
  </outline>
</glyph>
<glyph name="ldot" format="1">
  <advance width="735"/>
  <unicode hex="0140"/>
  <outline>
    <contour>
      <point x="329" y="0" type="line"/>
      <point x="329" y="1540" type="line" name="av01"/>
      <point x="155" y="1540" type="line" name="dh01"/>
      <point x="155" y="0" type="line" name="ab01"/>
    </contour>
    <contour>
      <point x="620" y="680" type="curve" smooth="yes"/>
      <point x="673.372" y="680"/>
      <point x="710" y="716.628"/>
      <point x="710" y="770" type="curve" smooth="yes"/>
      <point x="710" y="823.372"/>
      <point x="673.372" y="860"/>
      <point x="620" y="860" type="curve" smooth="yes"/>
      <point x="566.628" y="860"/>
      <point x="530" y="823.372"/>
      <point x="530" y="770" type="curve" smooth="yes"/>
      <point x="530" y="716.628"/>
      <point x="566.628" y="680"/>
    </contour>
  </outline>
</glyph>
<glyph name="Lslash" format="2">
  <advance width="1127"/>
  <unicode hex="0141"/>
  <outline>
    <contour>
      <point x="-94" y="522" type="line"/>
      <point x="132" y="652" type="line"/>
      <point x="132" y="0" type="line"/>
      <point x="1052" y="0" type="line"/>
      <point x="1052" y="42" type="line"/>
      <point x="308" y="42" type="line"/>
      <point x="308" y="753" type="line"/>
      <point x="634" y="941" type="line" name="dv01"/>
      <point x="614" y="978" type="line" name="dv02"/>
      <point x="308" y="802" type="line"/>
      <point x="308" y="1500" type="line"/>
      <point x="132" y="1500" type="line"/>
      <point x="132" y="701" type="line"/>
      <point x="-114" y="559" type="line"/>
    </contour>
  </outline>
</glyph>
<glyph name="lslash" format="1">
  <advance width="455"/>
  <unicode hex="0142"/>
  <outline>
    <contour>
      <point x="-126" y="542" type="line"/>
      <point x="141" y="696" type="line"/>
      <point x="141" y="0" type="line" name="ab01"/>
      <point x="315" y="0" type="line"/>
      <point x="315" y="796" type="line"/>
      <point x="602" y="961" type="line" name="dv01"/>
      <point x="582" y="999" type="line" name="dv02"/>
      <point x="315" y="844" type="line"/>
      <point x="315" y="1540" type="line" name="av01"/>
      <point x="141" y="1540" type="line" name="dh01"/>
      <point x="141" y="744" type="line"/>
      <point x="-146" y="579" type="line"/>
    </contour>
  </outline>
</glyph>
<glyph name="uni0145" format="1">
  <advance width="1549"/>
  <unicode hex="0145"/>
  <outline>
    <contour>
      <point x="1394" y="0" type="line"/>
      <point x="1394" y="1500" type="line"/>
      <point x="1350" y="1500" type="line"/>
      <point x="1350" y="244" type="line"/>
      <point x="217" y="1500" type="line"/>
      <point x="155" y="1500" type="line"/>
      <point x="155" y="0" type="line"/>
      <point x="199" y="0" type="line"/>
      <point x="199" y="1256" type="line"/>
      <point x="1332" y="0" type="line"/>
    </contour>
    <contour>
      <point x="717" y="-485" type="line"/>
      <point x="818" y="-432"/>
      <point x="882" y="-317"/>
      <point x="882" y="-191" type="curve" smooth="yes"/>
      <point x="882" y="-148"/>
      <point x="875" y="-106"/>
      <point x="860" y="-65" type="curve"/>
      <point x="751" y="-90" type="line"/>
      <point x="771" y="-126"/>
      <point x="780" y="-167"/>
      <point x="780" y="-208" type="curve" smooth="yes"/>
      <point x="780" y="-295"/>
      <point x="738" y="-383"/>
      <point x="666" y="-433" type="curve"/>
    </contour>
  </outline>
</glyph>
<glyph name="ncommaaccent" format="1">
  <advance width="1226"/>
  <unicode hex="0146"/>
  <outline>
    <contour>
      <point x="1091" y="0" type="line"/>
      <point x="1091" y="571" type="line" smooth="yes"/>
      <point x="1091" y="854"/>
      <point x="939" y="1020"/>
      <point x="684" y="1020" type="curve" smooth="yes"/>
      <point x="501" y="1020"/>
      <point x="371" y="934"/>
      <point x="307" y="774" type="curve"/>
      <point x="298" y="1000" type="line"/>
      <point x="155" y="1000" type="line"/>
      <point x="155" y="0" type="line"/>
      <point x="319" y="0" type="line"/>
      <point x="319" y="611" type="line" smooth="yes"/>
      <point x="319" y="822"/>
      <point x="435" y="951"/>
      <point x="626" y="951" type="curve" smooth="yes"/>
      <point x="815" y="951"/>
      <point x="927" y="825"/>
      <point x="927" y="611" type="curve" smooth="yes"/>
      <point x="927" y="0" type="line"/>
    </contour>
    <contour>
      <point x="555" y="-485" type="line"/>
      <point x="656" y="-432"/>
      <point x="721" y="-317"/>
      <point x="721" y="-191" type="curve" smooth="yes"/>
      <point x="721" y="-148"/>
      <point x="713" y="-106"/>
      <point x="698" y="-65" type="curve"/>
      <point x="589" y="-90" type="line"/>
      <point x="609" y="-126"/>
      <point x="618" y="-167"/>
      <point x="618" y="-208" type="curve" smooth="yes"/>
      <point x="618" y="-295"/>
      <point x="576" y="-383"/>
      <point x="504" y="-433" type="curve"/>
    </contour>
  </outline>
</glyph>
<glyph name="Ncaron" format="1">
  <advance width="1548"/>
  <unicode hex="0147"/>
  <outline>
    <contour>
      <point x="846" y="1666" type="line" name="at01"/>
      <point x="1059" y="2000" type="line"/>
      <point x="936" y="2000" type="line" name="av01"/>
      <point x="774" y="1737" type="line"/>
      <point x="611" y="2000" type="line" name="av01.1"/>
      <point x="488" y="2000" type="line"/>
      <point x="701" y="1666" type="line" name="at01.1"/>
    </contour>
    <contour>
      <point x="1393" y="0" type="line"/>
      <point x="1393" y="1500" type="line"/>
      <point x="1349" y="1500" type="line"/>
      <point x="1349" y="244" type="line"/>
      <point x="216" y="1500" type="line"/>
      <point x="155" y="1500" type="line"/>
      <point x="155" y="0" type="line"/>
      <point x="199" y="0" type="line"/>
      <point x="199" y="1256" type="line"/>
      <point x="1332" y="0" type="line"/>
    </contour>
  </outline>
</glyph>
<glyph name="napostrophe" format="2">
  <advance width="1227"/>
  <unicode hex="0149"/>
  <anchor x="645" y="0" name="bottom"/>
  <anchor x="633" y="1000" name="top"/>
  <outline>
    <contour>
      <point x="206" y="1091" type="line"/>
      <point x="307" y="1144"/>
      <point x="372" y="1259"/>
      <point x="372" y="1385" type="curve" smooth="yes"/>
      <point x="372" y="1428"/>
      <point x="364" y="1470"/>
      <point x="349" y="1511" type="curve"/>
      <point x="240" y="1486" type="line"/>
      <point x="260" y="1450"/>
      <point x="269" y="1409"/>
      <point x="269" y="1368" type="curve" smooth="yes"/>
      <point x="269" y="1281"/>
      <point x="227" y="1194"/>
      <point x="155" y="1143" type="curve"/>
    </contour>
    <component base="n"/>
  </outline>
</glyph>
<glyph name="eng" format="2">
  <advance width="1226"/>
  <unicode hex="014B"/>
  <outline>
    <contour>
      <point x="629" y="-506" type="line"/>
      <point x="674.408" y="-515.288"/>
      <point x="716.143" y="-520"/>
      <point x="753" y="-520" type="curve" smooth="yes"/>
      <point x="964.847" y="-520"/>
      <point x="1091" y="-378.172"/>
      <point x="1091" y="-140" type="curve" smooth="yes"/>
      <point x="1091" y="571" type="line" smooth="yes"/>
      <point x="1091" y="853.157"/>
      <point x="939.764" y="1020"/>
      <point x="684" y="1020" type="curve" smooth="yes"/>
      <point x="501.898" y="1020"/>
      <point x="371.317" y="934.793"/>
      <point x="307" y="774" type="curve"/>
      <point x="298" y="1000" type="line"/>
      <point x="155" y="1000" type="line"/>
      <point x="155" y="0" type="line"/>
      <point x="319" y="0" type="line"/>
      <point x="319" y="611" type="line" smooth="yes"/>
      <point x="319" y="822.265"/>
      <point x="435.24" y="951"/>
      <point x="626" y="951" type="curve" smooth="yes"/>
      <point x="815.36" y="951"/>
      <point x="927.267" y="824.593"/>
      <point x="927" y="611" type="curve" smooth="yes"/>
      <point x="926" y="-188" type="line" smooth="yes"/>
      <point x="925.782" y="-362.455"/>
      <point x="833.628" y="-475"/>
      <point x="691" y="-475" type="curve" smooth="yes"/>
      <point x="674.9" y="-475"/>
      <point x="656.676" y="-473.401"/>
      <point x="634" y="-470" type="curve"/>
    </contour>
  </outline>
</glyph>
<glyph name="obreve" format="1">
  <advance width="1215"/>
  <unicode hex="014F"/>
  <outline>
    <contour>
      <point x="916" y="1500" type="curve" name="at01"/>
      <point x="814" y="1500" type="line" name="ah01"/>
      <point x="814" y="1366"/>
      <point x="729" y="1273"/>
      <point x="608" y="1273" type="curve" smooth="yes"/>
      <point x="487" y="1273"/>
      <point x="401" y="1366"/>
      <point x="401" y="1500" type="curve" name="sh01"/>
      <point x="299" y="1500" type="line" name="at02"/>
      <point x="299" y="1318"/>
      <point x="428" y="1185"/>
      <point x="608" y="1185" type="curve" smooth="yes" name="av01"/>
      <point x="788" y="1185"/>
      <point x="916" y="1318"/>
    </contour>
    <contour>
      <point x="608" y="-20" type="curve" smooth="yes"/>
      <point x="908" y="-20"/>
      <point x="1130" y="201"/>
      <point x="1130" y="500" type="curve" smooth="yes"/>
      <point x="1130" y="797"/>
      <point x="906" y="1020"/>
      <point x="608" y="1020" type="curve" smooth="yes"/>
      <point x="309" y="1020"/>
      <point x="85" y="798"/>
      <point x="85" y="500" type="curve" smooth="yes"/>
      <point x="85" y="203"/>
      <point x="309" y="-20"/>
    </contour>
    <contour>
      <point x="608" y="18" type="curve" smooth="yes"/>
      <point x="401" y="18"/>
      <point x="253" y="213"/>
      <point x="253" y="500" type="curve" smooth="yes"/>
      <point x="253" y="788"/>
      <point x="401" y="982"/>
      <point x="608" y="982" type="curve" smooth="yes"/>
      <point x="814" y="982"/>
      <point x="962" y="788"/>
      <point x="962" y="500" type="curve" smooth="yes"/>
      <point x="962" y="213"/>
      <point x="814" y="18"/>
    </contour>
  </outline>
</glyph>
<glyph name="Ohungarumlaut" format="1">
  <advance width="1709"/>
  <unicode hex="0150"/>
  <outline>
    <contour>
      <point x="699" y="1666" type="line"/>
      <point x="893" y="2000" type="line"/>
      <point x="736" y="2000" type="line"/>
      <point x="580" y="1666" type="line"/>
    </contour>
    <contour>
      <point x="1076" y="1666" type="line"/>
      <point x="1270" y="2000" type="line"/>
      <point x="1113" y="2000" type="line"/>
      <point x="957" y="1666" type="line"/>
    </contour>
    <contour>
      <point x="853" y="-30" type="curve" smooth="yes"/>
      <point x="1301" y="-30"/>
      <point x="1634" y="302"/>
      <point x="1634" y="750" type="curve" smooth="yes"/>
      <point x="1634" y="1198"/>
      <point x="1301" y="1530"/>
      <point x="852" y="1530" type="curve" smooth="yes"/>
      <point x="404" y="1530"/>
      <point x="75" y="1200"/>
      <point x="75" y="750" type="curve" smooth="yes"/>
      <point x="75" y="300"/>
      <point x="405" y="-30"/>
    </contour>
    <contour>
      <point x="852" y="12" type="curve" smooth="yes"/>
      <point x="506" y="12"/>
      <point x="255" y="324"/>
      <point x="255" y="751" type="curve" smooth="yes"/>
      <point x="255" y="1178"/>
      <point x="506" y="1488"/>
      <point x="852" y="1488" type="curve" smooth="yes"/>
      <point x="1199" y="1488"/>
      <point x="1453" y="1176"/>
      <point x="1453" y="751" type="curve" smooth="yes"/>
      <point x="1453" y="325"/>
      <point x="1198" y="12"/>
    </contour>
  </outline>
</glyph>
<glyph name="OE" format="1">
  <advance width="2539"/>
  <unicode hex="0152"/>
  <outline>
    <contour>
      <point x="831" y="-31" type="curve" smooth="yes"/>
      <point x="1104" y="-31"/>
      <point x="1333" y="100"/>
      <point x="1465" y="308" type="curve"/>
      <point x="1465" y="0" type="line"/>
      <point x="2394" y="0" type="line"/>
      <point x="2394" y="42" type="line"/>
      <point x="1641" y="42" type="line"/>
      <point x="1641" y="744" type="line"/>
      <point x="2344" y="744" type="line"/>
      <point x="2344" y="786" type="line"/>
      <point x="1641" y="786" type="line"/>
      <point x="1641" y="1458" type="line"/>
      <point x="2384" y="1458" type="line"/>
      <point x="2384" y="1500" type="line"/>
      <point x="1465" y="1500" type="line"/>
      <point x="1465" y="1190" type="line"/>
      <point x="1333" y="1398"/>
      <point x="1104" y="1529"/>
      <point x="831" y="1529" type="curve" smooth="yes"/>
      <point x="395" y="1529"/>
      <point x="75" y="1199"/>
      <point x="75" y="749" type="curve" smooth="yes"/>
      <point x="75" y="299"/>
      <point x="395" y="-31"/>
    </contour>
    <contour>
      <point x="858" y="11" type="curve" smooth="yes"/>
      <point x="509" y="11"/>
      <point x="255" y="323"/>
      <point x="255" y="750" type="curve" smooth="yes"/>
      <point x="255" y="1177"/>
      <point x="509" y="1487"/>
      <point x="858" y="1487" type="curve" smooth="yes"/>
      <point x="1208" y="1487"/>
      <point x="1465" y="1174"/>
      <point x="1465" y="750" type="curve" smooth="yes"/>
      <point x="1465" y="325"/>
      <point x="1208" y="11"/>
    </contour>
  </outline>
</glyph>
<glyph name="oe" format="2">
  <advance width="2070"/>
  <unicode hex="0153"/>
  <outline>
    <contour>
      <point x="1927" y="122" type="curve"/>
      <point x="1905" y="154" type="line"/>
      <point x="1791" y="65"/>
      <point x="1667" y="18"/>
      <point x="1549" y="18" type="curve" smooth="yes"/>
      <point x="1311" y="18"/>
      <point x="1144" y="209"/>
      <point x="1135" y="488" type="curve"/>
      <point x="1985" y="488" type="line"/>
      <point x="1985" y="516" type="line" smooth="yes"/>
      <point x="1985" y="811"/>
      <point x="1777" y="1020"/>
      <point x="1484" y="1020" type="curve" smooth="yes"/>
      <point x="1292" y="1020"/>
      <point x="1135" y="931"/>
      <point x="1047" y="790" type="curve"/>
      <point x="956" y="931"/>
      <point x="796" y="1020"/>
      <point x="608" y="1020" type="curve" smooth="yes"/>
      <point x="309" y="1020"/>
      <point x="85" y="798"/>
      <point x="85" y="500" type="curve" smooth="yes"/>
      <point x="85" y="203"/>
      <point x="309" y="-20"/>
      <point x="608" y="-20" type="curve" smooth="yes"/>
      <point x="803" y="-20"/>
      <point x="967" y="74"/>
      <point x="1056" y="222" type="curve"/>
      <point x="1152" y="74"/>
      <point x="1321" y="-20"/>
      <point x="1521" y="-20" type="curve" smooth="yes"/>
      <point x="1666" y="-20"/>
      <point x="1807" y="30"/>
    </contour>
    <contour>
      <point x="608" y="18" type="curve" smooth="yes"/>
      <point x="401" y="18"/>
      <point x="253" y="213"/>
      <point x="253" y="500" type="curve" smooth="yes"/>
      <point x="253" y="788"/>
      <point x="401" y="982"/>
      <point x="608" y="982" type="curve" smooth="yes"/>
      <point x="814" y="982"/>
      <point x="963" y="788"/>
      <point x="963" y="500" type="curve" smooth="yes"/>
      <point x="963" y="213"/>
      <point x="814" y="18"/>
    </contour>
    <contour>
      <point x="1135" y="526" type="line"/>
      <point x="1135" y="791"/>
      <point x="1288" y="982"/>
      <point x="1489" y="982" type="curve" smooth="yes"/>
      <point x="1688" y="982"/>
      <point x="1836" y="795"/>
      <point x="1836" y="526" type="curve"/>
    </contour>
  </outline>
</glyph>
<glyph name="racute" format="1">
  <advance width="796"/>
  <unicode hex="0155"/>
  <outline>
    <contour>
      <point x="460" y="1166" type="line"/>
      <point x="654" y="1500" type="line"/>
      <point x="497" y="1500" type="line"/>
      <point x="341" y="1166" type="line"/>
    </contour>
    <contour>
      <point x="319" y="0" type="line"/>
      <point x="319" y="579" type="line" smooth="yes"/>
      <point x="319" y="813"/>
      <point x="472" y="982"/>
      <point x="683" y="982" type="curve" smooth="yes"/>
      <point x="714" y="982"/>
      <point x="744" y="979"/>
      <point x="774" y="972" type="curve"/>
      <point x="781" y="1010" type="line"/>
      <point x="748" y="1016"/>
      <point x="716" y="1020"/>
      <point x="685" y="1020" type="curve" smooth="yes"/>
      <point x="499" y="1020"/>
      <point x="361" y="911"/>
      <point x="309" y="726" type="curve"/>
      <point x="299" y="1000" type="line"/>
      <point x="155" y="1000" type="line"/>
      <point x="155" y="0" type="line"/>
    </contour>
  </outline>
</glyph>
<glyph name="Rcaron" format="1">
  <advance width="1297"/>
  <unicode hex="0158"/>
  <outline>
    <contour>
      <point x="682" y="1666" type="line" name="at01"/>
      <point x="894" y="2000" type="line"/>
      <point x="772" y="2000" type="line" name="av01"/>
      <point x="609" y="1737" type="line"/>
      <point x="447" y="2000" type="line" name="av01.1"/>
      <point x="324" y="2000" type="line"/>
      <point x="536" y="1666" type="line" name="at01.1"/>
    </contour>
    <contour>
      <point x="1222" y="0" type="line"/>
      <point x="823" y="670" type="line"/>
      <point x="1045" y="716"/>
      <point x="1178" y="862"/>
      <point x="1178" y="1077" type="curve" smooth="yes"/>
      <point x="1178" y="1338"/>
      <point x="983" y="1500"/>
      <point x="673" y="1500" type="curve" smooth="yes"/>
      <point x="155" y="1500" type="line"/>
      <point x="155" y="0" type="line"/>
      <point x="331" y="0" type="line"/>
      <point x="331" y="655" type="line"/>
      <point x="641" y="655" type="line"/>
      <point x="1027" y="0" type="line"/>
    </contour>
    <contour>
      <point x="331" y="697" type="line"/>
      <point x="331" y="1458" type="line"/>
      <point x="612" y="1458" type="line" smooth="yes"/>
      <point x="846" y="1458"/>
      <point x="998" y="1316"/>
      <point x="998" y="1077" type="curve" smooth="yes"/>
      <point x="998" y="838"/>
      <point x="846" y="697"/>
      <point x="613" y="697" type="curve" smooth="yes"/>
    </contour>
  </outline>
</glyph>
<glyph name="sacute" format="1">
  <advance width="890"/>
  <unicode hex="015B"/>
  <outline>
    <contour>
      <point x="507" y="1166" type="line"/>
      <point x="702" y="1500" type="line"/>
      <point x="545" y="1500" type="line"/>
      <point x="388" y="1166" type="line"/>
    </contour>
    <contour>
      <point x="105" y="87" type="line"/>
      <point x="206" y="18"/>
      <point x="324" y="-20"/>
      <point x="443" y="-20" type="curve" smooth="yes"/>
      <point x="659" y="-20"/>
      <point x="805" y="99"/>
      <point x="805" y="275" type="curve" smooth="yes"/>
      <point x="805" y="446"/>
      <point x="665" y="513"/>
      <point x="538" y="574" type="curve" smooth="yes"/>
      <point x="417" y="632"/>
      <point x="306" y="684"/>
      <point x="306" y="804" type="curve" smooth="yes"/>
      <point x="306" y="908"/>
      <point x="388" y="977"/>
      <point x="512" y="977" type="curve" smooth="yes"/>
      <point x="583" y="977"/>
      <point x="670" y="955"/>
      <point x="732" y="920" type="curve"/>
      <point x="749" y="956" type="line"/>
      <point x="662" y="998"/>
      <point x="568" y="1020"/>
      <point x="478" y="1020" type="curve" smooth="yes"/>
      <point x="276" y="1020"/>
      <point x="141" y="914"/>
      <point x="141" y="757" type="curve" smooth="yes"/>
      <point x="141" y="602"/>
      <point x="271" y="541"/>
      <point x="398" y="482" type="curve" smooth="yes"/>
      <point x="520" y="425"/>
      <point x="640" y="369"/>
      <point x="640" y="231" type="curve" smooth="yes"/>
      <point x="640" y="107"/>
      <point x="544" y="22"/>
      <point x="402" y="22" type="curve" smooth="yes"/>
      <point x="313" y="22"/>
      <point x="220" y="55"/>
      <point x="126" y="120" type="curve"/>
    </contour>
  </outline>
</glyph>
<glyph name="scedilla" format="1">
  <advance width="890"/>
  <unicode hex="015F"/>
  <outline>
    <contour>
      <point x="105" y="87" type="line"/>
      <point x="195" y="25"/>
      <point x="299" y="-12"/>
      <point x="405" y="-19" type="curve"/>
      <point x="360" y="-135" type="line"/>
      <point x="370" y="-134"/>
      <point x="380" y="-134"/>
      <point x="389" y="-134" type="curve" smooth="yes"/>
      <point x="476" y="-134"/>
      <point x="532" y="-170"/>
      <point x="532" y="-231" type="curve" smooth="yes"/>
      <point x="532" y="-293"/>
      <point x="474" y="-336"/>
      <point x="392" y="-336" type="curve" smooth="yes"/>
      <point x="360" y="-336"/>
      <point x="327" y="-330"/>
      <point x="296" y="-317" type="curve"/>
      <point x="271" y="-391" type="line"/>
      <point x="319" y="-408"/>
      <point x="365" y="-416"/>
      <point x="409" y="-416" type="curve" smooth="yes"/>
      <point x="531" y="-416"/>
      <point x="620" y="-346"/>
      <point x="620" y="-251" type="curve" smooth="yes"/>
      <point x="620" y="-163"/>
      <point x="547" y="-104"/>
      <point x="442" y="-100" type="curve"/>
      <point x="475" y="-19" type="line" name="ih01"/>
      <point x="673" y="-8"/>
      <point x="805" y="108"/>
      <point x="805" y="275" type="curve" smooth="yes"/>
      <point x="805" y="446"/>
      <point x="665" y="513"/>
      <point x="533" y="576" type="curve" smooth="yes"/>
      <point x="416" y="632"/>
      <point x="306" y="684"/>
      <point x="306" y="804" type="curve" smooth="yes"/>
      <point x="306" y="908"/>
      <point x="388" y="977"/>
      <point x="512" y="977" type="curve" smooth="yes"/>
      <point x="583" y="977"/>
      <point x="670" y="955"/>
      <point x="732" y="920" type="curve"/>
      <point x="749" y="956" type="line"/>
      <point x="662" y="998"/>
      <point x="568" y="1020"/>
      <point x="478" y="1020" type="curve" smooth="yes"/>
      <point x="276" y="1020"/>
      <point x="141" y="914"/>
      <point x="141" y="757" type="curve" smooth="yes"/>
      <point x="141" y="602"/>
      <point x="271" y="541"/>
      <point x="398" y="482" type="curve" smooth="yes"/>
      <point x="520" y="425"/>
      <point x="640" y="369"/>
      <point x="640" y="231" type="curve" smooth="yes"/>
      <point x="640" y="107"/>
      <point x="544" y="22"/>
      <point x="402" y="22" type="curve" smooth="yes"/>
      <point x="313" y="22"/>
      <point x="220" y="55"/>
      <point x="126" y="120" type="curve"/>
    </contour>
  </outline>
</glyph>
<glyph name="Tcedilla" format="1">
  <advance width="1233"/>
  <unicode hex="0162"/>
  <outline>
    <contour>
      <point x="704" y="0" type="line"/>
      <point x="704" y="1458" type="line"/>
      <point x="1198" y="1458" type="line"/>
      <point x="1198" y="1500" type="line"/>
      <point x="35" y="1500" type="line"/>
      <point x="35" y="1458" type="line"/>
      <point x="528" y="1458" type="line"/>
      <point x="528" y="0" type="line"/>
      <point x="583" y="0" type="line"/>
      <point x="530" y="-135" type="line"/>
      <point x="540" y="-134"/>
      <point x="551" y="-134"/>
      <point x="560" y="-134" type="curve" smooth="yes"/>
      <point x="647" y="-134"/>
      <point x="702" y="-170"/>
      <point x="702" y="-231" type="curve" smooth="yes"/>
      <point x="702" y="-293"/>
      <point x="644" y="-336"/>
      <point x="562" y="-336" type="curve" smooth="yes"/>
      <point x="530" y="-336"/>
      <point x="498" y="-330"/>
      <point x="467" y="-317" type="curve"/>
      <point x="441" y="-391" type="line"/>
      <point x="489" y="-408"/>
      <point x="535" y="-416"/>
      <point x="579" y="-416" type="curve" smooth="yes"/>
      <point x="701" y="-416"/>
      <point x="791" y="-346"/>
      <point x="791" y="-251" type="curve" smooth="yes"/>
      <point x="791" y="-163"/>
      <point x="717" y="-104"/>
      <point x="612" y="-100" type="curve"/>
      <point x="654" y="0" type="line" name="ih01"/>
    </contour>
  </outline>
</glyph>
<glyph name="tcedilla" format="1">
  <advance width="826"/>
  <unicode hex="0163"/>
  <outline>
    <contour>
      <point x="741" y="24" type="curve"/>
      <point x="728" y="59" type="line"/>
      <point x="685" y="40"/>
      <point x="644" y="30"/>
      <point x="606" y="30" type="curve" smooth="yes"/>
      <point x="494" y="30"/>
      <point x="424" y="111"/>
      <point x="424" y="243" type="curve" smooth="yes"/>
      <point x="424" y="962" type="line"/>
      <point x="723" y="962" type="line"/>
      <point x="723" y="1000" type="line"/>
      <point x="424" y="1000" type="line"/>
      <point x="424" y="1250" type="line"/>
      <point x="260" y="1250" type="line"/>
      <point x="260" y="1000" type="line"/>
      <point x="85" y="1000" type="line"/>
      <point x="85" y="962" type="line"/>
      <point x="260" y="962" type="line"/>
      <point x="260" y="297" type="line" smooth="yes"/>
      <point x="260" y="144"/>
      <point x="324" y="39"/>
      <point x="435" y="-1" type="curve"/>
      <point x="383" y="-135" type="line"/>
      <point x="393" y="-134"/>
      <point x="403" y="-134"/>
      <point x="412" y="-134" type="curve" smooth="yes"/>
      <point x="499" y="-134"/>
      <point x="555" y="-170"/>
      <point x="555" y="-231" type="curve" smooth="yes"/>
      <point x="555" y="-293"/>
      <point x="497" y="-336"/>
      <point x="415" y="-336" type="curve" smooth="yes"/>
      <point x="383" y="-336"/>
      <point x="350" y="-330"/>
      <point x="319" y="-317" type="curve"/>
      <point x="294" y="-391" type="line"/>
      <point x="342" y="-408"/>
      <point x="388" y="-416"/>
      <point x="432" y="-416" type="curve" smooth="yes"/>
      <point x="554" y="-416"/>
      <point x="643" y="-346"/>
      <point x="643" y="-251" type="curve" smooth="yes"/>
      <point x="643" y="-163"/>
      <point x="570" y="-104"/>
      <point x="465" y="-100" type="curve"/>
      <point x="500" y="-16" type="line" name="ih01"/>
      <point x="514" y="-18"/>
      <point x="528" y="-18"/>
      <point x="543" y="-18" type="curve" smooth="yes"/>
      <point x="605" y="-18"/>
      <point x="672" y="-4"/>
    </contour>
  </outline>
</glyph>
<glyph name="tcaron" format="1">
  <advance width="1019"/>
  <unicode hex="0165"/>
  <outline>
    <contour>
      <point x="879" y="1070" type="line"/>
      <point x="1004" y="1520" type="line"/>
      <point x="883" y="1520" type="line" name="av01"/>
      <point x="782" y="1070" type="line"/>
    </contour>
    <contour>
      <point x="721" y="24" type="curve"/>
      <point x="708" y="59" type="line"/>
      <point x="665" y="40"/>
      <point x="624" y="30"/>
      <point x="586" y="30" type="curve" smooth="yes"/>
      <point x="474" y="30"/>
      <point x="404" y="111"/>
      <point x="404" y="243" type="curve" smooth="yes"/>
      <point x="404" y="962" type="line"/>
      <point x="702" y="962" type="line"/>
      <point x="702" y="1000" type="line"/>
      <point x="404" y="1000" type="line"/>
      <point x="404" y="1250" type="line"/>
      <point x="240" y="1250" type="line"/>
      <point x="240" y="1000" type="line"/>
      <point x="65" y="1000" type="line"/>
      <point x="65" y="962" type="line"/>
      <point x="240" y="962" type="line"/>
      <point x="240" y="297" type="line" smooth="yes"/>
      <point x="240" y="100"/>
      <point x="346" y="-19"/>
      <point x="523" y="-19" type="curve" smooth="yes"/>
      <point x="585" y="-19"/>
      <point x="652" y="-4"/>
    </contour>
  </outline>
</glyph>
<glyph name="Tbar" format="2">
  <advance width="1233"/>
  <unicode hex="0166"/>
  <outline>
    <contour>
      <point x="964" y="731" type="line" name="av02"/>
      <point x="964" y="769" type="line"/>
      <point x="704" y="769" type="line"/>
      <point x="704" y="1458" type="line"/>
      <point x="1198" y="1458" type="line"/>
      <point x="1198" y="1500" type="line"/>
      <point x="35" y="1500" type="line"/>
      <point x="35" y="1458" type="line"/>
      <point x="528" y="1458" type="line"/>
      <point x="528" y="769" type="line"/>
      <point x="269" y="769" type="line" name="av01"/>
      <point x="269" y="731" type="line"/>
      <point x="528" y="731" type="line"/>
      <point x="528" y="0" type="line"/>
      <point x="704" y="0" type="line"/>
      <point x="704" y="731" type="line"/>
    </contour>
  </outline>
</glyph>
<glyph name="Utilde" format="1">
  <advance width="1569"/>
  <unicode hex="0168"/>
  <outline>
    <contour>
      <point x="1118" y="1947" type="curve"/>
      <point x="1044" y="1947" type="line"/>
      <point x="1033" y="1873"/>
      <point x="995" y="1833"/>
      <point x="934" y="1833" type="curve" smooth="yes"/>
      <point x="884" y="1833"/>
      <point x="848" y="1859"/>
      <point x="810" y="1888" type="curve" smooth="yes"/>
      <point x="766" y="1922"/>
      <point x="717" y="1957"/>
      <point x="638" y="1957" type="curve" smooth="yes"/>
      <point x="527" y="1957"/>
      <point x="462" y="1886"/>
      <point x="450" y="1752" type="curve"/>
      <point x="524" y="1752" type="line"/>
      <point x="535" y="1826"/>
      <point x="577" y="1868"/>
      <point x="640" y="1868" type="curve" smooth="yes"/>
      <point x="691" y="1868"/>
      <point x="727" y="1842"/>
      <point x="760" y="1816" type="curve" smooth="yes"/>
      <point x="818" y="1770"/>
      <point x="861" y="1742"/>
      <point x="928" y="1742" type="curve" smooth="yes"/>
      <point x="1038" y="1742"/>
      <point x="1107" y="1816"/>
    </contour>
    <contour>
      <point x="1414" y="1500" type="line"/>
      <point x="1238" y="1500" type="line"/>
      <point x="1238" y="620" type="line" smooth="yes"/>
      <point x="1238" y="236"/>
      <point x="1068" y="12"/>
      <point x="784" y="12" type="curve" smooth="yes"/>
      <point x="501" y="12"/>
      <point x="331" y="236"/>
      <point x="331" y="620" type="curve" smooth="yes"/>
      <point x="331" y="1500" type="line"/>
      <point x="155" y="1500" type="line"/>
      <point x="155" y="663" type="line" smooth="yes"/>
      <point x="155" y="228"/>
      <point x="389" y="-30"/>
      <point x="784" y="-30" type="curve" smooth="yes"/>
      <point x="1179" y="-30"/>
      <point x="1414" y="228"/>
      <point x="1414" y="663" type="curve" smooth="yes"/>
    </contour>
  </outline>
</glyph>
